<?xml version="1.0" encoding="UTF-8"?>
<svg version="1.1" xmlns="http://www.w3.org/2000/svg" width="256" height="186">
<path d="M0 0 C0.33 0.66 0.66 1.32 1 2 C2.70822777 2.98551602 4.41840436 3.96805643 6.14453125 4.921875 C8.65999631 6.38349259 10.84927755 8.04479778 13 10 C13 10.66 13 11.32 13 12 C13.86044922 12.34998047 13.86044922 12.34998047 14.73828125 12.70703125 C26.07703938 19.18911923 34.22729171 36.99638989 38.5625 48.8125 C38.81410889 49.48104004 39.06571777 50.14958008 39.32495117 50.83837891 C41.16995768 56.25597082 41.25654511 61.31288458 41 67 C41.94319092 66.98428955 42.88638184 66.9685791 43.8581543 66.95239258 C47.37123148 66.90113993 50.88390898 66.86359009 54.3972168 66.83520508 C55.91518438 66.82015647 57.43310876 66.79971262 58.95092773 66.77368164 C61.13796677 66.73712347 63.32442896 66.72023477 65.51171875 66.70703125 C66.82615967 66.6913208 68.14060059 66.67561035 69.49487305 66.65942383 C73.24212556 67.02352617 75.14418739 67.55832234 78 70 C78.61523438 72.14477539 78.61523438 72.14477539 78.59375 74.59765625 C78.59117187 75.48130859 78.58859375 76.36496094 78.5859375 77.27539062 C78.55757812 78.19513672 78.52921875 79.11488281 78.5 80.0625 C78.50257813 80.98611328 78.50515625 81.90972656 78.5078125 82.86132812 C78.43394881 87.91729803 78.43394881 87.91729803 78 90 C74.27459338 92.48360441 72.36937027 92.2315867 67.92578125 92.1953125 C67.2419487 92.1924826 66.55811615 92.18965271 65.8535614 92.18673706 C63.67302835 92.17555684 61.49290855 92.15045691 59.3125 92.125 C57.83268823 92.11496738 56.35287001 92.10584202 54.87304688 92.09765625 C51.248564 92.07562481 47.62432234 92.04111002 44 92 C43.34 93.98 42.68 95.96 42 98 C41.34 98 40.68 98 40 98 C39.938125 99.0725 39.87625 100.145 39.8125 101.25 C38.6685315 110.33729908 34.01928904 118.502437 29 126 C28.16435284 127.37359502 27.33102995 128.74860665 26.5 130.125 C24.90525388 132.69375246 23.22020114 135.0195935 21.25 137.3125 C18.84640038 139.84992466 18.84640038 139.84992466 18 143 C16.0625 145.1875 16.0625 145.1875 14 147 C13.34 147 12.68 147 12 147 C11.76152344 147.58910156 11.52304688 148.17820313 11.27734375 148.78515625 C4.54756904 160.45421516 -14.75896303 164.47746461 -26.77734375 167.70703125 C-53.55911211 174.55389912 -80.21226938 171.15917221 -104.05200195 157.16650391 C-118.88775819 148.06667125 -128.4078568 135.92835839 -137 121 C-137.59941406 120.00806641 -137.59941406 120.00806641 -138.2109375 118.99609375 C-143.20098455 110.07388963 -145.64609801 99.03405864 -147 89 C-147.33 88.34 -147.66 87.68 -148 87 C-149.26254624 59.30357023 -140.60370441 34.86796105 -122.8125 13.875 C-113.91750939 4.37564591 -104.33163646 -2.69507545 -92 -7 C-90.26803337 -7.70145924 -88.53871794 -8.40951059 -86.8125 -9.125 C-85.21069023 -9.75601597 -83.60659261 -10.38126268 -82 -11 C-81.25105469 -11.29003906 -80.50210938 -11.58007812 -79.73046875 -11.87890625 C-54.63753306 -20.97564476 -22.22008208 -13.44681486 0 0 Z " fill="#250404" transform="translate(178,15)"/>
<path d="M0 0 C0.66 0 1.32 0 2 0 C2.19875508 3.3535976 2.38195217 6.70787681 2.5625 10.0625 C2.64661133 11.47692383 2.64661133 11.47692383 2.73242188 12.91992188 C3.00441578 18.12407194 2.95987982 22.87353073 2 28 C2.66 28 3.32 28 4 28 C3.97679687 27.03320312 3.95359375 26.06640625 3.9296875 25.0703125 C3.82384384 17.4344481 4.03884372 10.44188767 6 3 C7.98 4.65 9.96 6.3 12 8 C11.67 8.66 11.34 9.32 11 10 C10.01 10 9.02 10 8 10 C8 14.95 8 19.9 8 25 C8.66 25 9.32 25 10 25 C10 26.98 10 28.96 10 31 C11.32 31 12.64 31 14 31 C14.66 31.66 15.32 32.32 16 33 C15.505 33.99 15.505 33.99 15 35 C16.65 35.33 18.3 35.66 20 36 C20.495 35.01 20.495 35.01 21 34 C21.33 34.66 21.66 35.32 22 36 C22.99 36 23.98 36 25 36 C25.33 36.66 25.66 37.32 26 38 C28.44480079 37.81171228 28.44480079 37.81171228 31 37 C31.2371875 36.34 31.474375 35.68 31.71875 35 C32.1415625 34.34 32.564375 33.68 33 33 C36.2578125 32.390625 36.2578125 32.390625 40.125 32.25 C41.40632813 32.19328125 42.68765625 32.1365625 44.0078125 32.078125 C44.99523437 32.05234375 45.98265625 32.0265625 47 32 C47 32.66 47 33.32 47 34 C47.66 34 48.32 34 49 34 C48.608125 33.46375 48.21625 32.9275 47.8125 32.375 C47 30 47 30 48.25 27 C48.8275 26.01 49.405 25.02 50 24 C51.79898442 20.87475699 52.34162449 18.33942313 52.625 14.75 C52.69976562 13.85796875 52.77453125 12.9659375 52.8515625 12.046875 C52.92503906 11.03367187 52.92503906 11.03367187 53 10 C53.99 10.495 53.99 10.495 55 11 C55.33 21.89 55.66 32.78 56 44 C50.39 43.34 44.78 42.68 39 42 C38.505 42.99 38.505 42.99 38 44 C37.34 43.34 36.68 42.68 36 42 C34.515 42.495 34.515 42.495 33 43 C31.33333333 43 29.66666667 43 28 43 C27.01 43.495 27.01 43.495 26 44 C25.01 43.979375 24.02 43.95875 23 43.9375 C19.88232786 43.65618869 19.88232786 43.65618869 18 46 C15.34462628 46.56520003 12.70855287 46.73788198 10 47 C10.495 49.97 10.495 49.97 11 53 C10.34 53 9.68 53 9 53 C8.79503906 52.14535156 8.59007812 51.29070312 8.37890625 50.41015625 C8.10949219 49.30542969 7.84007812 48.20070312 7.5625 47.0625 C7.29566406 45.96035156 7.02882812 44.85820313 6.75390625 43.72265625 C6.27004275 41.10578746 6.27004275 41.10578746 5 40 C4.95907063 37.66702567 4.95758277 35.33294775 5 33 C4.34 33 3.68 33 3 33 C3 38.28 3 43.56 3 49 C1.80375 48.690625 0.6075 48.38125 -0.625 48.0625 C-4.06402439 47.19968427 -7.49136573 46.52629514 -11 46 C-10.09953624 48.83002896 -9.23525495 51.54255983 -7.875 54.1875 C-7 56 -7 56 -7 59 C-6.030625 59.2475 -5.06125 59.495 -4.0625 59.75 C-1 61 -1 61 -0.0625 63 C0 65 0 65 -1 67 C-3.0625 68.125 -3.0625 68.125 -5 69 C-4.59107011 71.37179334 -4.33837106 72.68351818 -2.55078125 74.35546875 C-0.21715122 76.83017465 0.25517117 79.62561134 1.15625 82.84375 C2.11163731 85.28529535 2.89709997 86.4385363 5 88 C7.27161255 88.57323807 7.27161255 88.57323807 9.6875 88.6875 C10.49574219 88.75324219 11.30398437 88.81898438 12.13671875 88.88671875 C12.75160156 88.92410156 13.36648437 88.96148437 14 89 C13.67 89.66 13.34 90.32 13 91 C11.35 90.67 9.7 90.34 8 90 C8.33 90.99 8.66 91.98 9 93 C11.31254012 94.04718798 13.6485148 95.04346365 16 96 C16.63848877 96.4942749 17.27697754 96.9885498 17.93481445 97.49780273 C20.19784094 99.14390771 22.04206222 99.79578433 24.73046875 100.53515625 C25.61541016 100.78716797 26.50035156 101.03917969 27.41210938 101.29882812 C28.32798828 101.55083984 29.24386719 101.80285156 30.1875 102.0625 C32.01631718 102.56704511 33.8432707 103.07841152 35.66796875 103.59765625 C36.47516357 103.81945557 37.2823584 104.04125488 38.11401367 104.26977539 C40 105 40 105 41 107 C34.56025419 106.37679879 28.32427599 105.35991738 22 104 C22 103.34 22 102.68 22 102 C20.5459375 101.9071875 20.5459375 101.9071875 19.0625 101.8125 C14.11774397 101.14374201 10.18883776 98.57409304 6 96 C6 95.34 6 94.68 6 94 C4.948125 93.91492188 4.948125 93.91492188 3.875 93.828125 C0.05486502 92.72776003 -2.21824489 90.4540919 -5 87.75 C-5.50789063 87.27175781 -6.01578125 86.79351562 -6.5390625 86.30078125 C-8.03982821 84.880826 -9.52022856 83.44177731 -11 82 C-11.886875 81.15953125 -12.77375 80.3190625 -13.6875 79.453125 C-15.92576853 77.07874554 -17.3962805 74.82452844 -19 72 C-20.08014283 70.60169629 -21.16364297 69.20598133 -22.25 67.8125 C-32.17160287 53.72003222 -35.54087922 36.94754879 -35 20 C-34.67 20 -34.34 20 -34 20 C-33.773125 21.051875 -33.54625 22.10375 -33.3125 23.1875 C-32.20639469 27.1597906 -30.11370115 29.29599637 -27 32 C-27 29.69 -27 27.38 -27 25 C-26.34 25 -25.68 25 -25 25 C-25 26.32 -25 27.64 -25 29 C-24.34 29 -23.68 29 -23 29 C-23 23.39 -23 17.78 -23 12 C-22.34 12 -21.68 12 -21 12 C-20.34 10.68 -19.68 9.36 -19 8 C-17.68 8 -16.36 8 -15 8 C-15 6.02 -15 4.04 -15 2 C-14.34 1.67 -13.68 1.34 -13 1 C-12.34 2.65 -11.68 4.3 -11 6 C-10.01 5.34 -9.02 4.68 -8 4 C-6.0103005 3.60986284 -4.00980131 3.26797351 -2 3 C-2 3.66 -2 4.32 -2 5 C-1.34 5 -0.68 5 0 5 C0 3.35 0 1.7 0 0 Z " fill="#621E19" transform="translate(69,73)"/>
<path d="M0 0 C0.66 0 1.32 0 2 0 C2.103125 0.969375 2.20625 1.93875 2.3125 2.9375 C2.84411222 6.78387077 4.03102031 10.25581068 5.37890625 13.88671875 C6 16 6 16 6 20 C6.66 20 7.32 20 8 20 C7.67 18.02 7.34 16.04 7 14 C7.63808594 13.79503906 8.27617188 13.59007813 8.93359375 13.37890625 C9.75988281 13.10949219 10.58617188 12.84007813 11.4375 12.5625 C12.26121094 12.29566406 13.08492187 12.02882813 13.93359375 11.75390625 C15.96219588 11.17844506 15.96219588 11.17844506 17 10 C19.33333333 10 21.66666667 10 24 10 C24.33 9.67 24.66 9.34 25 9 C26.134375 9.020625 27.26875 9.04125 28.4375 9.0625 C32.05142273 9.41164028 32.05142273 9.41164028 34 7 C34.495 8.485 34.495 8.485 35 10 C35.33 9.67 35.66 9.34 36 9 C41.95658462 8.56365734 47.44276587 8.59687173 53 11 C53 12.32 53 13.64 53 15 C50.46053077 15.84648974 49.09437602 16.02071669 46.4375 15.4375 C43.75194866 14.66489008 43.75194866 14.66489008 41 17 C38.8125 16.625 38.8125 16.625 37 16 C37 16.99 37 17.98 37 19 C35.68 18.67 34.36 18.34 33 18 C33 18.66 33 19.32 33 20 C27.375 21.125 27.375 21.125 24 20 C23.67 21.32 23.34 22.64 23 24 C22.34 23.67 21.68 23.34 21 23 C20.01 23 19.02 23 18 23 C15.33333333 23 12.66666667 23 10 23 C9.67 24.65 9.34 26.3 9 28 C8.5875 27.38125 8.175 26.7625 7.75 26.125 C5.86133813 23.83162487 4.79058076 22.95677055 2 22 C0.00041636 21.95919217 -2.00045254 21.95745644 -4 22 C-4.99 21.67 -5.98 21.34 -7 21 C-2.70214922 26.03163018 1.63425542 31.02718443 6 36 C5.67 36.66 5.34 37.32 5 38 C4.34 38.144375 3.68 38.28875 3 38.4375 C2.34 38.623125 1.68 38.80875 1 39 C0.67 39.99 0.34 40.98 0 42 C-0.66 42 -1.32 42 -2 42 C-1.67 42.99 -1.34 43.98 -1 45 C-0.34 44.34 0.32 43.68 1 43 C4.125 42.875 4.125 42.875 7 43 C7.33 43.66 7.66 44.32 8 45 C7.01 45 6.02 45 5 45 C5 46.32 5 47.64 5 49 C6.32 48.34 7.64 47.68 9 47 C8.67 49.31 8.34 51.62 8 54 C9.485 53.505 9.485 53.505 11 53 C11.33 52.34 11.66 51.68 12 51 C12.66 51 13.32 51 14 51 C14.33 48.69 14.66 46.38 15 44 C15.66386719 44.26683594 16.32773438 44.53367188 17.01171875 44.80859375 C20.6063273 46.24173834 24.2031467 47.66697394 27.8125 49.0625 C28.48603516 49.33126953 29.15957031 49.60003906 29.85351562 49.87695312 C34.59584541 51.69673709 38.93862045 52.5409051 44 53 C44.495 52.01 44.495 52.01 45 51 C45.99 51.66 46.98 52.32 48 53 C61.68198826 54.51584618 76.55206196 50.63195869 88 43 C90 42.9375 90 42.9375 92 44 C92.474375 45.11375 92.94875 46.2275 93.4375 47.375 C95.18330444 51.42526629 95.99398328 52.36117498 100 54 C103.69523952 54.71923208 103.69523952 54.71923208 107 55 C103.95657811 60.51276161 100.84846662 62.61053182 95.1875 65.1875 C94.50107422 65.51685547 93.81464844 65.84621094 93.10742188 66.18554688 C91.08234086 67.14923254 89.04464708 68.07867467 87 69 C85.84113281 69.53238281 84.68226563 70.06476563 83.48828125 70.61328125 C70.4874056 75.78160248 56.13262381 76.34891065 42.3125 75.75 C41.39259277 75.71156982 40.47268555 75.67313965 39.52490234 75.63354492 C34.39032717 75.34577888 29.88055938 74.62907864 25 73 C29.08363456 71.46863704 32.78702295 72.4220001 37 73 C36.43079834 72.83918945 35.86159668 72.67837891 35.27514648 72.51269531 C32.65978881 71.76795449 30.04872496 71.00909824 27.4375 70.25 C26.54224609 69.99734375 25.64699219 69.7446875 24.72460938 69.484375 C19.29635722 67.8936784 14.79669336 65.99793335 10 63 C9.030625 62.484375 8.06125 61.96875 7.0625 61.4375 C6.381875 60.963125 5.70125 60.48875 5 60 C5 59.01 5 58.02 5 57 C6.65 57 8.3 57 10 57 C8.98679687 56.90525391 8.98679687 56.90525391 7.953125 56.80859375 C0.83336281 55.83116975 0.83336281 55.83116975 -1.484375 53.51953125 C-3.10630035 50.69363823 -4.05021205 47.84641019 -5.0625 44.75 C-5.77718423 41.96631938 -5.77718423 41.96631938 -7.6875 40.375 C-8.120625 39.92125 -8.55375 39.4675 -9 39 C-8.6875 36.8125 -8.6875 36.8125 -8 35 C-6.02 34.505 -6.02 34.505 -4 34 C-4 32.02 -4 30.04 -4 28 C-5.423125 27.690625 -5.423125 27.690625 -6.875 27.375 C-10 26 -10 26 -11.25 23.125 C-11.4975 22.09375 -11.745 21.0625 -12 20 C-12.556875 18.9171875 -12.556875 18.9171875 -13.125 17.8125 C-14 16 -14 16 -14 13 C-12.02043559 13.14033111 -10.04134859 13.2874123 -8.0625 13.4375 C-6.96035156 13.51871094 -5.85820313 13.59992188 -4.72265625 13.68359375 C-2 14 -2 14 -1 15 C-0.67 10.05 -0.34 5.1 0 0 Z " fill="#5D140F" transform="translate(72,106)"/>
<path d="M0 0 C14.78132118 -0.3690205 14.78132118 -0.3690205 21 2 C21 2.99 21 3.98 21 5 C22.2065625 5.185625 22.2065625 5.185625 23.4375 5.375 C24.7059375 5.684375 24.7059375 5.684375 26 6 C26.495 6.99 26.495 6.99 27 8 C27.66 7.34 28.32 6.68 29 6 C29.33808686 8.06172613 29.67027361 10.1244203 30 12.1875 C30.185625 13.33605469 30.37125 14.48460938 30.5625 15.66796875 C30.93592044 18.51196549 31.03409878 21.1420956 31 24 C26.92492428 24.04946866 22.84996503 24.08575189 18.7746582 24.10986328 C17.38855952 24.1199157 16.00248201 24.1335597 14.61645508 24.15087891 C12.6233025 24.17515952 10.62999467 24.18542031 8.63671875 24.1953125 C6.83787231 24.21102295 6.83787231 24.21102295 5.00268555 24.22705078 C2 24 2 24 -1 22 C-1 21.34 -1 20.68 -1 20 C-10.24 20 -19.48 20 -29 20 C-29.33 19.01 -29.66 18.02 -30 17 C-32.01508358 16.26676204 -32.01508358 16.26676204 -34 16 C-34.05416188 14.39620659 -34.09286638 12.79188594 -34.125 11.1875 C-34.14820313 10.29417969 -34.17140625 9.40085937 -34.1953125 8.48046875 C-34 6 -34 6 -32 3 C-28.92724609 2.56762695 -28.92724609 2.56762695 -25.0234375 2.48828125 C-24.33819 2.47033005 -23.6529425 2.45237885 -22.94692993 2.43388367 C-20.75634941 2.37966292 -18.5659881 2.34584947 -16.375 2.3125 C-14.89059441 2.27933706 -13.40621779 2.24484835 -11.921875 2.20898438 C-8.28146088 2.12393185 -4.64097056 2.05717644 -1 2 C-0.67 1.34 -0.34 0.68 0 0 Z " fill="#1D0303" transform="translate(220,82)"/>
<path d="M0 0 C0.20496094 0.83724609 0.20496094 0.83724609 0.4140625 1.69140625 C2.94648631 12.22793766 2.94648631 12.22793766 9 21 C1.95259884 21.10137004 -5.09461452 21.17145284 -12.14257812 21.21972656 C-14.54043606 21.23984936 -16.93824488 21.26715059 -19.3359375 21.30175781 C-22.78137323 21.3502449 -26.22616052 21.37296241 -29.671875 21.390625 C-31.28144073 21.42159271 -31.28144073 21.42159271 -32.92352295 21.45318604 C-34.42462616 21.45363922 -34.42462616 21.45363922 -35.95605469 21.45410156 C-36.83541687 21.46298401 -37.71477905 21.47186646 -38.62078857 21.48101807 C-41.83231133 20.83172711 -43.04434391 19.58468125 -45 17 C-44.75 13.25 -44.75 13.25 -44 10 C-43.11248047 10.01740234 -43.11248047 10.01740234 -42.20703125 10.03515625 C-36.04367741 10.11348242 -36.04367741 10.11348242 -30 9 C-29.67 8.67 -29.34 8.34 -29 8 C-27.48071962 7.92820036 -25.95832518 7.91607993 -24.4375 7.9375 C-23.61121094 7.94652344 -22.78492187 7.95554687 -21.93359375 7.96484375 C-21.29550781 7.97644531 -20.65742187 7.98804687 -20 8 C-20 7.34 -20 6.68 -20 6 C-18.68 6.33 -17.36 6.66 -16 7 C-16 6.01 -16 5.02 -16 4 C-15.21625 4.04125 -14.4325 4.0825 -13.625 4.125 C-10.83883881 4.28728734 -10.83883881 4.28728734 -9 2 C-6.8359375 2.0234375 -6.8359375 2.0234375 -4.375 2.375 C-3.55773437 2.48585938 -2.74046875 2.59671875 -1.8984375 2.7109375 C-1.27195313 2.80632812 -0.64546875 2.90171875 0 3 C0 2.01 0 1.02 0 0 Z " fill="#300302" transform="translate(125,118)"/>
<path d="M0 0 C0.66 0.33 1.32 0.66 2 1 C2.33 11.89 2.66 22.78 3 34 C-2.61 33.34 -8.22 32.68 -14 32 C-14.495 32.99 -14.495 32.99 -15 34 C-15.66 33.34 -16.32 32.68 -17 32 C-18.485 32.495 -18.485 32.495 -20 33 C-21.66666667 33 -23.33333333 33 -25 33 C-25.99 33.495 -25.99 33.495 -27 34 C-27.99 33.979375 -28.98 33.95875 -30 33.9375 C-33.11767214 33.65618869 -33.11767214 33.65618869 -35 36 C-37.65537372 36.56520003 -40.29144713 36.73788198 -43 37 C-42.67 38.98 -42.34 40.96 -42 43 C-42.66 43 -43.32 43 -44 43 C-45.88989379 38.12929813 -46.4014447 33.77608662 -46.625 28.625 C-46.66367188 27.88894531 -46.70234375 27.15289062 -46.7421875 26.39453125 C-46.83557998 24.59672594 -46.9188371 22.79839892 -47 21 C-46.34 21 -45.68 21 -45 21 C-44.67 22.65 -44.34 24.3 -44 26 C-42.68 25.67 -41.36 25.34 -40 25 C-40 25.99 -40 26.98 -40 28 C-39.01 27.67 -38.02 27.34 -37 27 C-37 26.34 -37 25.68 -37 25 C-35.68 25.33 -34.36 25.66 -33 26 C-32.67 25.34 -32.34 24.68 -32 24 C-31.67 24.66 -31.34 25.32 -31 26 C-30.01 26 -29.02 26 -28 26 C-27.67 26.66 -27.34 27.32 -27 28 C-24.55519921 27.81171228 -24.55519921 27.81171228 -22 27 C-21.7628125 26.34 -21.525625 25.68 -21.28125 25 C-20.8584375 24.34 -20.435625 23.68 -20 23 C-16.7421875 22.390625 -16.7421875 22.390625 -12.875 22.25 C-11.59367187 22.19328125 -10.31234375 22.1365625 -8.9921875 22.078125 C-8.00476563 22.05234375 -7.01734375 22.0265625 -6 22 C-6 22.66 -6 23.32 -6 24 C-5.34 24 -4.68 24 -4 24 C-4.391875 23.46375 -4.78375 22.9275 -5.1875 22.375 C-6 20 -6 20 -4.75 17 C-4.1725 16.01 -3.595 15.02 -3 14 C-1.20101558 10.87475699 -0.65837551 8.33942313 -0.375 4.75 C-0.30023438 3.85796875 -0.22546875 2.9659375 -0.1484375 2.046875 C-0.09945312 1.37140625 -0.05046875 0.6959375 0 0 Z " fill="#841612" transform="translate(122,83)"/>
<path d="M0 0 C0.33 0 0.66 0 1 0 C1.08975098 0.61818604 1.17950195 1.23637207 1.27197266 1.87329102 C3.17263576 14.62524929 5.27537566 26.37313767 11 38 C11.57105469 39.16917969 12.14210938 40.33835938 12.73046875 41.54296875 C15.04114825 45.99339692 15.04114825 45.99339692 18 50 C21.06183887 50.91049419 23.0880641 51.24470552 26.18359375 50.4140625 C27.08271484 50.20910156 27.08271484 50.20910156 28 50 C32.85999714 53.76897737 34.7594357 57.03206305 36.26171875 62.94921875 C37.13567404 65.37687232 37.93127606 66.46026483 40 68 C42.27161255 68.57323807 42.27161255 68.57323807 44.6875 68.6875 C45.49574219 68.75324219 46.30398437 68.81898438 47.13671875 68.88671875 C47.75160156 68.92410156 48.36648437 68.96148437 49 69 C48.67 69.66 48.34 70.32 48 71 C46.35 70.67 44.7 70.34 43 70 C43.33 70.99 43.66 71.98 44 73 C46.31254012 74.04718798 48.6485148 75.04346365 51 76 C51.63848877 76.4942749 52.27697754 76.9885498 52.93481445 77.49780273 C55.19784094 79.14390771 57.04206222 79.79578433 59.73046875 80.53515625 C60.61541016 80.78716797 61.50035156 81.03917969 62.41210938 81.29882812 C63.32798828 81.55083984 64.24386719 81.80285156 65.1875 82.0625 C67.01631718 82.56704511 68.8432707 83.07841152 70.66796875 83.59765625 C71.47516357 83.81945557 72.2823584 84.04125488 73.11401367 84.26977539 C75 85 75 85 76 87 C69.56025419 86.37679879 63.32427599 85.35991738 57 84 C57 83.34 57 82.68 57 82 C55.5459375 81.9071875 55.5459375 81.9071875 54.0625 81.8125 C49.11774397 81.14374201 45.18883776 78.57409304 41 76 C41 75.34 41 74.68 41 74 C39.948125 73.91492188 39.948125 73.91492188 38.875 73.828125 C35.05486502 72.72776003 32.78175511 70.4540919 30 67.75 C29.49210937 67.27175781 28.98421875 66.79351562 28.4609375 66.30078125 C26.96017179 64.880826 25.47977144 63.44177731 24 62 C23.113125 61.15953125 22.22625 60.3190625 21.3125 59.453125 C19.07423147 57.07874554 17.6037195 54.82452844 16 52 C14.91985717 50.60169629 13.83635703 49.20598133 12.75 47.8125 C2.82839713 33.72003222 -0.54087922 16.94754879 0 0 Z " fill="#742823" transform="translate(34,93)"/>
<path d="M0 0 C4.69903451 0.59341699 8.6510345 0.33941092 13.3125 -0.4375 C13.3125 0.2225 13.3125 0.8825 13.3125 1.5625 C13.99957031 1.4903125 14.68664062 1.418125 15.39453125 1.34375 C16.74611328 1.20453125 16.74611328 1.20453125 18.125 1.0625 C19.01832031 0.9696875 19.91164062 0.876875 20.83203125 0.78125 C23.3125 0.5625 23.3125 0.5625 26.3125 0.5625 C26.8075 1.5525 26.8075 1.5525 27.3125 2.5625 C27.6425 2.2325 27.9725 1.9025 28.3125 1.5625 C29.75380069 1.46361465 31.19984377 1.43170623 32.64453125 1.4296875 C33.52560547 1.42839844 34.40667969 1.42710938 35.31445312 1.42578125 C36.70567383 1.43158203 36.70567383 1.43158203 38.125 1.4375 C39.04087891 1.43363281 39.95675781 1.42976563 40.90039062 1.42578125 C42.22780273 1.42771484 42.22780273 1.42771484 43.58203125 1.4296875 C44.39260986 1.43081543 45.20318848 1.43194336 46.03833008 1.43310547 C48.25489451 1.55922239 50.18424244 1.94850333 52.3125 2.5625 C52.3125 3.2225 52.3125 3.8825 52.3125 4.5625 C52.9725 4.5625 53.6325 4.5625 54.3125 4.5625 C54.3125 5.5525 54.3125 6.5425 54.3125 7.5625 C45.4025 7.5625 36.4925 7.5625 27.3125 7.5625 C27.3125 8.5525 27.3125 9.5425 27.3125 10.5625 C17.0825 10.2325 6.8525 9.9025 -3.6875 9.5625 C-4.0175 8.5725 -4.3475 7.5825 -4.6875 6.5625 C-6.70258358 5.82926204 -6.70258358 5.82926204 -8.6875 5.5625 C-8.375 3.6875 -8.375 3.6875 -7.6875 1.5625 C-4.28947562 -0.70284958 -3.82067781 -0.58179866 0 0 Z " fill="#420807" transform="translate(194.6875,92.4375)"/>
<path d="M0 0 C2.14904768 3.81120174 2 6.64837574 2 11 C4.1385485 13.1385485 5.13275314 13.42655063 8 14 C8 12.68 8 11.36 8 10 C9.65 9.67 11.3 9.34 13 9 C13 7.35 13 5.7 13 4 C13.66 4 14.32 4 15 4 C15.06993164 4.61407715 15.13986328 5.2281543 15.21191406 5.86083984 C15.54363918 8.70076953 15.89670043 11.53767668 16.25 14.375 C16.35957031 15.34050781 16.46914062 16.30601563 16.58203125 17.30078125 C17.44163184 24.04185959 19.17457992 29.82172547 22 36 C9.19535401 37.75002604 9.19535401 37.75002604 4.8125 35 C-1.80441893 24.04785833 -1.65942823 12.50953588 0 0 Z " fill="#330402" transform="translate(133,96)"/>
<path d="M0 0 C0.33 0 0.66 0 1 0 C0.855625 1.134375 0.71125 2.26875 0.5625 3.4375 C-0.28083655 10.93114763 -0.5938192 18.47269201 -1 26 C-0.34 26.33 0.32 26.66 1 27 C0.25363281 27.57427734 0.25363281 27.57427734 -0.5078125 28.16015625 C-2.59026496 30.72778742 -2.21140882 32.189861 -1.875 35.4375 C-0.44970742 48.0376929 2.72213342 61.127007 11 71 C11.680625 72.1446875 11.680625 72.1446875 12.375 73.3125 C18.28040062 83.0791241 26.81246424 94.27082141 38 98 C38 98.66 38 99.32 38 100 C38.70125 100.268125 39.4025 100.53625 40.125 100.8125 C43 102 43 102 46 103.5625 C48.74361426 104.8771485 51.00970184 105.56025027 54 106 C52.375 107.625 52.375 107.625 50 109 C31.83513501 104.47164839 17.2016136 88.5069439 7.6875 73.3125 C6.44638485 71.21535879 5.215599 69.11203388 4 67 C3.40058594 66.00806641 3.40058594 66.00806641 2.7890625 64.99609375 C-2.20098455 56.07388963 -4.64609801 45.03405864 -6 35 C-6.33 34.34 -6.66 33.68 -7 33 C-7.03960984 31.5329891 -7.01232351 30.0638444 -6.94921875 28.59765625 C-6.91111084 27.71166748 -6.87300293 26.82567871 -6.83374023 25.9128418 C-6.78548096 24.972229 -6.73722168 24.03161621 -6.6875 23.0625 C-6.64117432 22.1135083 -6.59484863 21.1645166 -6.54711914 20.18676758 C-6.18986673 13.67875447 -5.53177125 7.35015846 -4 1 C-3.01 1 -2.02 1 -1 1 C-0.67 0.67 -0.34 0.34 0 0 Z " fill="#682925" transform="translate(37,69)"/>
<path d="M0 0 C0.66 0.99 1.32 1.98 2 3 C2.33 2.67 2.66 2.34 3 2 C8.95658462 1.56365734 14.44276587 1.59687173 20 4 C20 5.32 20 6.64 20 8 C17.46053077 8.84648974 16.09437602 9.02071669 13.4375 8.4375 C10.75194866 7.66489008 10.75194866 7.66489008 8 10 C5.8125 9.625 5.8125 9.625 4 9 C4 9.99 4 10.98 4 12 C2.68 11.67 1.36 11.34 0 11 C0 11.66 0 12.32 0 13 C-5.625 14.125 -5.625 14.125 -9 13 C-9.33 14.32 -9.66 15.64 -10 17 C-10.66 16.67 -11.32 16.34 -12 16 C-12.99 16 -13.98 16 -15 16 C-17.66666667 16 -20.33333333 16 -23 16 C-23.33 17.65 -23.66 19.3 -24 21 C-26.5654594 18.4345406 -26.54046087 16.52313332 -27 13 C-26.34 13 -25.68 13 -25 13 C-25.33 11.02 -25.66 9.04 -26 7 C-25.36191406 6.79503906 -24.72382812 6.59007813 -24.06640625 6.37890625 C-23.24011719 6.10949219 -22.41382812 5.84007813 -21.5625 5.5625 C-20.73878906 5.29566406 -19.91507812 5.02882813 -19.06640625 4.75390625 C-17.03780412 4.17844506 -17.03780412 4.17844506 -16 3 C-13.66666667 3 -11.33333333 3 -9 3 C-8.67 2.67 -8.34 2.34 -8 2 C-5.66702567 1.95907063 -3.33294775 1.95758277 -1 2 C-0.67 1.34 -0.34 0.68 0 0 Z " fill="#650E0A" transform="translate(105,113)"/>
<path d="M0 0 C0.91007812 0.00902344 1.82015625 0.01804687 2.7578125 0.02734375 C3.80582031 0.04474609 3.80582031 0.04474609 4.875 0.0625 C5.205 0.7225 5.535 1.3825 5.875 2.0625 C6.535 1.4025 7.195 0.7425 7.875 0.0625 C8.21308686 2.12422613 8.54527361 4.1869203 8.875 6.25 C9.060625 7.39855469 9.24625 8.54710938 9.4375 9.73046875 C9.81092044 12.57446549 9.90909878 15.2045956 9.875 18.0625 C5.79992428 18.11196866 1.72496503 18.14825189 -2.3503418 18.17236328 C-3.73644048 18.1824157 -5.12251799 18.1960597 -6.50854492 18.21337891 C-8.5016975 18.23765952 -10.49500533 18.24792031 -12.48828125 18.2578125 C-14.28712769 18.27352295 -14.28712769 18.27352295 -16.12231445 18.28955078 C-19.125 18.0625 -19.125 18.0625 -22.125 16.0625 C-21.795 15.4025 -21.465 14.7425 -21.125 14.0625 C-20.465 14.3925 -19.805 14.7225 -19.125 15.0625 C-19.125 14.0725 -19.125 13.0825 -19.125 12.0625 C-10.215 12.0625 -1.305 12.0625 7.875 12.0625 C7.875 11.0725 7.875 10.0825 7.875 9.0625 C7.215 9.0625 6.555 9.0625 5.875 9.0625 C5.875 8.4025 5.875 7.7425 5.875 7.0625 C1.91668191 7.03357143 -2.04160917 7.01572573 -6 7 C-7.12792969 6.99162109 -8.25585938 6.98324219 -9.41796875 6.97460938 C-10.49433594 6.97138672 -11.57070312 6.96816406 -12.6796875 6.96484375 C-14.17218018 6.95698853 -14.17218018 6.95698853 -15.69482422 6.94897461 C-18.13460773 6.8985585 -18.13460773 6.8985585 -20.125 8.0625 C-22.125 5.0625 -22.125 5.0625 -23.125 3.0625 C-22.27228516 2.97162109 -22.27228516 2.97162109 -21.40234375 2.87890625 C-14.24301911 2.10201793 -7.03773107 -0.09022732 0 0 Z " fill="#430403" transform="translate(241.125,87.9375)"/>
<path d="M0 0 C1.33333333 5.33333333 2.66666667 10.66666667 4 16 C-2.625 16.25 -2.625 16.25 -6 14 C-6 13.34 -6 12.68 -6 12 C-7.155 12.165 -8.31 12.33 -9.5 12.5 C-12.45587047 12.88258607 -15.27210157 13.0214633 -18.25 12.9375 C-21.75959112 12.99599319 -23.08389784 13.31763337 -26 15 C-26.66 14.67 -27.32 14.34 -28 14 C-31.05597345 14.00879417 -34.09908956 14.13167563 -37.15234375 14.2578125 C-40 14 -40 14 -41.87890625 12.4921875 C-42.24886719 11.99976563 -42.61882812 11.50734375 -43 11 C-42.07316406 10.86722656 -41.14632812 10.73445312 -40.19140625 10.59765625 C-38.99386719 10.42105469 -37.79632813 10.24445313 -36.5625 10.0625 C-35.36753906 9.88847656 -34.17257813 9.71445313 -32.94140625 9.53515625 C-30.12044324 9.31014787 -30.12044324 9.31014787 -29 8 C-27.48071962 7.92820036 -25.95832518 7.91607993 -24.4375 7.9375 C-23.61121094 7.94652344 -22.78492187 7.95554687 -21.93359375 7.96484375 C-21.29550781 7.97644531 -20.65742187 7.98804687 -20 8 C-20 7.34 -20 6.68 -20 6 C-18.68 6.33 -17.36 6.66 -16 7 C-16 6.01 -16 5.02 -16 4 C-15.21625 4.04125 -14.4325 4.0825 -13.625 4.125 C-10.83883881 4.28728734 -10.83883881 4.28728734 -9 2 C-6.8359375 2.0234375 -6.8359375 2.0234375 -4.375 2.375 C-3.55773437 2.48585938 -2.74046875 2.59671875 -1.8984375 2.7109375 C-1.27195313 2.80632812 -0.64546875 2.90171875 0 3 C0 2.01 0 1.02 0 0 Z " fill="#500705" transform="translate(125,118)"/>
<path d="M0 0 C0.33 0 0.66 0 1 0 C1 4.29 1 8.58 1 13 C5.85213172 14.61737724 8.18201244 15.22942798 13 15 C13.66 12.69 14.32 10.38 15 8 C15.33 8 15.66 8 16 8 C16 14.27 16 20.54 16 27 C15.01 27 14.02 27 13 27 C13 27.66 13 28.32 13 29 C7.88523181 29.63934602 4.32745622 27.40533547 0 25 C0 23.68 0 22.36 0 21 C-1.65 20.67 -3.3 20.34 -5 20 C-5.96070434 17.11788698 -6.10581883 15.30149956 -6.0625 12.3125 C-6.05347656 11.50425781 -6.04445312 10.69601563 -6.03515625 9.86328125 C-6.02355469 9.24839844 -6.01195312 8.63351563 -6 8 C-5.67 8.99 -5.34 9.98 -5 11 C-4.01 11 -3.02 11 -2 11 C-1.67 11.99 -1.34 12.98 -1 14 C-0.67 9.38 -0.34 4.76 0 0 Z " fill="#94554C" transform="translate(54,84)"/>
<path d="M0 0 C0.66 0 1.32 0 2 0 C2.103125 0.969375 2.20625 1.93875 2.3125 2.9375 C2.72841625 5.92727476 3.48852145 8.59549199 4.5 11.4375 C5.98253281 15.64644682 6.59652821 19.56181028 7 24 C6.29875 23.67 5.5975 23.34 4.875 23 C1.72479991 21.90427823 -0.68934524 21.92802924 -4 22 C-4.99 21.67 -5.98 21.34 -7 21 C-2.70214922 26.03163018 1.63425542 31.02718443 6 36 C5.67 36.66 5.34 37.32 5 38 C2.9375 38.625 2.9375 38.625 1 39 C0.731875 38.071875 0.46375 37.14375 0.1875 36.1875 C-0.93710035 33.1688359 -1.70706573 32.0844857 -4 30 C-4 29.34 -4 28.68 -4 28 C-5.423125 27.690625 -5.423125 27.690625 -6.875 27.375 C-10 26 -10 26 -11.25 23.125 C-11.4975 22.09375 -11.745 21.0625 -12 20 C-12.556875 18.9171875 -12.556875 18.9171875 -13.125 17.8125 C-14 16 -14 16 -14 13 C-12.02043559 13.14033111 -10.04134859 13.2874123 -8.0625 13.4375 C-6.96035156 13.51871094 -5.85820313 13.59992188 -4.72265625 13.68359375 C-2 14 -2 14 -1 15 C-0.67 10.05 -0.34 5.1 0 0 Z " fill="#3B0B09" transform="translate(72,106)"/>
<path d="M0 0 C-3.65367548 1.21789183 -4.68872612 0.32210413 -8.03515625 -1.234375 C-11.2977324 -2.50567704 -14.52165748 -2.66338621 -18 -3 C-18.80107178 -3.16636963 -19.60214355 -3.33273926 -20.42749023 -3.50415039 C-39.38414956 -7.15803433 -58.19703691 -2.80626384 -75 6 C-76.33216477 6.66899868 -77.66519663 7.33628155 -79 8 C-79 7.34 -79 6.68 -79 6 C-55.87032062 -12.57756163 -25.58247893 -14.0905753 0 0 Z " fill="#300404" transform="translate(158,35)"/>
<path d="M0 0 C0.66 0 1.32 0 2 0 C2.33 1.65 2.66 3.3 3 5 C4.32 4.67 5.64 4.34 7 4 C7 4.99 7 5.98 7 7 C7.99 6.67 8.98 6.34 10 6 C10 5.34 10 4.68 10 4 C11.9375 4.8125 11.9375 4.8125 14 6 C14.33 6.99 14.66 7.98 15 9 C19.95 9 24.9 9 30 9 C30 9.99 30 10.98 30 12 C27.98177083 11.96744792 25.96354167 11.93489583 23.9453125 11.90234375 C21.91814596 11.87350758 21.91814596 11.87350758 20 13 C19.01 12.979375 18.02 12.95875 17 12.9375 C13.88232786 12.65618869 13.88232786 12.65618869 12 15 C9.34462628 15.56520003 6.70855287 15.73788198 4 16 C4.33 17.98 4.66 19.96 5 22 C4.34 22 3.68 22 3 22 C1.11010621 17.12929813 0.5985553 12.77608662 0.375 7.625 C0.33632812 6.88894531 0.29765625 6.15289062 0.2578125 5.39453125 C0.16442002 3.59672594 0.0811629 1.79839892 0 0 Z " fill="#8E211C" transform="translate(75,104)"/>
<path d="M0 0 C0.95648438 0.27585938 1.91296875 0.55171875 2.8984375 0.8359375 C3.79820313 1.09632813 4.69796875 1.35671875 5.625 1.625 C10.7941571 3.11193293 16.09379009 3.03306133 21.4375 3.25 C23.03948242 3.32734375 23.03948242 3.32734375 24.67382812 3.40625 C30.15463893 3.63673555 35.19708775 3.56444635 40.625 2.625 C42.26985066 2.56443849 43.91672957 2.53718045 45.5625 2.5625 C46.33464844 2.57152344 47.10679687 2.58054688 47.90234375 2.58984375 C48.47082031 2.60144531 49.03929687 2.61304688 49.625 2.625 C49.625 2.955 49.625 3.285 49.625 3.625 C45.665 4.285 41.705 4.945 37.625 5.625 C38.12 6.615 38.12 6.615 38.625 7.625 C27.90704482 12.98397759 8.18801159 6.92131016 -2.375 3.4375 C-4.04561639 2.84434232 -5.71405023 2.24471042 -7.375 1.625 C-7.375 0.965 -7.375 0.305 -7.375 -0.375 C-4.52312085 -1.80093958 -3.01976004 -0.88244998 0 0 Z " fill="#3A0C0B" transform="translate(94.375,177.375)"/>
<path d="M0 0 C0.89783203 -0.00386719 1.79566406 -0.00773437 2.72070312 -0.01171875 C3.58759766 -0.01042969 4.45449219 -0.00914063 5.34765625 -0.0078125 C6.13277588 -0.00668457 6.91789551 -0.00555664 7.72680664 -0.00439453 C9.9167394 0.12378486 11.83343371 0.52109669 13.9375 1.125 C13.9375 1.785 13.9375 2.445 13.9375 3.125 C14.5975 3.125 15.2575 3.125 15.9375 3.125 C15.9375 4.115 15.9375 5.105 15.9375 6.125 C7.0275 6.125 -1.8825 6.125 -11.0625 6.125 C-11.0625 7.115 -11.0625 8.105 -11.0625 9.125 C-12.0525 8.795 -13.0425 8.465 -14.0625 8.125 C-14.3925 5.815 -14.7225 3.505 -15.0625 1.125 C-10.07774406 -0.18623016 -5.1134322 -0.02212011 0 0 Z " fill="#550B09" transform="translate(233.0625,93.875)"/>
<path d="M0 0 C2.14904768 3.81120174 2 6.64837574 2 11 C4.1385485 13.1385485 5.13275314 13.42655063 8 14 C8 12.68 8 11.36 8 10 C9.65 9.67 11.3 9.34 13 9 C13 7.35 13 5.7 13 4 C13.66 4 14.32 4 15 4 C15.74507544 10.37305598 16.10349817 16.58311325 16 23 C15.175 22.525625 14.35 22.05125 13.5 21.5625 C9.47204099 19.76430401 6.36826421 19.3765745 2 19 C2 19.66 2 20.32 2 21 C1.34 21 0.68 21 0 21 C-1.01202288 13.82242235 -0.88826175 7.18808741 0 0 Z " fill="#722E29" transform="translate(133,96)"/>
<path d="M0 0 C0.66 0.33 1.32 0.66 2 1 C2.05841253 4.54159657 2.09373452 8.08306793 2.125 11.625 C2.15013672 13.12353516 2.15013672 13.12353516 2.17578125 14.65234375 C2.23957977 24.28591952 2.23957977 24.28591952 0 29 C-2.62315032 30.31157516 -4.23033436 29.89649988 -7.125 29.5625 C-8.03507812 29.46066406 -8.94515625 29.35882813 -9.8828125 29.25390625 C-10.58148438 29.17011719 -11.28015625 29.08632812 -12 29 C-11.52949219 28.55011719 -11.05898437 28.10023437 -10.57421875 27.63671875 C-8.88442061 25.87983185 -7.99174341 24.21235068 -7 22 C-6.67 22.66 -6.34 23.32 -6 24 C-5.34 24 -4.68 24 -4 24 C-4.391875 23.46375 -4.78375 22.9275 -5.1875 22.375 C-6 20 -6 20 -4.75 17 C-4.1725 16.01 -3.595 15.02 -3 14 C-1.20101558 10.87475699 -0.65837551 8.33942313 -0.375 4.75 C-0.30023438 3.85796875 -0.22546875 2.9659375 -0.1484375 2.046875 C-0.09945312 1.37140625 -0.05046875 0.6959375 0 0 Z " fill="#791F1A" transform="translate(122,83)"/>
<path d="M0 0 C0.91007812 0.00902344 1.82015625 0.01804687 2.7578125 0.02734375 C3.80582031 0.04474609 3.80582031 0.04474609 4.875 0.0625 C5.205 0.7225 5.535 1.3825 5.875 2.0625 C6.535 1.4025 7.195 0.7425 7.875 0.0625 C8.205 3.3625 8.535 6.6625 8.875 10.0625 C7.885 9.7325 6.895 9.4025 5.875 9.0625 C5.875 8.4025 5.875 7.7425 5.875 7.0625 C1.91668191 7.03357143 -2.04160917 7.01572573 -6 7 C-7.12792969 6.99162109 -8.25585938 6.98324219 -9.41796875 6.97460938 C-10.49433594 6.97138672 -11.57070312 6.96816406 -12.6796875 6.96484375 C-14.17218018 6.95698853 -14.17218018 6.95698853 -15.69482422 6.94897461 C-18.13460773 6.8985585 -18.13460773 6.8985585 -20.125 8.0625 C-22.125 5.0625 -22.125 5.0625 -23.125 3.0625 C-22.27228516 2.97162109 -22.27228516 2.97162109 -21.40234375 2.87890625 C-14.24301911 2.10201793 -7.03773107 -0.09022732 0 0 Z " fill="#380402" transform="translate(241.125,87.9375)"/>
<path d="M0 0 C0.33 0 0.66 0 1 0 C1.08975098 0.61818604 1.17950195 1.23637207 1.27197266 1.87329102 C3.90246694 19.52184389 7.70478114 35.08785309 18 50 C18.66 50.33 19.32 50.66 20 51 C20.391875 51.86625 20.78375 52.7325 21.1875 53.625 C23.47035579 57.87583491 26.48718338 60.74703557 30 64 C28.515 64.495 28.515 64.495 27 65 C25.72282148 63.77742768 24.45353969 62.54660355 23.1875 61.3125 C22.47980469 60.62800781 21.77210937 59.94351563 21.04296875 59.23828125 C18.95695689 56.95284187 17.54520932 54.67166273 16 52 C14.91985717 50.60169629 13.83635703 49.20598133 12.75 47.8125 C2.82839713 33.72003222 -0.54087922 16.94754879 0 0 Z " fill="#B48A7F" transform="translate(34,93)"/>
<path d="M0 0 C0.33 0 0.66 0 1 0 C0.855625 1.134375 0.71125 2.26875 0.5625 3.4375 C-0.28083655 10.93114763 -0.5938192 18.47269201 -1 26 C-0.34 26.33 0.32 26.66 1 27 C0.525625 27.391875 0.05125 27.78375 -0.4375 28.1875 C-2.35179633 30.40808374 -2.61266988 32.13375709 -3 35 C-4.32 34.67 -5.64 34.34 -7 34 C-6.21889502 10.00483611 -6.21889502 10.00483611 -4 1 C-3.01 1 -2.02 1 -1 1 C-0.67 0.67 -0.34 0.34 0 0 Z " fill="#3C0C0A" transform="translate(37,69)"/>
<path d="M0 0 C3.5654494 0.31459848 5.50322204 1.24222651 8.125 3.5625 C10.75317489 6.32334263 10.75317489 6.32334263 14 6 C14 6.66 14 7.32 14 8 C18.04331557 9.4002131 18.04331557 9.4002131 22.1875 10.4375 C24 11 24 11 25.32373047 12.43920898 C27.3604743 14.33564116 28.95871924 14.80444165 31.6328125 15.53515625 C32.52097656 15.78716797 33.40914062 16.03917969 34.32421875 16.29882812 C35.24847656 16.55083984 36.17273438 16.80285156 37.125 17.0625 C38.96290726 17.56709833 40.79897309 18.07846882 42.6328125 18.59765625 C43.44637207 18.81945557 44.25993164 19.04125488 45.09814453 19.26977539 C47 20 47 20 48 22 C41.56025419 21.37679879 35.32427599 20.35991738 29 19 C29 18.34 29 17.68 29 17 C27.5459375 16.9071875 27.5459375 16.9071875 26.0625 16.8125 C21.11774397 16.14374201 17.18883776 13.57409304 13 11 C13 10.34 13 9.68 13 9 C12.26394531 8.9071875 11.52789062 8.814375 10.76953125 8.71875 C7.57286406 7.88914949 6.10216168 6.71912411 3.6875 4.5 C2.99011719 3.8709375 2.29273437 3.241875 1.57421875 2.59375 C0 1 0 1 0 0 Z " fill="#834A43" transform="translate(62,158)"/>
<path d="M0 0 C-1.73094208 5.54688258 -3.71580945 10.76079488 -6.328125 15.95703125 C-7.36596468 19.11278795 -6.43914558 21.12170885 -5 24 C-6.65 24.66 -8.3 25.32 -10 26 C-10.33 25.34 -10.66 24.68 -11 24 C-11.99 24.66 -12.98 25.32 -14 26 C-13.71401451 17.7064207 -11.20531727 7.00117565 -4.98828125 1.0859375 C-3 0 -3 0 0 0 Z " fill="#330505" transform="translate(48,46)"/>
<path d="M0 0 C0.66 0.99 1.32 1.98 2 3 C2.33 2.67 2.66 2.34 3 2 C4.85287502 1.92773498 6.70833878 1.9161878 8.5625 1.9375 C9.57441406 1.94652344 10.58632812 1.95554687 11.62890625 1.96484375 C12.41136719 1.97644531 13.19382813 1.98804687 14 2 C10.43059712 4.9526594 8.61153908 5.09811785 4 5 C3.01 5.66 2.02 6.32 1 7 C-5.99370226 8.70117082 -12.25193509 9.82477136 -19 7 C-19.33 7.66 -19.66 8.32 -20 9 C-21.9375 10.1875 -21.9375 10.1875 -24 11 C-24.66 10.67 -25.32 10.34 -26 10 C-26 9.01 -26 8.02 -26 7 C-25.36191406 6.79503906 -24.72382812 6.59007813 -24.06640625 6.37890625 C-23.24011719 6.10949219 -22.41382812 5.84007813 -21.5625 5.5625 C-20.73878906 5.29566406 -19.91507812 5.02882813 -19.06640625 4.75390625 C-17.03780412 4.17844506 -17.03780412 4.17844506 -16 3 C-13.66666667 3 -11.33333333 3 -9 3 C-8.67 2.67 -8.34 2.34 -8 2 C-5.66702567 1.95907063 -3.33294775 1.95758277 -1 2 C-0.67 1.34 -0.34 0.68 0 0 Z " fill="#7B1B16" transform="translate(105,113)"/>
<path d="M0 0 C0.33 0 0.66 0 1 0 C1.66 6.27 2.32 12.54 3 19 C4.65 19.33 6.3 19.66 8 20 C8.10957031 20.79664062 8.21914063 21.59328125 8.33203125 22.4140625 C9.18912702 28.14197082 10.01727307 32.9423326 13 38 C13.33 38.99 13.66 39.98 14 41 C10.58841744 39.86280581 9.88145399 38.95657056 8 36 C8 35.34 8 34.68 8 34 C7.1028125 33.7215625 7.1028125 33.7215625 6.1875 33.4375 C3.03383089 31.36508887 2.00341736 28.50876518 1 25 C-0.01355439 19.48023757 -0.12101379 14.1483165 -0.0625 8.5625 C-0.05798828 7.73556641 -0.05347656 6.90863281 -0.04882812 6.05664062 C-0.03715811 4.03772854 -0.01922718 2.01885426 0 0 Z " fill="#491512" transform="translate(46,85)"/>
<path d="M0 0 C2.31004617 0.89251784 4.23677302 2.01015246 6.3125 3.359375 C7.01890625 3.81441406 7.7253125 4.26945313 8.453125 4.73828125 C9.24976563 5.26228516 9.24976563 5.26228516 10.0625 5.796875 C9.4025 8.436875 8.7425 11.076875 8.0625 13.796875 C7.4025 13.796875 6.7425 13.796875 6.0625 13.796875 C5.4025 15.116875 4.7425 16.436875 4.0625 17.796875 C2.7425 17.466875 1.4225 17.136875 0.0625 16.796875 C0.7225 16.796875 1.3825 16.796875 2.0625 16.796875 C2.0625 14.816875 2.0625 12.836875 2.0625 10.796875 C1.0725 11.126875 0.0825 11.456875 -0.9375 11.796875 C-0.9375 10.476875 -0.9375 9.156875 -0.9375 7.796875 C-0.2775 7.466875 0.3825 7.136875 1.0625 6.796875 C-3.7272321 6.56259187 -3.7272321 6.56259187 -7.9375 8.796875 C-7.9375 4.796875 -7.9375 4.796875 -5.1875 1.984375 C-1.9375 -0.203125 -1.9375 -0.203125 0 0 Z " fill="#2C0807" transform="translate(77.9375,143.203125)"/>
<path d="M0 0 C0.33 0 0.66 0 1 0 C1.02685095 2.47923801 1.04676547 4.9581884 1.0625 7.4375 C1.07087891 8.14455078 1.07925781 8.85160156 1.08789062 9.58007812 C1.09653588 11.38693559 1.05220011 13.19387603 1 15 C0.67 15.33 0.34 15.66 0 16 C-2.02408755 15.90997602 -4.04544287 15.75358962 -6.0625 15.5625 C-7.16722656 15.46066406 -8.27195312 15.35882813 -9.41015625 15.25390625 C-10.26480469 15.17011719 -11.11945312 15.08632812 -12 15 C-12.33 15.66 -12.66 16.32 -13 17 C-15.32590854 13.36576791 -15.16265833 10.22911669 -15 6 C-10.80530429 6.59924224 -6.99000166 7.57499941 -3 9 C-3 8.34 -3 7.68 -3 7 C-2.01 7 -1.02 7 0 7 C0 4.69 0 2.38 0 0 Z " fill="#701612" transform="translate(70,104)"/>
<path d="M0 0 C-3.65137419 1.21712473 -4.68485233 0.32687365 -8.02734375 -1.234375 C-11.28229311 -2.49768208 -14.53619625 -2.65361963 -18 -3 C-18.99 -3.33 -19.98 -3.66 -21 -4 C-21 -4.66 -21 -5.32 -21 -6 C-33.78608646 -9.0443063 -46.67246036 -6.61976062 -58.87109375 -2.48828125 C-61 -2 -61 -2 -64 -3 C-43.46741803 -13.44373305 -19.69811803 -10.84952777 0 0 Z " fill="#411615" transform="translate(158,35)"/>
<path d="M0 0 C5.37628645 1.24068149 8.79784853 3.99268591 12.94921875 7.44140625 C15.01233928 9.18314854 15.01233928 9.18314854 18 10 C18 10.66 18 11.32 18 12 C18.70125 12.268125 19.4025 12.53625 20.125 12.8125 C23 14 23 14 26 15.5625 C28.74361426 16.8771485 31.00970184 17.56025027 34 18 C32.375 19.625 32.375 19.625 30 21 C19.67174461 18.42525078 8.59842898 10.32241767 1 3 C0.67 2.01 0.34 1.02 0 0 Z " fill="#521917" transform="translate(57,157)"/>
<path d="M0 0 C4.95 0.33 9.9 0.66 15 1 C15 3.31 15 5.62 15 8 C14.01 8 13.02 8 12 8 C12 8.66 12 9.32 12 10 C7.24792529 10.43200679 4.21789302 8.98489083 0 7 C0 4.69 0 2.38 0 0 Z " fill="#BB8275" transform="translate(55,103)"/>
<path d="M0 0 C0.7940625 0.08894531 1.588125 0.17789063 2.40625 0.26953125 C3.59734375 0.38361328 3.59734375 0.38361328 4.8125 0.5 C6.90625 1.08203125 6.90625 1.08203125 8.90625 4.08203125 C9.17958867 7.54432108 8.87260603 10.74473193 7.90625 14.08203125 C4.32440572 16.84982001 1.37864787 17.47665459 -3.09375 17.08203125 C-3.09375 16.42203125 -3.09375 15.76203125 -3.09375 15.08203125 C-1.44375 14.42203125 0.20625 13.76203125 1.90625 13.08203125 C1.926875 11.82390625 1.9475 10.56578125 1.96875 9.26953125 C1.98035156 8.56183594 1.99195313 7.85414063 2.00390625 7.125 C1.98888217 4.87897664 1.98888217 4.87897664 0.90625 2.08203125 C-0.74375 2.08203125 -2.39375 2.08203125 -4.09375 2.08203125 C-2.09375 0.08203125 -2.09375 0.08203125 0 0 Z " fill="#1B0303" transform="translate(175.09375,143.91796875)"/>
<path d="M0 0 C1.18851563 0.00902344 2.37703125 0.01804687 3.6015625 0.02734375 C4.51679687 0.03894531 5.43203125 0.05054687 6.375 0.0625 C6.375 2.3725 6.375 4.6825 6.375 7.0625 C5.715 7.0625 5.055 7.0625 4.375 7.0625 C4.375 8.3825 4.375 9.7025 4.375 11.0625 C3.715 11.0625 3.055 11.0625 2.375 11.0625 C2.045 12.0525 1.715 13.0425 1.375 14.0625 C0.715 13.7325 0.055 13.4025 -0.625 13.0625 C-0.604375 11.969375 -0.58375 10.87625 -0.5625 9.75 C-0.43955548 6.11865809 -0.43955548 6.11865809 -1.625 3.0625 C-4.595 3.7225 -7.565 4.3825 -10.625 5.0625 C-7.73724577 -0.71300845 -6.1080001 -0.05988235 0 0 Z " fill="#160202" transform="translate(81.625,23.9375)"/>
<path d="M0 0 C0.99 0.103125 1.98 0.20625 3 0.3125 C5.1642235 3.55883524 5.37569856 4.55551443 5 8.3125 C4.01 9.7975 4.01 9.7975 3 11.3125 C-0.15728506 11.71555767 -2.15230863 11.80470789 -4.9375 10.1875 C-6 8.3125 -6 8.3125 -5.8125 5.25 C-4.72837603 1.33047489 -4.0933003 0.42638545 0 0 Z " fill="#360605" transform="translate(77,26.6875)"/>
<path d="M0 0 C0.33 0.33 0.66 0.66 1 1 C0.75 4.4375 0.75 4.4375 0 8 C-3.20808915 10.1387261 -4.27698497 10.47730962 -8 10 C-10.14762184 6.77856724 -10.561068 5.7404533 -10 2 C-6.88154874 -1.59821299 -4.38661903 -1.16976507 0 0 Z " fill="#490605" transform="translate(177,148)"/>
<path d="M0 0 C0.66 0 1.32 0 2 0 C2.33 1.65 2.66 3.3 3 5 C4.32 4.67 5.64 4.34 7 4 C7 4.99 7 5.98 7 7 C7.99 6.67 8.98 6.34 10 6 C10 5.34 10 4.68 10 4 C11.9375 4.8125 11.9375 4.8125 14 6 C14.33 6.99 14.66 7.98 15 9 C18.96 9 22.92 9 27 9 C27 9.33 27 9.66 27 10 C26.03175293 10.03758423 26.03175293 10.03758423 25.04394531 10.07592773 C22.11244106 10.19214433 19.18123783 10.31475442 16.25 10.4375 C15.23421875 10.47681641 14.2184375 10.51613281 13.171875 10.55664062 C12.1921875 10.59853516 11.2125 10.64042969 10.203125 10.68359375 C9.30239258 10.72025146 8.40166016 10.75690918 7.47363281 10.79467773 C4.71650899 10.95650925 4.71650899 10.95650925 1 12 C0.67 8.04 0.34 4.08 0 0 Z " fill="#A55A51" transform="translate(75,104)"/>
<path d="M0 0 C0 1.32 0 2.64 0 4 C-2.53946923 4.84648974 -3.90562398 5.02071669 -6.5625 4.4375 C-9.24805134 3.66489008 -9.24805134 3.66489008 -12 6 C-14.73669888 5.77568042 -17.30754597 5.46648921 -20 5 C-21.155 4.814375 -22.31 4.62875 -23.5 4.4375 C-24.325 4.293125 -25.15 4.14875 -26 4 C-23.01385547 2.34103082 -20.35922209 1.57352572 -17 1 C-13.5062019 0.32294249 -13.5062019 0.32294249 -10.0625 -0.5625 C-6.587732 -1.299572 -3.2181729 -1.60908645 0 0 Z " fill="#6E1410" transform="translate(125,117)"/>
<path d="M0 0 C1.98 0.99 3.96 1.98 6 3 C6 3.66 6 4.32 6 5 C6.66 5 7.32 5 8 5 C8 5.66 8 6.32 8 7 C9.65 6.67 11.3 6.34 13 6 C13.042721 7.66611905 13.04063832 9.33382885 13 11 C12 12 12 12 9.3125 12.25 C5.56432206 11.96711865 3.23780683 10.85017533 0 9 C0 6.03 0 3.06 0 0 Z " fill="#7D221D" transform="translate(55,88)"/>
<path d="M0 0 C10.23 0 20.46 0 31 0 C31 0.99 31 1.98 31 3 C26.95834861 3.02915731 22.9167245 3.04685173 18.875 3.0625 C17.16183594 3.07506836 17.16183594 3.07506836 15.4140625 3.08789062 C14.30546875 3.09111328 13.196875 3.09433594 12.0546875 3.09765625 C10.53077393 3.10551147 10.53077393 3.10551147 8.97607422 3.11352539 C5.90885274 2.99652309 3.01366866 2.56776417 0 2 C0 1.34 0 0.68 0 0 Z " fill="#62231F" transform="translate(186,96)"/>
<path d="M0 0 C3.625 0.375 3.625 0.375 7 1 C8.3260274 6.42465753 8.3260274 6.42465753 6.9375 8.875 C4.15230863 10.49220789 2.15728506 10.40305767 -1 10 C-3 7 -3 7 -2.75 4.4375 C-2 2 -2 2 0 0 Z " fill="#320403" transform="translate(170,30)"/>
<path d="M0 0 C0 0.33 0 0.66 0 1 C-3.3 1 -6.6 1 -10 1 C-10 0.34 -10 -0.32 -10 -1 C-10.6290625 -0.84402344 -11.258125 -0.68804687 -11.90625 -0.52734375 C-16.23162818 0.45628894 -19.96055716 1.22463496 -24.375 0.5 C-27.92920616 0.00976467 -29.1406035 -0.02540586 -32 2 C-32 0.68 -32 -0.64 -32 -2 C-21.14890881 -3.77160673 -10.26012078 -4.32005086 0 0 Z " fill="#2D0201" transform="translate(218,93)"/>
<path d="M0 0 C5.54907289 -0.28215625 8.29772274 -0.18095227 13 3 C13.66 2.67 14.32 2.34 15 2 C15 3.98 15 5.96 15 8 C13.68 7.34 12.36 6.68 11 6 C10.01 6.99 9.02 7.98 8 9 C6 8 6 8 4 6 C2.01643517 5.28591666 0.01684563 4.61382258 -2 4 C-2 3.34 -2 2.68 -2 2 C-1.34 2 -0.68 2 0 2 C0 1.34 0 0.68 0 0 Z " fill="#5F0E0B" transform="translate(135,115)"/>
<path d="M0 0 C0.33 0.66 0.66 1.32 1 2 C1.99 2.33 2.98 2.66 4 3 C4.33 5.31 4.66 7.62 5 10 C0.45194365 10.17835515 -2.8794254 9.99785435 -7 8 C-6.875 5.6875 -6.875 5.6875 -6 3 C-2.9375 1.1875 -2.9375 1.1875 0 0 Z " fill="#4A1310" transform="translate(177,93)"/>
<path d="M0 0 C0.33 0 0.66 0 1 0 C1 3.96 1 7.92 1 12 C-3.19895255 13.04973814 -5.79405774 12.72795155 -10 12 C-10.33 11.01 -10.66 10.02 -11 9 C-11.99 8.67 -12.98 8.34 -14 8 C-14 7.01 -14 6.02 -14 5 C-13.13375 5.33 -12.2675 5.66 -11.375 6 C-8.04281725 6.98731341 -5.44840462 7.16420974 -2 7 C-1.34 4.69 -0.68 2.38 0 0 Z " fill="#A44A40" transform="translate(69,92)"/>
<path d="M0 0 C1.98 1.65 3.96 3.3 6 5 C5.67 5.66 5.34 6.32 5 7 C4.01 7 3.02 7 2 7 C2 9.31 2 11.62 2 14 C1.34 14 0.68 14 0 14 C0 17.96 0 21.92 0 26 C-0.66 26 -1.32 26 -2 26 C-2.19865739 17.10456358 -2.33447255 8.67089803 0 0 Z " fill="#5C1512" transform="translate(75,76)"/>
<path d="M0 0 C0.99 0.33 1.98 0.66 3 1 C3 1.66 3 2.32 3 3 C12.24 3 21.48 3 31 3 C31 3.66 31 4.32 31 5 C22.09 5 13.18 5 4 5 C4 5.99 4 6.98 4 8 C3.01 7.67 2.02 7.34 1 7 C0.67 4.69 0.34 2.38 0 0 Z " fill="#762A25" transform="translate(218,95)"/>
<path d="M0 0 C0.7425 0.0825 1.485 0.165 2.25 0.25 C-0.14078728 3.53733251 -2.71922094 6.14663254 -5.8125 8.75 C-8.86983037 11.34873081 -10.82278774 13.69987216 -12.75 17.25 C-15.36941217 18.99627478 -16.78824877 19.63722388 -19.75 20.25 C-15.68744062 14.65468013 -11.38245769 9.38203646 -6.75 4.25 C-6.04875 3.425 -5.3475 2.6 -4.625 1.75 C-2.75 0.25 -2.75 0.25 0 0 Z " fill="#180000" transform="translate(83.75,41.75)"/>
<path d="M0 0 C0.66 0 1.32 0 2 0 C2 2.64 2 5.28 2 8 C2.66 8 3.32 8 4 8 C4 9.98 4 11.96 4 14 C5.32 14 6.64 14 8 14 C10.35953094 16.35953094 10.49141413 17.77895617 11 21 C9.68 21 8.36 21 7 21 C7 20.01 7 19.02 7 18 C5.68 18.33 4.36 18.66 3 19 C2.67 17.35 2.34 15.7 2 14 C1.34 14 0.68 14 0 14 C0 9.38 0 4.76 0 0 Z " fill="#87302B" transform="translate(75,90)"/>
<path d="M0 0 C3.33788778 0.56465339 4.72420413 1.42053491 6.8125 4.0625 C7.56853516 4.99449219 7.56853516 4.99449219 8.33984375 5.9453125 C8.88769531 6.62335938 9.43554688 7.30140625 10 8 C11.28543423 9.48458602 12.57703806 10.96385432 13.875 12.4375 C14.47054687 13.11683594 15.06609375 13.79617187 15.6796875 14.49609375 C16.11539063 14.99238281 16.55109375 15.48867187 17 16 C16.67 16.66 16.34 17.32 16 18 C13.9375 18.625 13.9375 18.625 12 19 C11.731875 18.071875 11.46375 17.14375 11.1875 16.1875 C10.06289965 13.1688359 9.29293427 12.0844857 7 10 C7 9.34 7 8.68 7 8 C5.02 7.34 3.04 6.68 1 6 C0.67 4.02 0.34 2.04 0 0 Z " fill="#48120E" transform="translate(61,126)"/>
<path d="M0 0 C0.94875 0.04125 1.8975 0.0825 2.875 0.125 C3.205 0.785 3.535 1.445 3.875 2.125 C2.885 2.125 1.895 2.125 0.875 2.125 C0.875 3.445 0.875 4.765 0.875 6.125 C2.195 5.465 3.515 4.805 4.875 4.125 C4.875 5.775 4.875 7.425 4.875 9.125 C-1.55048263 10.45859073 -1.55048263 10.45859073 -4.0625 9 C-5.46312547 6.528308 -5.48377543 4.92344834 -5.125 2.125 C-3.125 0.125 -3.125 0.125 0 0 Z " fill="#751A16" transform="translate(76.125,148.875)"/>
<path d="M0 0 C2.57877584 4.02933725 2 5.51534435 2 11 C-3.61 10.34 -9.22 9.68 -15 9 C-15.33 9.66 -15.66 10.32 -16 11 C-16.66 9.35 -17.32 7.7 -18 6 C-12.39 6 -6.78 6 -1 6 C-0.67 4.02 -0.34 2.04 0 0 Z " fill="#813C36" transform="translate(123,106)"/>
<path d="M0 0 C0.33 0 0.66 0 1 0 C1 1.98 1 3.96 1 6 C-12.86 5.01 -12.86 5.01 -27 4 C-27 3.34 -27 2.68 -27 2 C-18.09 2 -9.18 2 0 2 C0 1.34 0 0.68 0 0 Z " fill="#620C09" transform="translate(249,98)"/>
<path d="M0 0 C0 0.33 0 0.66 0 1 C-3.96 1.66 -7.92 2.32 -12 3 C-11.67 3.66 -11.34 4.32 -11 5 C-17.93 4.67 -24.86 4.34 -32 4 C-32 3.34 -32 2.68 -32 2 C-28.35475481 1.66002426 -24.70872831 1.32925063 -21.0625 1 C-19.53012695 0.85691406 -19.53012695 0.85691406 -17.96679688 0.7109375 C-11.94822031 0.17253448 -6.04236648 -0.10081112 0 0 Z " fill="#3C0302" transform="translate(144,180)"/>
<path d="M0 0 C0.33 0 0.66 0 1 0 C0.855625 1.134375 0.71125 2.26875 0.5625 3.4375 C-0.28083655 10.93114763 -0.5938192 18.47269201 -1 26 C-0.34 26.33 0.32 26.66 1 27 C-0.375 28.5 -0.375 28.5 -2 30 C-2.66 30 -3.32 30 -4 30 C-4.41837946 22.96502681 -3.7245032 16.29760147 -2.5625 9.375 C-2.42803467 8.56885254 -2.29356934 7.76270508 -2.1550293 6.93212891 C-1.13716201 1.13716201 -1.13716201 1.13716201 0 0 Z " fill="#5C2825" transform="translate(37,69)"/>
<path d="M0 0 C0.33 0 0.66 0 1 0 C1.06058594 0.81984375 1.12117187 1.6396875 1.18359375 2.484375 C1.26738281 3.56203125 1.35117188 4.6396875 1.4375 5.75 C1.55931641 7.35101563 1.55931641 7.35101563 1.68359375 8.984375 C1.94090773 11.43679962 2.31812218 13.63921291 3 16 C2.34 16.33 1.68 16.66 1 17 C0.30772968 19.80980673 0.30772968 19.80980673 -0.125 23.0625 C-0.29257813 24.16722656 -0.46015625 25.27195312 -0.6328125 26.41015625 C-0.75398437 27.26480469 -0.87515625 28.11945313 -1 29 C-1.33 29 -1.66 29 -2 29 C-2 21.74 -2 14.48 -2 7 C-1.34 7 -0.68 7 0 7 C0 4.69 0 2.38 0 0 Z " fill="#47110F" transform="translate(133,82)"/>
<path d="M0 0 C0 3 0 3 -1 5 C-4.854717 4.88933827 -8.70852562 4.75889604 -12.5625 4.625 C-14.19155273 4.57859375 -14.19155273 4.57859375 -15.85351562 4.53125 C-21.56870137 4.32279338 -26.59508366 3.90761753 -32 2 C-28.4948256 0.6855596 -25.58643404 1.22733165 -22 1.84375 C-20.01069354 2.11424104 -20.01069354 2.11424104 -18.1953125 1.49609375 C-13.92066581 0.53011487 -9.43882199 1.50564893 -5.1171875 1.94140625 C-3.57417969 1.97041016 -3.57417969 1.97041016 -2 2 C-1.34 1.34 -0.68 0.68 0 0 Z " fill="#641D19" transform="translate(129,177)"/>
<path d="M0 0 C0.33 0 0.66 0 1 0 C1.10546143 0.64960693 1.21092285 1.29921387 1.31958008 1.96850586 C1.80961062 4.95947362 2.31097957 7.94843826 2.8125 10.9375 C2.97814453 11.95908203 3.14378906 12.98066406 3.31445312 14.03320312 C4.37218214 20.27979149 5.83277461 26.04478755 8 32 C7.01 32 6.02 32 5 32 C0.58928303 21.57466899 -0.35894674 11.24699789 0 0 Z " fill="#A67C74" transform="translate(34,93)"/>
<path d="M0 0 C0.99 0.33 1.98 0.66 3 1 C6.44419134 16.74487472 6.44419134 16.74487472 6 24 C3.830658 20.745987 2.9609947 17.99869282 1.875 14.25 C1.52179687 13.05890625 1.16859375 11.8678125 0.8046875 10.640625 C-0.00618632 6.9720114 -0.14398555 3.74362434 0 0 Z " fill="#61211D" transform="translate(32,104)"/>
<path d="M0 0 C5.02230086 1.47221435 7.80278222 4.4489651 11.3125 8.125 C12.13717773 8.96998047 12.13717773 8.96998047 12.97851562 9.83203125 C14.32595438 11.21462058 15.66394273 12.60640916 17 14 C16.67 14.66 16.34 15.32 16 16 C15.443125 15.38125 14.88625 14.7625 14.3125 14.125 C11.93354822 11.93893621 10.03642904 11.01214301 7 10 C7 9.34 7 8.68 7 8 C6.21625 7.79375 5.4325 7.5875 4.625 7.375 C2 6 2 6 0.6875 2.875 C0.460625 1.92625 0.23375 0.9775 0 0 Z " fill="#321212" transform="translate(161,38)"/>
<path d="M0 0 C1.27875 0.28875 2.5575 0.5775 3.875 0.875 C4.95394531 1.11863281 4.95394531 1.11863281 6.0546875 1.3671875 C8 2 8 2 10 4 C10.99 3.01 11.98 2.02 13 1 C15.475 1.99 15.475 1.99 18 3 C18 3.66 18 4.32 18 5 C10.36565097 7.49584488 10.36565097 7.49584488 7 6 C6.34 5.34 5.68 4.68 5 4 C4.34 4.66 3.68 5.32 3 6 C3 5.34 3 4.68 3 4 C2.34 4 1.68 4 1 4 C0.67 2.68 0.34 1.36 0 0 Z " fill="#490706" transform="translate(133,119)"/>
<path d="M0 0 C0.66 0 1.32 0 2 0 C2.33 3.96 2.66 7.92 3 12 C-0.96 11.67 -4.92 11.34 -9 11 C-7.68 10.67 -6.36 10.34 -5 10 C-5 8.68 -5 7.36 -5 6 C-3.35 5.67 -1.7 5.34 0 5 C0 3.35 0 1.7 0 0 Z " fill="#71231E" transform="translate(146,100)"/>
<path d="M0 0 C0.33 0 0.66 0 1 0 C1 2.31 1 4.62 1 7 C2.98 7.495 2.98 7.495 5 8 C5.33 11.96 5.66 15.92 6 20 C5.34 19.67 4.68 19.34 4 19 C4 16.69 4 14.38 4 12 C3.34 12 2.68 12 2 12 C2 17.28 2 22.56 2 28 C1.34 27.67 0.68 27.34 0 27 C0 18.09 0 9.18 0 0 Z " fill="#57201C" transform="translate(70,94)"/>
<path d="M0 0 C3.96 0.33 7.92 0.66 12 1 C12.33 1.99 12.66 2.98 13 4 C12.67 4.66 12.34 5.32 12 6 C10.37419034 5.88601335 8.74932843 5.75844341 7.125 5.625 C6.22007813 5.55539063 5.31515625 5.48578125 4.3828125 5.4140625 C2 5 2 5 0 3 C0 2.01 0 1.02 0 0 Z " fill="#5A0A06" transform="translate(58,119)"/>
<path d="M0 0 C3.5654494 0.31459848 5.50322204 1.24222651 8.125 3.5625 C10.75317489 6.32334263 10.75317489 6.32334263 14 6 C14.061875 6.61875 14.12375 7.2375 14.1875 7.875 C14.828919 10.27761141 14.828919 10.27761141 17.5625 11.25 C18.366875 11.4975 19.17125 11.745 20 12 C18.1875 12.625 18.1875 12.625 16 13 C15.01 12.34 14.02 11.68 13 11 C13 10.34 13 9.68 13 9 C12.26394531 8.9071875 11.52789062 8.814375 10.76953125 8.71875 C7.57286406 7.88914949 6.10216168 6.71912411 3.6875 4.5 C2.99011719 3.8709375 2.29273437 3.241875 1.57421875 2.59375 C0 1 0 1 0 0 Z " fill="#905C54" transform="translate(62,158)"/>
<path d="M0 0 C0 0.99 0 1.98 0 3 C-5.9093208 8.71234344 -14.24432712 13.30925635 -22 16 C-22.99 15.67 -23.98 15.34 -25 15 C-23.67548828 14.38125 -23.67548828 14.38125 -22.32421875 13.75 C-14.20660496 9.872846 -7.09879437 5.57762415 0 0 Z " fill="#0C0504" transform="translate(189,162)"/>
<path d="M0 0 C5.4918362 1.03734684 10.01429432 2.39383567 15 5 C17.73572585 5.69907414 17.73572585 5.69907414 20 6 C18.375 7.625 18.375 7.625 16 9 C10.19378286 8.03229714 4.82177522 4.26851562 0 1 C0 0.67 0 0.34 0 0 Z " fill="#4C1512" transform="translate(71,169)"/>
<path d="M0 0 C0.33 0 0.66 0 1 0 C1 3.3 1 6.6 1 10 C-2.28519475 11.09506492 -4.73663415 11.09960608 -8.1875 11.0625 C-9.81751953 11.04896484 -9.81751953 11.04896484 -11.48046875 11.03515625 C-12.31191406 11.02355469 -13.14335938 11.01195313 -14 11 C-14.33 9.35 -14.66 7.7 -15 6 C-10.80530429 6.59924224 -6.99000166 7.57499941 -3 9 C-3 8.34 -3 7.68 -3 7 C-2.01 7 -1.02 7 0 7 C0 4.69 0 2.38 0 0 Z " fill="#96433C" transform="translate(70,104)"/>
<path d="M0 0 C-7.33741969 2.3479743 -14.34393782 2.19355213 -22 2 C-18.66884924 -1.33115076 -15.08553234 -1.29218389 -10.5625 -1.6875 C-9.42941406 -1.79449219 -8.29632813 -1.90148437 -7.12890625 -2.01171875 C-4.03172198 -2.00011881 -2.56713169 -1.64624415 0 0 Z " fill="#140303" transform="translate(142,155)"/>
<path d="M0 0 C1.32 0.33 2.64 0.66 4 1 C2.47940093 4.88014936 0.13921469 6.73906562 -3.125 9.25 C-4.03507813 9.95640625 -4.94515625 10.6628125 -5.8828125 11.390625 C-6.58148438 11.92171875 -7.28015625 12.4528125 -8 13 C-8.66 12.67 -9.32 12.34 -10 12 C-9.01 11.01 -8.02 10.02 -7 9 C-7.33 8.34 -7.66 7.68 -8 7 C-6.576875 6.6596875 -6.576875 6.6596875 -5.125 6.3125 C-1.80676612 5.30916286 -1.80676612 5.30916286 -0.625 2.375 C-0.41875 1.59125 -0.2125 0.8075 0 0 Z " fill="#430807" transform="translate(185,153)"/>
<path d="M0 0 C0.33 -0.33 0.66 -0.66 1 -1 C3.67058851 -1.14115161 6.32432238 -1.04247107 9 -1 C9 -0.34 9 0.32 9 1 C9.66 1.33 10.32 1.66 11 2 C4.07 2 -2.86 2 -10 2 C-10 1.34 -10 0.68 -10 0 C-6.31030849 -1.22989717 -3.80233187 -0.56330842 0 0 Z " fill="#610F0C" transform="translate(238,96)"/>
<path d="M0 0 C0.309375 0.639375 0.61875 1.27875 0.9375 1.9375 C1.8345163 3.93610821 1.8345163 3.93610821 3 5 C3.33 4.34 3.66 3.68 4 3 C4.66 3 5.32 3 6 3 C4.70467692 5.88956687 3.4869789 8.01041688 1 10 C-1.26171875 10.29296875 -1.26171875 10.29296875 -3.6875 10.1875 C-4.89986328 10.14689453 -4.89986328 10.14689453 -6.13671875 10.10546875 C-6.75160156 10.07066406 -7.36648437 10.03585938 -8 10 C-8 9.67 -8 9.34 -8 9 C-6.35 9 -4.7 9 -3 9 C-2.814375 8.1646875 -2.814375 8.1646875 -2.625 7.3125 C-1.94023145 4.77885636 -1.00866237 2.42078968 0 0 Z " fill="#170202" transform="translate(179,32)"/>
<path d="M0 0 C3.3294553 0.24662632 4.16872387 1.18137816 6.5 3.6875 C7.34546586 4.78240454 8.17869964 5.88685392 9 7 C9.78375 8.03125 10.5675 9.0625 11.375 10.125 C13 13 13 13 12.75 15.375 C12.37875 16.179375 12.37875 16.179375 12 17 C9.84622436 14.37801226 8.59927826 12.35595828 8 9 C7.34 9 6.68 9 6 9 C4.60699818 7.04109119 3.27754554 5.0360882 2 3 C1.34 2.01 0.68 1.02 0 0 Z " fill="#190101" transform="translate(170,49)"/>
<path d="M0 0 C0.66 0.33 1.32 0.66 2 1 C2 6.94 2 12.88 2 19 C1.01 18.01 0.02 17.02 -1 16 C-1.99 15.67 -2.98 15.34 -4 15 C-3.51917969 14.63261719 -3.03835937 14.26523438 -2.54296875 13.88671875 C-0.38795083 11.25159557 -0.49327654 9.17494364 -0.3125 5.8125 C-0.24675781 4.72582031 -0.18101563 3.63914062 -0.11328125 2.51953125 C-0.07589844 1.68808594 -0.03851563 0.85664062 0 0 Z " fill="#491613" transform="translate(122,83)"/>
<path d="M0 0 C1.04285156 0.29519531 2.08570312 0.59039062 3.16015625 0.89453125 C4.72056641 1.31798828 4.72056641 1.31798828 6.3125 1.75 C8.77848965 2.56096304 10.9515439 3.46476016 13.22265625 4.70703125 C13.22265625 5.03703125 13.22265625 5.36703125 13.22265625 5.70703125 C6.78291044 5.08383004 0.54693224 4.06694863 -5.77734375 2.70703125 C-3.89387125 0.08059728 -3.29923283 -0.34802034 0 0 Z " fill="#763832" transform="translate(96.77734375,174.29296875)"/>
<path d="M0 0 C0.33 0 0.66 0 1 0 C1 5.28 1 10.56 1 16 C0.34 15.34 -0.32 14.68 -1 14 C-1 13.01 -1 12.02 -1 11 C-1.99 11 -2.98 11 -4 11 C-4.33 9.02 -4.66 7.04 -5 5 C-4.67 5.66 -4.34 6.32 -4 7 C-3.01 7 -2.02 7 -1 7 C-0.67 4.69 -0.34 2.38 0 0 Z " fill="#652E2A" transform="translate(53,84)"/>
<path d="M0 0 C2.22922955 2.22922955 2.88128953 4.09135278 4 7 C5.12534105 8.35618499 5.12534105 8.35618499 8.0625 8.0625 C9.031875 8.041875 10.00125 8.02125 11 8 C11 9.32 11 10.64 11 12 C5.60490463 12.49046322 5.60490463 12.49046322 2.6875 10.125 C-0.11054116 6.60154076 -0.09675866 4.45089835 0 0 Z " fill="#4B1A18" transform="translate(69,150)"/>
<path d="M0 0 C0.99 0.33 1.98 0.66 3 1 C3.36923077 8.38461538 3.36923077 8.38461538 1.5 11.5 C1.005 11.995 0.51 12.49 0 13 C-1.32 12.67 -2.64 12.34 -4 12 C-3.34 12 -2.68 12 -2 12 C-1.34 8.04 -0.68 4.08 0 0 Z " fill="#150403" transform="translate(82,148)"/>
<path d="M0 0 C0.33 0.99 0.66 1.98 1 3 C2.65 3.33 4.3 3.66 6 4 C6.33 6.31 6.66 8.62 7 11 C5.35 10.67 3.7 10.34 2 10 C0.68373308 6.38026598 0 3.90432869 0 0 Z " fill="#732620" transform="translate(48,101)"/>
<path d="M0 0 C0 1.65 0 3.3 0 5 C-0.53625 4.608125 -1.0725 4.21625 -1.625 3.8125 C-4.14436481 2.67044335 -4.14436481 2.67044335 -7.1875 4.1875 C-10.26667333 5.75646215 -10.26667333 5.75646215 -11 9 C-11.99 9 -12.98 9 -14 9 C-14 8.34 -14 7.68 -14 7 C-13.34 7 -12.68 7 -12 7 C-11.773125 6.21625 -11.54625 5.4325 -11.3125 4.625 C-10 2 -10 2 -7.6875 0.6875 C-4.99859913 -0.00035836 -2.76192463 -0.15782426 0 0 Z " fill="#380B09" transform="translate(181,91)"/>
<path d="M0 0 C2.32584397 0.87874932 4.24435199 1.99320379 6.328125 3.34765625 C7.03453125 3.80269531 7.7409375 4.25773438 8.46875 4.7265625 C9.26539062 5.25056641 9.26539062 5.25056641 10.078125 5.78515625 C9.418125 8.42515625 8.758125 11.06515625 8.078125 13.78515625 C7.748125 13.78515625 7.418125 13.78515625 7.078125 13.78515625 C6.83398438 10.7578125 6.83398438 10.7578125 6.58984375 7.73046875 C6.20419464 5.38996409 6.20419464 5.38996409 3.078125 3.78515625 C1.02102904 3.54460157 1.02102904 3.54460157 -1.109375 3.66015625 C-2.3675 3.70140625 -3.625625 3.74265625 -4.921875 3.78515625 C-4.921875 3.12515625 -4.921875 2.46515625 -4.921875 1.78515625 C-1.921875 -0.21484375 -1.921875 -0.21484375 0 0 Z " fill="#2F0F0E" transform="translate(77.921875,143.21484375)"/>
<path d="M0 0 C2.475 0.495 2.475 0.495 5 1 C5.66 2.98 6.32 4.96 7 7 C4.625 7.1875 4.625 7.1875 2 7 C0 4 0 4 0 0 Z " fill="#59110E" transform="translate(167,151)"/>
<path d="M0 0 C0.60328125 0.05800781 1.2065625 0.11601562 1.828125 0.17578125 C1.498125 1.16578125 1.168125 2.15578125 0.828125 3.17578125 C-1.151875 2.51578125 -3.131875 1.85578125 -5.171875 1.17578125 C-5.44 1.71203125 -5.708125 2.24828125 -5.984375 2.80078125 C-7.38020833 5.59244792 -8.77604167 8.38411458 -10.171875 11.17578125 C-10.501875 11.17578125 -10.831875 11.17578125 -11.171875 11.17578125 C-11.5043624 7.60154172 -11.35395828 5.53994781 -9.734375 2.30078125 C-6.38013635 -0.48078251 -4.22434119 -0.23847087 0 0 Z " fill="#180201" transform="translate(177.171875,25.82421875)"/>
<path d="M0 0 C3.43075518 2.24773615 4.95689608 4.48586126 7 8 C8.60934738 10.05531111 10.29655928 12.02032565 12 14 C8.35217412 13.10830923 6.45323095 12.58920024 4.125 9.5625 C3 7 3 7 3 4 C2.34 4 1.68 4 1 4 C0.67 2.68 0.34 1.36 0 0 Z " fill="#6C2A25" transform="translate(49,144)"/>
<path d="M0 0 C2.375 1.1875 2.375 1.1875 3.375 3.1875 C1.725 3.1875 0.075 3.1875 -1.625 3.1875 C-1.955 4.8375 -2.285 6.4875 -2.625 8.1875 C-5.1904594 5.6220406 -5.16546087 3.71063332 -5.625 0.1875 C-2.625 -0.8125 -2.625 -0.8125 0 0 Z M3.375 0.1875 C4.365 0.6825 4.365 0.6825 5.375 1.1875 C4.385 1.6825 4.385 1.6825 3.375 2.1875 C3.375 1.5275 3.375 0.8675 3.375 0.1875 Z " fill="#58100E" transform="translate(83.625,125.8125)"/>
<path d="M0 0 C0.66 0.66 1.32 1.32 2 2 C2.99 2 3.98 2 5 2 C5.33 2.66 5.66 3.32 6 4 C7.32 3.67 8.64 3.34 10 3 C10.99 4.485 10.99 4.485 12 6 C8.37 6 4.74 6 1 6 C0.34 4.68 -0.32 3.36 -1 2 C-0.67 1.34 -0.34 0.68 0 0 Z " fill="#8F251F" transform="translate(89,107)"/>
<path d="M0 0 C0.99 1.485 0.99 1.485 2 3 C3.15121139 4.34670012 4.31923068 5.67913941 5.5 7 C7.54614222 9.28890485 9.28998863 11.43498295 11 14 C5.97387433 13.14377948 2.957419 10.00840261 0 6 C-0.4375 2.5625 -0.4375 2.5625 0 0 Z " fill="#B08177" transform="translate(53,144)"/>
<path d="M0 0 C0.33 0.99 0.66 1.98 1 3 C-0.41346562 4.44064765 -1.83091211 5.87739015 -3.25 7.3125 C-4.03890625 8.11300781 -4.8278125 8.91351563 -5.640625 9.73828125 C-9.63774403 13.56995662 -9.63774403 13.56995662 -12 15 C-12.99 14.67 -13.98 14.34 -15 14 C-14.25234375 13.40832031 -13.5046875 12.81664062 -12.734375 12.20703125 C-11.25710937 11.02173828 -11.25710937 11.02173828 -9.75 9.8125 C-8.77546875 9.03519531 -7.8009375 8.25789062 -6.796875 7.45703125 C-4.16424517 5.144288 -2.09027918 2.80196947 0 0 Z " fill="#3F0A09" transform="translate(176,134)"/>
<path d="M0 0 C4.29 0 8.58 0 13 0 C13 1.98 13 3.96 13 6 C12.48050781 5.72285156 11.96101562 5.44570312 11.42578125 5.16015625 C7.63783995 3.19266733 4.29300887 1.53662611 0 1 C0 0.67 0 0.34 0 0 Z " fill="#702E28" transform="translate(136,113)"/>
<path d="M0 0 C0.66 0 1.32 0 2 0 C4.74375671 2.95481492 5 3.77471908 5 8 C3.35 7.67 1.7 7.34 0 7 C-1.125 2.25 -1.125 2.25 0 0 Z " fill="#592421" transform="translate(72,29)"/>
<path d="M0 0 C2.97 0.495 2.97 0.495 6 1 C6.77842938 4.40562852 7.09978121 7.50765756 7 11 C4.59424393 8.81482901 3.20464419 6.74080329 1.8125 3.8125 C1.46832031 3.09707031 1.12414063 2.38164062 0.76953125 1.64453125 C0.51558594 1.10183594 0.26164062 0.55914062 0 0 Z " fill="#83433C" transform="translate(45,132)"/>
<path d="M0 0 C2.39614126 -0.05425226 4.79103853 -0.09379027 7.1875 -0.125 C8.19780273 -0.15013672 8.19780273 -0.15013672 9.22851562 -0.17578125 C13.28807807 -0.21538674 16.34998815 0.19979998 20 2 C20 2.66 20 3.32 20 4 C13.4 3.01 6.8 2.02 0 1 C0 0.67 0 0.34 0 0 Z " fill="#380B0A" transform="translate(117,27)"/>
<path d="M0 0 C0.2475 0.61875 0.495 1.2375 0.75 1.875 C2.25002309 4.42503925 3.3697249 4.76222348 6 6 C8.88938827 8.47661852 10.45503269 10.18522884 11 14 C7.58841744 12.86280581 6.88145399 11.95657056 5 9 C5 8.34 5 7.68 5 7 C4.360625 6.773125 3.72125 6.54625 3.0625 6.3125 C1 5 1 5 0.25 2.375 C0.1675 1.59125 0.085 0.8075 0 0 Z " fill="#4F1714" transform="translate(49,112)"/>
<path d="M0 0 C0.33 0 0.66 0 1 0 C1 2.31 1 4.62 1 7 C-1.97 6.505 -1.97 6.505 -5 6 C-5.33 4.35 -5.66 2.7 -6 1 C-4.7934375 1.0309375 -4.7934375 1.0309375 -3.5625 1.0625 C-1.06645115 1.29633621 -1.06645115 1.29633621 0 0 Z " fill="#BF8E80" transform="translate(69,104)"/>
<path d="M0 0 C0.66 0.33 1.32 0.66 2 1 C1.25 8.75 1.25 8.75 -1 11 C-1.40047444 13.32275177 -1.7397104 15.65739357 -2 18 C-2.33 18 -2.66 18 -3 18 C-3.07654536 13.48382401 -3.10228696 9.40914783 -2 5 C-1.34 5 -0.68 5 0 5 C0 3.35 0 1.7 0 0 Z " fill="#350706" transform="translate(76,68)"/>
<path d="M0 0 C0 0.66 0 1.32 0 2 C-8.25 1.67 -16.5 1.34 -25 1 C-25 0.67 -25 0.34 -25 0 C-21.39627603 -0.19676145 -17.7920131 -0.38081639 -14.1875 -0.5625 C-13.16333984 -0.61857422 -12.13917969 -0.67464844 -11.08398438 -0.73242188 C-10.10107422 -0.78076172 -9.11816406 -0.82910156 -8.10546875 -0.87890625 C-7.19949951 -0.9260376 -6.29353027 -0.97316895 -5.36010742 -1.02172852 C-3 -1 -3 -1 0 0 Z " fill="#964039" transform="translate(105,114)"/>
<path d="M0 0 C4.62 0 9.24 0 14 0 C14.33 0.66 14.66 1.32 15 2 C10.03926578 3.32286246 5.08888488 3.08893197 0 3 C0 2.01 0 1.02 0 0 Z " fill="#8A5049" transform="translate(134,111)"/>
<path d="M0 0 C0.99773438 0.02320312 1.99546875 0.04640625 3.0234375 0.0703125 C4.52777344 0.09738281 4.52777344 0.09738281 6.0625 0.125 C6.83335938 0.14820312 7.60421875 0.17140625 8.3984375 0.1953125 C8.3984375 1.8453125 8.3984375 3.4953125 8.3984375 5.1953125 C7.0784375 4.8653125 5.7584375 4.5353125 4.3984375 4.1953125 C4.3984375 3.5353125 4.3984375 2.8753125 4.3984375 2.1953125 C1.4284375 2.1953125 -1.5415625 2.1953125 -4.6015625 2.1953125 C-2.6015625 0.1953125 -2.6015625 0.1953125 0 0 Z " fill="#862721" transform="translate(62.6015625,113.8046875)"/>
<path d="M0 0 C1.45922693 0.11409593 2.91740598 0.24165544 4.375 0.375 C5.59316406 0.47941406 5.59316406 0.47941406 6.8359375 0.5859375 C9 1 9 1 11 3 C8.02148438 3.34179688 8.02148438 3.34179688 5.04296875 3.68359375 C2.80603607 3.97170735 2.80603607 3.97170735 0 5 C0 3.35 0 1.7 0 0 Z " fill="#BB897E" transform="translate(77,111)"/>
<path d="M0 0 C5.94 0.99 5.94 0.99 12 2 C12 2.66 12 3.32 12 4 C8.7 4 5.4 4 2 4 C1.34 2.68 0.68 1.36 0 0 Z " fill="#2D0302" transform="translate(170,101)"/>
<path d="M0 0 C4.29 0 8.58 0 13 0 C12.67 0.66 12.34 1.32 12 2 C8.457201 3.180933 5.71640139 3.27028374 2 3 C1.34 2.01 0.68 1.02 0 0 Z " fill="#170509" transform="translate(220,82)"/>
<path d="M0 0 C1.98 1.65 3.96 3.3 6 5 C5.67 5.66 5.34 6.32 5 7 C4.01 7 3.02 7 2 7 C2 6.34 2 5.68 2 5 C1.34 5 0.68 5 0 5 C0 6.65 0 8.3 0 10 C-0.33 10 -0.66 10 -1 10 C-1.125 3.375 -1.125 3.375 0 0 Z " fill="#4B0F0D" transform="translate(75,76)"/>
<path d="M0 0 C1 3 1 3 0 5.4375 C-1.10329939 8.26470468 -1.05199058 9.22657029 0 12 C0.33 12.66 0.66 13.32 1 14 C-0.32 13.67 -1.64 13.34 -3 13 C-4.00821159 10.31143576 -4.22736824 8.58296785 -3.17578125 5.88671875 C-2.16604698 3.89205069 -1.11893353 1.9353228 0 0 Z " fill="#491A19" transform="translate(42,56)"/>
<path d="M0 0 C0.66 0.99 1.32 1.98 2 3 C1.34 3 0.68 3 0 3 C0.66 4.98 1.32 6.96 2 9 C0.68 9 -0.64 9 -2 9 C-4 6 -4 6 -4 3 C-2 1.3125 -2 1.3125 0 0 Z " fill="#471918" transform="translate(171,31)"/>
<path d="M0 0 C1.32 0.33 2.64 0.66 4 1 C4.66 3.31 5.32 5.62 6 8 C6.66 8 7.32 8 8 8 C8.33 9.65 8.66 11.3 9 13 C5.12539657 9.55590806 2.50927545 5.49407119 0 1 C0 0.67 0 0.34 0 0 Z " fill="#591F1C" transform="translate(44,140)"/>
<path d="M0 0 C2.3431213 0.25561323 4.67843403 0.59270772 7 1 C7.33 1.66 7.66 2.32 8 3 C9.65 3 11.3 3 13 3 C12.67 3.66 12.34 4.32 12 5 C7.12335991 5.34833144 4.22949995 4.41685712 0 2 C0 1.34 0 0.68 0 0 Z " fill="#95322A" transform="translate(55,95)"/>
<path d="M0 0 C4.8991349 1.29977048 9.37559575 2.92373687 14 5 C8.73527669 7.02489358 3.90179827 4.01838752 -1 2 C-0.67 1.34 -0.34 0.68 0 0 Z " fill="#360C0A" transform="translate(147,32)"/>
<path d="M0 0 C2.64 0 5.28 0 8 0 C8.33 0.66 8.66 1.32 9 2 C5.92382812 2.29296875 5.92382812 2.29296875 2.84765625 2.5859375 C2.23792969 2.72257812 1.62820312 2.85921875 1 3 C0.67 3.66 0.34 4.32 0 5 C-0.66 4.67 -1.32 4.34 -2 4 C-2 3.34 -2 2.68 -2 2 C-1.34 2 -0.68 2 0 2 C0 1.34 0 0.68 0 0 Z " fill="#621A15" transform="translate(135,115)"/>
<path d="M0 0 C1.98 0.66 3.96 1.32 6 2 C6.33 4.31 6.66 6.62 7 9 C3.46352496 7.32482761 2.2088437 6.50719183 0.6875 2.8125 C0.460625 1.884375 0.23375 0.95625 0 0 Z " fill="#3D100E" transform="translate(49,110)"/>
<path d="M0 0 C0 1.32 0 2.64 0 4 C-5.61 3.67 -11.22 3.34 -17 3 C-17 2.67 -17 2.34 -17 2 C-16.08476563 1.93941406 -15.16953125 1.87882812 -14.2265625 1.81640625 C-12.44378906 1.69072266 -12.44378906 1.69072266 -10.625 1.5625 C-9.44164063 1.48128906 -8.25828125 1.40007812 -7.0390625 1.31640625 C-4.40001916 1.04164724 -2.56464354 0 0 0 Z " fill="#985F55" transform="translate(124,111)"/>
<path d="M0 0 C1.65 0 3.3 0 5 0 C5 0.99 5 1.98 5 3 C4.34 3 3.68 3 3 3 C2.67 3.99 2.34 4.98 2 6 C0.68 5.34 -0.64 4.68 -2 4 C-1.34 2.68 -0.68 1.36 0 0 Z " fill="#751B17" transform="translate(112,98)"/>
<path d="M0 0 C-0.33 1.32 -0.66 2.64 -1 4 C-1.66 3.67 -2.32 3.34 -3 3 C-3 2.34 -3 1.68 -3 1 C-5.64 0.67 -8.28 0.34 -11 0 C-7.07632508 -2.82504594 -4.32061114 -1.49559616 0 0 Z " fill="#480604" transform="translate(250,94)"/>
<path d="M0 0 C1.20272819 2.40545638 1.10071472 3.94996953 1.0625 6.625 C1.05347656 7.44226563 1.04445313 8.25953125 1.03515625 9.1015625 C1.02355469 9.72804688 1.01195313 10.35453125 1 11 C0.34 11 -0.32 11 -1 11 C-2.31626692 7.38026598 -3 4.90432869 -3 1 C-2.01 0.67 -1.02 0.34 0 0 Z " fill="#88433C" transform="translate(79,115)"/>
<path d="M0 0 C0.99 0.33 1.98 0.66 3 1 C2.67 4.63 2.34 8.26 2 12 C1.67 12 1.34 12 1 12 C0.01751476 7.9472484 -0.08159574 4.16138263 0 0 Z " fill="#561E1A" transform="translate(32,104)"/>
<path d="M0 0 C0.99 0.33 1.98 0.66 3 1 C3 2.65 3 4.3 3 6 C2.67 5.34 2.34 4.68 2 4 C-0.97 4 -3.94 4 -7 4 C-7 3.34 -7 2.68 -7 2 C-4.69 2 -2.38 2 0 2 C0 1.34 0 0.68 0 0 Z " fill="#65302C" transform="translate(178,96)"/>
<path d="M0 0 C3.67420866 0.30618405 4.78135513 0.75771784 7.3125 3.5625 C8.1478125 4.7690625 8.1478125 4.7690625 9 6 C5.32579134 5.69381595 4.21864487 5.24228216 1.6875 2.4375 C1.130625 1.633125 0.57375 0.82875 0 0 Z " fill="#9E6D63" transform="translate(62,158)"/>
<path d="M0 0 C0.99 0.33 1.98 0.66 3 1 C3 3.31 3 5.62 3 8 C2.34 7.01 1.68 6.02 1 5 C0.01 5.33 -0.98 5.66 -2 6 C-2 2 -2 2 0 0 Z " fill="#510A07" transform="translate(79,149)"/>
<path d="M0 0 C0.99 0.33 1.98 0.66 3 1 C3 4.3 3 7.6 3 11 C2.34 11 1.68 11 1 11 C0.83197949 9.54182203 0.66562857 8.0834516 0.5 6.625 C0.4071875 5.81289062 0.314375 5.00078125 0.21875 4.1640625 C0 2 0 2 0 0 Z " fill="#7A2F28" transform="translate(51,133)"/>
<path d="M0 0 C1.65 0 3.3 0 5 0 C5 2.64 5 5.28 5 8 C2.5 5.6875 2.5 5.6875 0 3 C0 2.01 0 1.02 0 0 Z " fill="#82342F" transform="translate(54,144)"/>
<path d="M0 0 C0.66 0.66 1.32 1.32 2 2 C-1.3 3.32 -4.6 4.64 -8 6 C-7.67 5.01 -7.34 4.02 -7 3 C-3.4375 1.3125 -3.4375 1.3125 0 0 Z " fill="#490B09" transform="translate(166,169)"/>
<path d="M0 0 C0.99 0 1.98 0 3 0 C6 3.33333333 6 3.33333333 6 6 C3.13275314 5.42655063 2.1385485 5.1385485 0 3 C0 2.01 0 1.02 0 0 Z " fill="#9B5951" transform="translate(71,153)"/>
<path d="M0 0 C1.485 0.99 1.485 0.99 3 2 C3.1875 4.625 3.1875 4.625 3 7 C2.01 7.33 1.02 7.66 0 8 C-0.38063221 5.6739143 -0.71269945 3.33944736 -1 1 C-0.67 0.67 -0.34 0.34 0 0 Z " fill="#692A24" transform="translate(37,104)"/>
<path d="M0 0 C2 1 2 1 4 4 C1.03 6.475 1.03 6.475 -2 9 C-2.33 8.34 -2.66 7.68 -3 7 C-2.34 7 -1.68 7 -1 7 C-0.67 4.69 -0.34 2.38 0 0 Z " fill="#471210" transform="translate(87,150)"/>
<path d="M0 0 C0.66 0 1.32 0 2 0 C4.1875 2.8125 4.1875 2.8125 6 6 C5.67 6.99 5.34 7.98 5 9 C1.7457985 6.16569547 0.4793247 4.31392226 0 0 Z " fill="#BC9488" transform="translate(47,138)"/>
<path d="M0 0 C2.83022097 3.99560608 1.76210446 7.42737323 1 12 C0.67 12 0.34 12 0 12 C-0.19401633 10.18818595 -0.38004375 8.37551468 -0.5625 6.5625 C-0.66691406 5.55316406 -0.77132812 4.54382813 -0.87890625 3.50390625 C-0.91886719 2.67761719 -0.95882812 1.85132812 -1 1 C-0.67 0.67 -0.34 0.34 0 0 Z " fill="#6F2E28" transform="translate(122,98)"/>
<path d="M0 0 C-0.33 1.65 -0.66 3.3 -1 5 C-2.32 4.67 -3.64 4.34 -5 4 C-5 3.01 -5 2.02 -5 1 C-2 0 -2 0 0 0 Z " fill="#AB635A" transform="translate(70,100)"/>
<path d="M0 0 C0.66 0 1.32 0 2 0 C2 2.64 2 5.28 2 8 C0.35 8.33 -1.3 8.66 -3 9 C-2.505 8.443125 -2.01 7.88625 -1.5 7.3125 C0.24754367 4.61837017 0.26218749 3.14624993 0 0 Z " fill="#5D1612" transform="translate(121,90)"/>
<path d="M0 0 C4.95 0.99 4.95 0.99 10 2 C10 2.33 10 2.66 10 3 C7.69 3.66 5.38 4.32 3 5 C1 2 1 2 0 0 Z " fill="#420704" transform="translate(218,91)"/>
<path d="M0 0 C0.66 0 1.32 0 2 0 C1.67 2.31 1.34 4.62 1 7 C0.01 6.67 -0.98 6.34 -2 6 C-1.125 1.125 -1.125 1.125 0 0 Z " fill="#3A110F" transform="translate(52,81)"/>
<path d="M0 0 C0.33 1.32 0.66 2.64 1 4 C-0.98 4 -2.96 4 -5 4 C-5.33 3.01 -5.66 2.02 -6 1 C-4.02 0.67 -2.04 0.34 0 0 Z " fill="#3E0F0E" transform="translate(79,158)"/>
<path d="M0 0 C3.125 -0.1875 3.125 -0.1875 6 0 C6 0.66 6 1.32 6 2 C3.29120665 3.35439668 0.99066732 3.06501451 -2 3 C-1.34 2.01 -0.68 1.02 0 0 Z " fill="#8B1713" transform="translate(89,116)"/>
<path d="M0 0 C2.00720923 0.28674418 4.0085944 0.61866701 6 1 C5.01 1.495 5.01 1.495 4 2 C4 2.66 4 3.32 4 4 C2.35 4 0.7 4 -1 4 C-1 1 -1 1 0 0 Z " fill="#AE695D" transform="translate(63,109)"/>
<path d="M0 0 C0.66 0 1.32 0 2 0 C2 1.98 2 3.96 2 6 C2.99 6.33 3.98 6.66 5 7 C5 7.33 5 7.66 5 8 C3.35 8 1.7 8 0 8 C0 5.36 0 2.72 0 0 Z " fill="#851915" transform="translate(77,98)"/>
<path d="M0 0 C6.15234375 0.5859375 6.15234375 0.5859375 8 1 C8.33 1.66 8.66 2.32 9 3 C6.03 2.67 3.06 2.34 0 2 C0 1.34 0 0.68 0 0 Z " fill="#742F29" transform="translate(101,177)"/>
<path d="M0 0 C0.33 0 0.66 0 1 0 C1.625 3.375 1.625 3.375 2 7 C1.34 7.66 0.68 8.32 0 9 C-2.125 8.625 -2.125 8.625 -4 8 C-3.34 8 -2.68 8 -2 8 C-1.34 5.36 -0.68 2.72 0 0 Z " fill="#2E0706" transform="translate(82,152)"/>
<path d="M0 0 C1.7074998 1.28062485 3.37373596 2.61767557 5 4 C5 4.66 5 5.32 5 6 C3.68 6 2.36 6 1 6 C0.67 4.02 0.34 2.04 0 0 Z " fill="#B48478" transform="translate(48,97)"/>
<path d="M0 0 C0 0.33 0 0.66 0 1 C-2.97 1 -5.94 1 -9 1 C-9 0.34 -9 -0.32 -9 -1 C-5.23375329 -2.25541557 -3.62811066 -1.37061958 0 0 Z " fill="#661B17" transform="translate(237,97)"/>
<path d="M0 0 C0.66 0.33 1.32 0.66 2 1 C1.67 1.99 1.34 2.98 1 4 C-2.5625 5.1875 -2.5625 5.1875 -6 6 C-2.25 1.125 -2.25 1.125 0 0 Z " fill="#0B0101" transform="translate(70,56)"/>
<path d="M0 0 C1.98 0.66 3.96 1.32 6 2 C6 2.66 6 3.32 6 4 C6.66 4.33 7.32 4.66 8 5 C5.125 4.75 5.125 4.75 2 4 C0.625 1.9375 0.625 1.9375 0 0 Z " fill="#5D1E19" transform="translate(69,165)"/>
<path d="M0 0 C0.66 0.33 1.32 0.66 2 1 C2 1.99 2 2.98 2 4 C2.99 4.33 3.98 4.66 5 5 C4.01 5.33 3.02 5.66 2 6 C1.34 5.34 0.68 4.68 0 4 C-1.31747324 3.30251417 -2.64914193 2.63040043 -4 2 C-2.68 2 -1.36 2 0 2 C0 1.34 0 0.68 0 0 Z " fill="#400C0B" transform="translate(116,157)"/>
<path d="M0 0 C1.32 0.33 2.64 0.66 4 1 C4.33 2.32 4.66 3.64 5 5 C3.68 4.67 2.36 4.34 1 4 C0.67 2.68 0.34 1.36 0 0 Z " fill="#783A35" transform="translate(167,152)"/>
<path d="M0 0 C1.4606285 2.64738916 2 3.89448334 2 7 C1.34 7.99 0.68 8.98 0 10 C-1.125 3.375 -1.125 3.375 0 0 Z " fill="#522726" transform="translate(55,78)"/>
<path d="M0 0 C0.66 0 1.32 0 2 0 C1.67 2.64 1.34 5.28 1 8 C0.34 8 -0.32 8 -1 8 C-1.04241723 5.66705225 -1.04092937 3.33297433 -1 1 C-0.67 0.67 -0.34 0.34 0 0 Z " fill="#410806" transform="translate(33,78)"/>
</svg>
