<?xml version="1.0" encoding="UTF-8"?>
<svg version="1.1" xmlns="http://www.w3.org/2000/svg" width="268" height="167">
<path d="M0 0 C0.495 1.485 0.495 1.485 1 3 C3.46522911 3.73994104 3.46522911 3.73994104 6.4375 4.1875 C13.53641423 5.80433456 17.75771284 9.09650011 23 14 C24.01320312 14.87785156 24.01320312 14.87785156 25.046875 15.7734375 C36.60197493 26.35790904 45.23188202 41.64952756 48 57 C50.31 57.33 52.62 57.66 55 58 C55.33 57.34 55.66 56.68 56 56 C66.21833738 55.20302661 76.43937139 54.82530927 86.6875 54.6875 C87.80946777 54.65785156 88.93143555 54.62820312 90.08740234 54.59765625 C96.3852147 54.55205435 100.2207607 54.74183619 105 59 C107.6255193 61.6255193 106.3179659 68.86482744 106.35009766 72.61816406 C106.36661753 74.03239443 106.39385597 75.44654266 106.43212891 76.86035156 C106.48711831 78.90213194 106.50880445 80.94195219 106.5234375 82.984375 C106.54325684 84.20866211 106.56307617 85.43294922 106.58349609 86.69433594 C105.84086283 90.90155534 104.25464701 92.33326154 101 95 C98.71368506 96.14315747 97.45652594 96.12112732 94.91748047 96.11352539 C93.65639969 96.11341209 93.65639969 96.11341209 92.36984253 96.11329651 C91.00727829 96.10555458 91.00727829 96.10555458 89.6171875 96.09765625 C88.68778351 96.0962413 87.75837952 96.09482635 86.80081177 96.09336853 C83.82550876 96.08776053 80.85028036 96.07520668 77.875 96.0625 C75.86067817 96.05748603 73.84635516 96.05292295 71.83203125 96.04882812 C66.88799198 96.0377885 61.94400865 96.02051849 57 96 C56.67 94.68 56.34 93.36 56 92 C52.535 92.99 52.535 92.99 49 94 C48.99742187 94.54785156 48.99484375 95.09570312 48.9921875 95.66015625 C48.11090884 113.72636871 36.75278256 129.95290501 24 142 C6.10466076 157.43354654 -11.85151246 161.95736057 -35 161 C-39.06774973 160.58535196 -43.00138223 159.84436832 -47 159 C-48.34371926 158.75243726 -49.68747135 158.50505267 -51.03125 158.2578125 C-68.1914021 154.89670629 -82.70882815 146.11050417 -93.25 131.9375 C-95 129 -95 129 -95 127 C-95.66 126.67 -96.32 126.34 -97 126 C-99.46347078 123.38722796 -100.88308609 121.7466081 -101.4453125 118.15625 C-102.03996889 114.77257138 -103.11575885 112.65572312 -104.8125 109.6875 C-113.75005215 92.22158483 -114.58843843 71.72708162 -108.75830078 53.12304688 C-102.79750415 36.43435162 -102.79750415 36.43435162 -97 32 C-96.34 32 -95.68 32 -95 32 C-94.690625 30.72125 -94.38125 29.4425 -94.0625 28.125 C-89.83668581 15.56603819 -77.39839423 8.20500234 -66.3125 2.3125 C-46.51734295 -7.30414289 -20.2566157 -10.12830785 0 0 Z " fill="#0B161B" transform="translate(162,6)"/>
<path d="M0 0 C0.495 1.485 0.495 1.485 1 3 C3.46522911 3.73994104 3.46522911 3.73994104 6.4375 4.1875 C13.53641423 5.80433456 17.75771284 9.09650011 23 14 C24.01320312 14.87785156 24.01320312 14.87785156 25.046875 15.7734375 C36.60197493 26.35790904 45.23188202 41.64952756 48 57 C50.31 57.33 52.62 57.66 55 58 C55.33 57.34 55.66 56.68 56 56 C66.21833738 55.20302661 76.43937139 54.82530927 86.6875 54.6875 C87.80946777 54.65785156 88.93143555 54.62820312 90.08740234 54.59765625 C96.3852147 54.55205435 100.2207607 54.74183619 105 59 C107.42390039 61.42390039 106.17322421 67.21922115 106.18554688 70.60546875 C106.18546631 71.30591309 106.18538574 72.00635742 106.18530273 72.72802734 C106.18748389 74.85925415 106.20562102 76.989959 106.22460938 79.12109375 C106.22754433 80.47395656 106.22952844 81.82682183 106.23046875 83.1796875 C106.23457764 84.41444824 106.23868652 85.64920898 106.24291992 86.92138672 C106 90 106 90 104 93 C102.68 93 101.36 93 100 93 C100.50603992 90.83125748 100.99983813 89.00032373 102 87 C102.66 87 103.32 87 104 87 C103.88648483 85.18674449 103.75887039 83.37436643 103.625 81.5625 C103.52058594 80.04849609 103.52058594 80.04849609 103.4140625 78.50390625 C103.27742187 77.67761719 103.14078125 76.85132812 103 76 C100.68374665 74.84187333 99.40383003 74.89022077 96.82910156 74.91821289 C95.96770569 74.9247438 95.10630981 74.93127472 94.21881104 74.93800354 C93.28550964 74.94943893 92.35220825 74.96087433 91.390625 74.97265625 C89.41927262 74.98530798 87.44791836 74.99766853 85.4765625 75.00976562 C82.36484933 75.03454354 79.25323371 75.0624652 76.14160156 75.09594727 C73.14126985 75.12623678 70.14106131 75.14395624 67.140625 75.16015625 C65.7528183 75.18034569 65.7528183 75.18034569 64.3369751 75.20094299 C59.47358319 75.21974404 55.56606576 74.91037935 51 73 C50.67 73.66 50.34 74.32 50 75 C47.68690295 74.88658363 45.37449815 74.75896193 43.0625 74.625 C41.13083984 74.52058594 41.13083984 74.52058594 39.16015625 74.4140625 C38.11730469 74.27742188 37.07445312 74.14078125 36 74 C35.67 73.34 35.34 72.68 35 72 C28.07 72 21.14 72 14 72 C14 68.7 14 65.4 14 62 C15.98 62 17.96 62 20 62 C20 61.34 20 60.68 20 60 C19.01 59.67 18.02 59.34 17 59 C17.99 58.01 17.99 58.01 19 57 C18.10667969 56.18595703 18.10667969 56.18595703 17.1953125 55.35546875 C14.83009984 52.81770499 13.47288926 50.38381982 11.875 47.3125 C6.21192049 37.44118731 -1.05864624 31.83315262 -11.53125 27.58203125 C-14.76609116 25.50907133 -14.95127351 23.59757993 -16 20 C-20.23582327 19.95061372 -24.47149465 19.91428737 -28.70751953 19.89013672 C-30.14895547 19.88007037 -31.59037095 19.8664162 -33.03173828 19.84912109 C-35.10193934 19.82489988 -37.17187076 19.81352359 -39.2421875 19.8046875 C-40.4885498 19.79421387 -41.73491211 19.78374023 -43.01904297 19.77294922 C-46.11771631 19.68347508 -46.11771631 19.68347508 -48 22 C-48.08507812 22.63679688 -48.17015625 23.27359375 -48.2578125 23.9296875 C-49 26 -49 26 -51.5546875 27.5703125 C-52.65039062 28.08335938 -53.74609375 28.59640625 -54.875 29.125 C-65.68099267 34.5496831 -73.53448955 42.161224 -79 53 C-79.66 52.34 -80.32 51.68 -81 51 C-83.66509949 51 -84.74874408 51.93349453 -86.9375 53.4375 C-87.97197266 54.11619141 -87.97197266 54.11619141 -89.02734375 54.80859375 C-95.05714194 61.50704283 -94.37831304 70.58355131 -94.1875 79.0625 C-94.17396484 80.21427734 -94.16042969 81.36605469 -94.14648438 82.55273438 C-94.11142725 85.36898972 -94.06228856 88.18423765 -94 91 C-93.34 91 -92.68 91 -92 91 C-92.33 92.98 -92.66 94.96 -93 97 C-93.66 97 -94.32 97 -95 97 C-97.14329894 90.02577329 -97.30022257 83.51553192 -97.25 76.25 C-97.25773437 75.1465625 -97.26546875 74.043125 -97.2734375 72.90625 C-97.25763978 66.17642113 -96.64138864 59.86048587 -95.33105469 53.25683594 C-95.22180664 52.51208008 -95.11255859 51.76732422 -95 51 C-95.495 50.505 -95.495 50.505 -96 50 C-98.7685539 54.01711743 -99.86358659 57.88496192 -100.6875 62.625 C-100.81560059 63.32778076 -100.94370117 64.03056152 -101.07568359 64.75463867 C-101.94241555 69.82600424 -102.24442778 74.71295524 -102.0078125 79.86328125 C-102 82 -102 82 -103 85 C-102.94617539 86.33485023 -102.86094336 87.66867968 -102.75 89 C-102.7109375 91.12109375 -102.7109375 91.12109375 -103 93 C-105.375 95.0625 -105.375 95.0625 -108 96 C-108.66 95.67 -109.32 95.34 -110 95 C-115.98207943 76.72142397 -111.31642888 56.7046734 -102.90625 40.08740234 C-99.71845008 34.07926777 -99.71845008 34.07926777 -97 32 C-96.34 32 -95.68 32 -95 32 C-94.690625 30.72125 -94.38125 29.4425 -94.0625 28.125 C-89.83668581 15.56603819 -77.39839423 8.20500234 -66.3125 2.3125 C-46.51734295 -7.30414289 -20.2566157 -10.12830785 0 0 Z " fill="#122836" transform="translate(162,6)"/>
<path d="M0 0 C0 0.66 0 1.32 0 2 C2.475 2.495 2.475 2.495 5 3 C5 3.66 5 4.32 5 5 C6.32 5.33 7.64 5.66 9 6 C7.2092015 6.50310058 5.41733089 7.00238628 3.625 7.5 C2.12839844 7.91765625 2.12839844 7.91765625 0.6015625 8.34375 C-2 9 -2 9 -4 9 C-4.2784375 9.8353125 -4.2784375 9.8353125 -4.5625 10.6875 C-6.64110826 14.03134807 -9.60813602 16.04807828 -13 18 C-13.66 18 -14.32 18 -15 18 C-17.83107962 20.83107962 -18.72457812 23.89831249 -19.6875 27.75 C-21.3101096 31.76789043 -23.68731959 34.6340084 -26.44140625 37.94921875 C-28.18314854 40.01233928 -28.18314854 40.01233928 -29 43 C-31.26754869 45.054966 -33.64475373 46.77438746 -36.2265625 48.4140625 C-41.38131505 51.68825386 -45.03975697 54.06506817 -46.55639648 60.2800293 C-47.03628091 63.22245768 -47.11294209 65.97629206 -47.09765625 68.95703125 C-47.09443359 70.06884766 -47.09121094 71.18066406 -47.08789062 72.32617188 C-47.07951172 73.47666016 -47.07113281 74.62714844 -47.0625 75.8125 C-47.05798828 76.98232422 -47.05347656 78.15214844 -47.04882812 79.35742188 C-47.0370693 82.23833358 -47.02063426 85.11914044 -47 88 C-46.34 88 -45.68 88 -45 88 C-45.33 89.98 -45.66 91.96 -46 94 C-46.66 94 -47.32 94 -48 94 C-50.14329894 87.02577329 -50.30022257 80.51553192 -50.25 73.25 C-50.25773437 72.1465625 -50.26546875 71.043125 -50.2734375 69.90625 C-50.25763978 63.17642113 -49.64138864 56.86048587 -48.33105469 50.25683594 C-48.16718262 49.13970215 -48.16718262 49.13970215 -48 48 C-48.33 47.67 -48.66 47.34 -49 47 C-50.32 48.32 -51.64 49.64 -53 51 C-53.21567651 38.70643879 -44.34421238 27.66131205 -36.171875 19.13671875 C-35.45515625 18.43160156 -34.7384375 17.72648437 -34 17 C-33.36578125 16.36707031 -32.7315625 15.73414063 -32.078125 15.08203125 C-23.47713832 7.03193422 -12.07069679 0 0 0 Z " fill="#5F5E48" transform="translate(115,9)"/>
<path d="M0 0 C-1.32 0.33 -2.64 0.66 -4 1 C-4 1.66 -4 2.32 -4 3 C-2.02 3.66 -0.04 4.32 2 5 C1.67 5.66 1.34 6.32 1 7 C-1.64 7 -4.28 7 -7 7 C-6.505 8.98 -6.505 8.98 -6 11 C-5.35675781 10.97679687 -4.71351562 10.95359375 -4.05078125 10.9296875 C7.32248911 10.70254658 17.63872442 12.18188991 28 17 C27.67 17.66 27.34 18.32 27 19 C26.23300781 18.72285156 25.46601563 18.44570313 24.67578125 18.16015625 C14.47657005 14.83149383 4.82442569 14.29700598 -5.84033203 14.1418457 C-8.0039272 13.99974206 -9.91844783 13.59206887 -12 13 C-12 12.34 -12 11.68 -12 11 C-13.65 10.67 -15.3 10.34 -17 10 C-17 9.34 -17 8.68 -17 8 C-29.76222878 10.86396473 -40.30015891 16.19743289 -50 25 C-50.81307617 25.73645752 -50.81307617 25.73645752 -51.64257812 26.48779297 C-56.32613041 30.92126511 -59.62154855 35.70640954 -62.875 41.25 C-63.3596875 42.05179688 -63.844375 42.85359375 -64.34375 43.6796875 C-67.98346824 49.52780413 -67.98346824 49.52780413 -68.875 56.25 C-68.79796479 60.43301202 -69.61163256 64.23182154 -70.5 68.3125 C-71.7054173 73.95092393 -72.26931794 79.07500528 -72.0078125 84.828125 C-72 87 -72 87 -73 90 C-72.94617539 91.33485023 -72.86094336 92.66867968 -72.75 94 C-72.7109375 96.12109375 -72.7109375 96.12109375 -73 98 C-75.375 100.0625 -75.375 100.0625 -78 101 C-78.66 100.67 -79.32 100.34 -80 100 C-85.98207943 81.72142397 -81.31642888 61.7046734 -72.90625 45.08740234 C-69.71845008 39.07926777 -69.71845008 39.07926777 -67 37 C-66.34 37 -65.68 37 -65 37 C-64.690625 35.72125 -64.38125 34.4425 -64.0625 33.125 C-59.81749841 20.50901396 -47.2479901 12.98886299 -36 7.25 C-24.12250173 1.43202821 -13.18311742 -0.09867603 0 0 Z " fill="#544932" transform="translate(132,1)"/>
<path d="M0 0 C3.58317958 -0.08720919 7.16608567 -0.14046112 10.75 -0.1875 C11.76578125 -0.21263672 12.7815625 -0.23777344 13.828125 -0.26367188 C14.8078125 -0.27333984 15.7875 -0.28300781 16.796875 -0.29296875 C17.69760742 -0.3086792 18.59833984 -0.32438965 19.52636719 -0.34057617 C22.48621721 0.06694364 23.85913449 0.94620467 26 3 C26 3.66 26 4.32 26 5 C26.66 5 27.32 5 28 5 C27.125 8.875 27.125 8.875 26 10 C25.8918421 11.36807645 25.84429829 12.74108297 25.82421875 14.11328125 C25.80037109 14.94923828 25.77652344 15.78519531 25.75195312 16.64648438 C25.70927347 18.41187007 25.67786673 20.17756733 25.65820312 21.94335938 C25.53525231 25.66905506 25.4001787 28.29215704 23.546875 31.5703125 C19.62773324 33.77032153 15.98389315 33.61948536 11.5625 33.5625 C10.71623047 33.58634766 9.86996094 33.61019531 8.99804688 33.63476562 C4.45991817 33.6241044 2.62122466 33.52438911 -0.95703125 30.50390625 C-1.63121094 29.67761719 -2.30539063 28.85132812 -3 28 C-4.3242287 27.63215869 -5.65613912 27.28797019 -7 27 C-8.93379717 21.19860848 -8.80752495 15.00874862 -8 9 C-6.09933169 5.92295897 -3.87963334 4.12001783 -1 2 C-0.67 1.34 -0.34 0.68 0 0 Z " fill="#14272F" transform="translate(120,63)"/>
<path d="M0 0 C1.93784265 0.14120714 3.87526955 0.28812873 5.8125 0.4375 C7.43091797 0.55931641 7.43091797 0.55931641 9.08203125 0.68359375 C12 1 12 1 15 2 C16.59719801 2.00422074 18.19502256 1.94422869 19.7890625 1.84375 C20.73136719 1.79089844 21.67367187 1.73804687 22.64453125 1.68359375 C24.60816204 1.56263615 26.57170694 1.44027486 28.53515625 1.31640625 C33.59237779 1.03506828 38.31065071 1.05603913 43.32519531 1.72412109 C49.8675957 2.39890317 56.48999562 2.39040814 63.0625 2.5625 C64.61133766 2.60577992 66.16016594 2.64939692 67.70898438 2.69335938 C71.47255932 2.79946066 75.23623195 2.90099536 79 3 C79.85856655 6.4342662 79.97591583 8.61682513 79 12 C72.98601473 12.04955115 66.97214914 12.08579131 60.95800781 12.10986328 C58.91339039 12.11990179 56.86878726 12.13353542 54.82421875 12.15087891 C51.88017239 12.1752217 48.93631637 12.18650478 45.9921875 12.1953125 C45.0825827 12.20563507 44.17297791 12.21595764 43.23580933 12.22659302 C38.41195461 12.22743991 34.53073798 11.88400471 30 10 C29.67 10.66 29.34 11.32 29 12 C26.68690295 11.88658363 24.37449815 11.75896193 22.0625 11.625 C20.77472656 11.55539063 19.48695313 11.48578125 18.16015625 11.4140625 C16.59587891 11.20910156 16.59587891 11.20910156 15 11 C14.67 10.34 14.34 9.68 14 9 C7.07 9 0.14 9 -7 9 C-7 6.69 -7 4.38 -7 2 C-4.69 2 -2.38 2 0 2 C0 1.34 0 0.68 0 0 Z " fill="#435B62" transform="translate(183,69)"/>
<path d="M0 0 C2.14576637 -0.02685938 4.29162645 -0.04633088 6.4375 -0.0625 C7.63246094 -0.07410156 8.82742187 -0.08570312 10.05859375 -0.09765625 C13 0 13 0 14 1 C14.04063832 2.66617115 14.042721 4.33388095 14 6 C14.78375 6.20625 15.5675 6.4125 16.375 6.625 C29.80440477 11.71891215 37.66498978 20.31072421 44 33 C44 33.66 44 34.32 44 35 C45.32 35.66 46.64 36.32 48 37 C47.34 37.66 46.68 38.32 46 39 C46.99 39.495 46.99 39.495 48 40 C47.505 40.99 47.505 40.99 47 42 C44.03 41.505 44.03 41.505 41 41 C41 42.65 41 44.3 41 46 C39.79371992 43.66785852 38.8345262 41.50357861 38 39 C37.071875 38.95875 36.14375 38.9175 35.1875 38.875 C32 38 32 38 30.5 35.375 C30.005 34.26125 29.51 33.1475 29 32 C24.99231143 25.98172019 19.65145643 21.79394457 13 19 C8.11373269 18.18220887 3.32155084 18.11481143 -1.625 18.125 C-2.91535156 18.104375 -4.20570313 18.08375 -5.53515625 18.0625 C-8.69075751 18.01575035 -11.84412605 17.99552721 -15 18 C-15 17.01 -15 16.02 -15 15 C-7.08 15 0.84 15 9 15 C9 11.04 9 7.08 9 3 C6.03 3 3.06 3 0 3 C0 2.01 0 1.02 0 0 Z " fill="#010A10" transform="translate(134,26)"/>
<path d="M0 0 C0.99700928 -0.02187378 0.99700928 -0.02187378 2.01416016 -0.04418945 C3.97525554 -0.08692577 5.93691854 -0.1004415 7.8984375 -0.11328125 C9.04747559 -0.12786377 10.19651367 -0.14244629 11.38037109 -0.1574707 C15.60321257 0.45418993 18.60302963 2.29052963 21.625 5.3125 C21.84337957 9.5516328 21.81079091 13.79634051 21.81030273 18.04052734 C21.81248389 20.17175415 21.83062102 22.302459 21.84960938 24.43359375 C21.85254433 25.78645656 21.85452844 27.13932183 21.85546875 28.4921875 C21.85957764 29.72694824 21.86368652 30.96170898 21.86791992 32.23388672 C21.625 35.3125 21.625 35.3125 19.625 38.3125 C18.305 38.3125 16.985 38.3125 15.625 38.3125 C16.13103992 36.14375748 16.62483813 34.31282373 17.625 32.3125 C18.285 32.3125 18.945 32.3125 19.625 32.3125 C19.13 26.8675 19.13 26.8675 18.625 21.3125 C17.635 20.9825 16.645 20.6525 15.625 20.3125 C15.625 17.6725 15.625 15.0325 15.625 12.3125 C14.67246338 12.28744385 13.71992676 12.2623877 12.73852539 12.23657227 C9.16566133 12.14158186 5.59295083 12.04159452 2.02026367 11.94018555 C0.48123801 11.89717981 -1.05782491 11.85548471 -2.59692383 11.81518555 C-25.47375 11.21375 -25.47375 11.21375 -27.375 9.3125 C-27.51615161 6.64191149 -27.41747107 3.98817762 -27.375 1.3125 C-18.24668778 0.40266237 -9.1710906 0.0680348 0 0 Z " fill="#153048" transform="translate(246.375,60.6875)"/>
<path d="M0 0 C0 0.66 0 1.32 0 2 C2.475 2.495 2.475 2.495 5 3 C5 3.66 5 4.32 5 5 C6.32 5.33 7.64 5.66 9 6 C7.97261719 6.29132812 6.94523437 6.58265625 5.88671875 6.8828125 C-8.8982543 11.19837788 -25.10409953 17.86302851 -33 32 C-33.78375 32.763125 -34.5675 33.52625 -35.375 34.3125 C-38.54992738 37.56302089 -40.72153722 41.09267872 -43 45 C-45.35825856 40.28348287 -44.57881268 34.10254288 -44 29 C-42.55574819 25.69580767 -40.55412299 23.51036928 -38 21 C-37.11248047 20.00419922 -37.11248047 20.00419922 -36.20703125 18.98828125 C-27.32208014 9.37055067 -13.48746914 0 0 0 Z " fill="#AE9E6F" transform="translate(115,9)"/>
<path d="M0 0 C1.22823772 2.52872473 2 4.48258451 2 7.3125 C0.12485954 12.35193998 -3.27561499 16.54068575 -7.36328125 20 C-11.88717775 24.04048173 -14.15455472 27.15935962 -14.7265625 33.23828125 C-14.9722373 37.8293045 -14.9714635 42.40923684 -14.82397461 47.00390625 C-15 49 -15 49 -17 51 C-17.38218767 49.34385343 -17.71395102 47.67542976 -18 46 C-17.505 45.505 -17.505 45.505 -17 45 C-16.92674832 42.13732433 -16.90761795 39.299281 -16.9375 36.4375 C-16.94201172 35.63119141 -16.94652344 34.82488281 -16.95117188 33.99414062 C-16.96299482 31.99606244 -16.98093086 29.99802217 -17 28 C-19.97 27.67 -22.94 27.34 -26 27 C-27.35491713 22.46059612 -26.53395983 19.35685568 -25.1875 14.875 C-24.83042969 13.65554687 -24.47335938 12.43609375 -24.10546875 11.1796875 C-23 8 -23 8 -21 5 C-18.8984375 4.12109375 -18.8984375 4.12109375 -16.375 3.4375 C-15.48425781 3.19257812 -14.59351562 2.94765625 -13.67578125 2.6953125 C-12.35126953 2.35113281 -12.35126953 2.35113281 -11 2 C-10.23042969 1.79117188 -9.46085937 1.58234375 -8.66796875 1.3671875 C-5.70054358 0.58541686 -3.08085117 0 0 0 Z " fill="#463A24" transform="translate(118,44)"/>
<path d="M0 0 C1.98 0.99 3.96 1.98 6 3 C6 7.95 6 12.9 6 18 C4.35 18.66 2.7 19.32 1 20 C1 19.01 1 18.02 1 17 C-0.65 17 -2.3 17 -4 17 C-4 17.66 -4 18.32 -4 19 C-7 21 -7 21 -9 22 C-9.33 22.66 -9.66 23.32 -10 24 C-10 23.01 -10 22.02 -10 21 C-12.64 20.67 -15.28 20.34 -18 20 C-18.02717692 17.93757383 -18.0464758 15.87504297 -18.0625 13.8125 C-18.07410156 12.66394531 -18.08570313 11.51539062 -18.09765625 10.33203125 C-18.01192832 7.40699414 -17.67849023 4.83683709 -17 2 C-16.34 2 -15.68 2 -15 2 C-15 3.98 -15 5.96 -15 8 C-14.67 7.505 -14.34 7.01 -14 6.5 C-10.92391386 4.19293539 -7.72521439 4.60945333 -4 5 C-3.01 5.33 -2.02 5.66 -1 6 C-0.67 4.02 -0.34 2.04 0 0 Z " fill="#07111A" transform="translate(213,79)"/>
<path d="M0 0 C1.43691615 2.30970966 2.04619448 3.56040736 1.7578125 6.3046875 C1.54898438 7.15289062 1.34015625 8.00109375 1.125 8.875 C-0.46728607 16.52824597 -0.79762156 24.51270048 0.57421875 32.23046875 C1 35 1 35 0 38 C0.05382461 39.33485023 0.13905664 40.66867968 0.25 42 C0.2890625 44.12109375 0.2890625 44.12109375 0 46 C-2.375 48.0625 -2.375 48.0625 -5 49 C-5.66 48.67 -6.32 48.34 -7 48 C-11.61516161 33.8981173 -9.51813606 17.85122003 -5 4 C-3 2 -3 2 0 0 Z " fill="#2D2F29" transform="translate(59,53)"/>
<path d="M0 0 C-1.32 0.33 -2.64 0.66 -4 1 C-4 1.66 -4 2.32 -4 3 C-2.02 3.66 -0.04 4.32 2 5 C1.67 5.66 1.34 6.32 1 7 C-1.64 7 -4.28 7 -7 7 C-6.67 8.32 -6.34 9.64 -6 11 C-5.35675781 10.97679687 -4.71351562 10.95359375 -4.05078125 10.9296875 C7.32248911 10.70254658 17.63872442 12.18188991 28 17 C27.67 17.66 27.34 18.32 27 19 C26.23300781 18.72285156 25.46601563 18.44570313 24.67578125 18.16015625 C14.47657005 14.83149383 4.82442569 14.29700598 -5.84033203 14.1418457 C-8.0039272 13.99974206 -9.91844783 13.59206887 -12 13 C-12 12.34 -12 11.68 -12 11 C-14.475 10.505 -14.475 10.505 -17 10 C-17 9.34 -17 8.68 -17 8 C-18.73017508 8.45451184 -20.45909877 8.91378857 -22.1875 9.375 C-23.15042969 9.63023438 -24.11335938 9.88546875 -25.10546875 10.1484375 C-27.99006344 10.93807552 -27.99006344 10.93807552 -30.61328125 12.1015625 C-33 13 -33 13 -37 13 C-36.649375 12.38125 -36.29875 11.7625 -35.9375 11.125 C-35.628125 10.42375 -35.31875 9.7225 -35 9 C-35.33 8.34 -35.66 7.68 -36 7 C-33.91780951 6.18457569 -31.83420239 5.37276811 -29.75 4.5625 C-28.58984375 4.11003906 -27.4296875 3.65757812 -26.234375 3.19140625 C-21.58722999 1.47959559 -17.57478436 0.8009457 -12.625 0.4375 C-10.97371094 0.31181641 -10.97371094 0.31181641 -9.2890625 0.18359375 C-6.18403564 0.01027277 -3.10900593 -0.03287469 0 0 Z " fill="#1B2A33" transform="translate(132,1)"/>
<path d="M0 0 C0.721875 0.00257812 1.44375 0.00515625 2.1875 0.0078125 C2.909375 0.00523438 3.63125 0.00265625 4.375 0 C6.1875 0.1328125 6.1875 0.1328125 7.1875 1.1328125 C7.31465522 3.91544193 7.37271315 6.6622198 7.375 9.4453125 C7.38724609 10.21810547 7.39949219 10.99089844 7.41210938 11.78710938 C7.43026717 18.82628224 7.43026717 18.82628224 5.1875 22.1328125 C3.2075 22.1328125 1.2275 22.1328125 -0.8125 22.1328125 C-1.1425 23.1228125 -1.4725 24.1128125 -1.8125 25.1328125 C-2.1425 23.4828125 -2.4725 21.8328125 -2.8125 20.1328125 C-1.8225 20.1328125 -0.8325 20.1328125 0.1875 20.1328125 C0.1875 19.4728125 0.1875 18.8128125 0.1875 18.1328125 C-3.4425 18.1328125 -7.0725 18.1328125 -10.8125 18.1328125 C-12.68434371 14.38912508 -13.05249767 13.2927334 -12.9375 9.3828125 C-12.91945313 8.58359375 -12.90140625 7.784375 -12.8828125 6.9609375 C-12.85960938 6.35765625 -12.83640625 5.754375 -12.8125 5.1328125 C-11.74708984 4.71708984 -11.74708984 4.71708984 -10.66015625 4.29296875 C-9.28150391 3.74962891 -9.28150391 3.74962891 -7.875 3.1953125 C-6.95847656 2.83566406 -6.04195313 2.47601563 -5.09765625 2.10546875 C-0.18248934 0.01337206 -0.18248934 0.01337206 0 0 Z " fill="#301710" transform="translate(94.8125,70.8671875)"/>
<path d="M0 0 C-1.26257233 1.17560179 -2.53537084 2.34022865 -3.8125 3.5 C-4.87404297 4.47453125 -4.87404297 4.47453125 -5.95703125 5.46875 C-8 7 -8 7 -11 7 C-13.83107962 9.83107962 -14.72457812 12.89831249 -15.6875 16.75 C-17.3101096 20.76789043 -19.68731959 23.6340084 -22.44140625 26.94921875 C-24.18314854 29.01233928 -24.18314854 29.01233928 -25 32 C-29.67653404 36.23810897 -35.34164575 40.17082288 -41 43 C-40.8125 40.1875 -40.8125 40.1875 -40 37 C-37.75 35.375 -37.75 35.375 -35 34 C-32.15252929 31.91648485 -30.01534119 30.01928607 -27.8125 27.25 C-27.214375 26.5075 -26.61625 25.765 -26 25 C-25.34 25 -24.68 25 -24 25 C-23.731875 23.989375 -23.46375 22.97875 -23.1875 21.9375 C-22.10396423 18.14128247 -20.62936828 14.59818829 -19 11 C-18.78214844 10.360625 -18.56429687 9.72125 -18.33984375 9.0625 C-16.2976314 5.91880286 -13.26525498 4.45889229 -10.0625 2.6875 C-9.42892578 2.31560547 -8.79535156 1.94371094 -8.14257812 1.56054688 C-3.3823002 -1.1274334 -3.3823002 -1.1274334 0 0 Z M-43 43 C-42.34 43.33 -41.68 43.66 -41 44 C-41.32742187 45.051875 -41.65484375 46.10375 -41.9921875 47.1875 C-43.4648453 53.0781312 -43.21484654 58.96645929 -43.125 65 C-43.11597656 66.15628906 -43.10695313 67.31257813 -43.09765625 68.50390625 C-43.07424922 71.33615647 -43.04145995 74.16796619 -43 77 C-42.34 77 -41.68 77 -41 77 C-41.33 78.98 -41.66 80.96 -42 83 C-42.66 83 -43.32 83 -44 83 C-46.18174677 75.92453439 -46.33323253 69.24748823 -46.3125 61.875 C-46.33666992 60.14443359 -46.33666992 60.14443359 -46.36132812 58.37890625 C-46.36474185 52.45951163 -46.36009531 47.982516 -43 43 Z " fill="#4F5346" transform="translate(111,20)"/>
<path d="M0 0 C2.05952495 4.36134694 2.05952495 4.36134694 1.8125 7.01171875 C0.7239044 9.67563779 -0.5590984 10.19271422 -3.0625 11.5625 C-8.92295647 15.19711002 -12.28019872 20.30373754 -16 26 C-16.33 25.34 -16.66 24.68 -17 24 C-17.99 23.67 -18.98 23.34 -20 23 C-22 21 -22 21 -23 19 C-18.09330423 11.15875306 -10.34063223 0 0 0 Z " fill="#C7BC9A" transform="translate(118,44)"/>
<path d="M0 0 C0 0.66 0 1.32 0 2 C2.475 2.495 2.475 2.495 5 3 C5 3.66 5 4.32 5 5 C6.32 5.33 7.64 5.66 9 6 C7.71073008 6.36279456 6.41846728 6.71496698 5.125 7.0625 C4.40570313 7.25972656 3.68640625 7.45695312 2.9453125 7.66015625 C1 8 1 8 -1 7 C-3.69322914 7.89408091 -3.69322914 7.89408091 -6.6875 9.25 C-8.30785156 9.94802734 -8.30785156 9.94802734 -9.9609375 10.66015625 C-11.67535014 11.41599627 -13.38928278 12.17293417 -15.1015625 12.93359375 C-18.00390277 14.21247885 -20.80473009 15.23708445 -23.875 16 C-24.90625 16.33 -25.9375 16.66 -27 17 C-27.33 17.99 -27.66 18.98 -28 20 C-29.65 20 -31.3 20 -33 20 C-33 19.34 -33 18.68 -33 18 C-30.47926217 15.83936758 -27.83607921 13.87614874 -25.1875 11.875 C-24.1046875 10.946875 -24.1046875 10.946875 -23 10 C-23 9.34 -23 8.68 -23 8 C-20.81855776 6.84120336 -18.63096983 5.69812622 -16.4375 4.5625 C-15.82841797 4.23701172 -15.21933594 3.91152344 -14.59179688 3.57617188 C-9.83115535 1.13287967 -5.41966764 0 0 0 Z " fill="#74827B" transform="translate(115,9)"/>
<path d="M0 0 C1.32 0 2.64 0 4 0 C4 1.32 4 2.64 4 4 C3.34 4 2.68 4 2 4 C1.99742187 4.54785156 1.99484375 5.09570312 1.9921875 5.66015625 C1.11090884 23.72636871 -10.24721744 39.95290501 -23 52 C-32.14307144 59.88529442 -43.84561262 67.81907162 -56 70 C-58.25 69.56640625 -58.25 69.56640625 -60 69 C-56.12031897 66.98980257 -52.12472362 65.25400724 -48.125 63.5 C-47.43019531 63.19191406 -46.73539063 62.88382813 -46.01953125 62.56640625 C-42.065766 60.8315149 -38.12614834 59.29346343 -34 58 C-34 57.34 -34 56.68 -34 56 C-33.34 56 -32.68 56 -32 56 C-32 55.34 -32 54.68 -32 54 C-31.11183594 53.5978125 -30.22367188 53.195625 -29.30859375 52.78125 C-16.08372283 45.66136672 -8.25945893 30.48334017 -3 17 C-1.81918377 13.03139208 -0.83296413 9.05522012 0 5 C-1.32 4.34 -2.64 3.68 -4 3 C-2.68 2.67 -1.36 2.34 0 2 C0 1.34 0 0.68 0 0 Z " fill="#152B4B" transform="translate(209,96)"/>
<path d="M0 0 C0.33 0 0.66 0 1 0 C1 1.65 1 3.3 1 5 C2.051875 4.835 3.10375 4.67 4.1875 4.5 C10.10578512 3.74288605 16.04521179 3.91830321 22 4 C22.33 4.99 22.66 5.98 23 7 C23.99902344 6.98839844 24.99804688 6.97679688 26.02734375 6.96484375 C27.31769531 6.95582031 28.60804688 6.94679688 29.9375 6.9375 C31.22527344 6.92589844 32.51304687 6.91429688 33.83984375 6.90234375 C37 7 37 7 38 8 C38.07179964 9.51928038 38.08392007 11.04167482 38.0625 12.5625 C38.05347656 13.38878906 38.04445312 14.21507813 38.03515625 15.06640625 C38.02355469 15.70449219 38.01195312 16.34257813 38 17 C37.67 17 37.34 17 37 17 C37 15.35 37 13.7 37 12 C35.9275 12.020625 34.855 12.04125 33.75 12.0625 C30.85209576 12.0142016 28.71387859 11.86844115 26 11 C25.67 11.99 25.34 12.98 25 14 C24.34 14 23.68 14 23 14 C23 12.02 23 10.04 23 8 C22.34 8 21.68 8 21 8 C20.67 8.99 20.34 9.98 20 11 C18.00390625 11.66015625 18.00390625 11.66015625 15.5625 12.0625 C11.85836343 12.63171515 11.85836343 12.63171515 9 15 C8.67 13.02 8.34 11.04 8 9 C7.01 9.99 6.02 10.98 5 12 C4.01 11.67 3.02 11.34 2 11 C1.67 11.66 1.34 12.32 1 13 C-0.10228696 8.59085217 -0.07654536 4.51617599 0 0 Z " fill="#1F343C" transform="translate(175,73)"/>
<path d="M0 0 C9.9 0 19.8 0 30 0 C30 1.98 30 3.96 30 6 C27.56946479 8.43053521 26.21912391 8.28186065 22.89428711 8.328125 C21.83286499 8.32039063 21.83286499 8.32039063 20.75 8.3125 C20.01724854 8.31121094 19.28449707 8.30992188 18.52954102 8.30859375 C8.60011903 8.14380716 -1.20719844 6.54126973 -11 5 C-11 4.01 -11 3.02 -11 2 C-5.555 1.505 -5.555 1.505 0 1 C0 0.67 0 0.34 0 0 Z " fill="#0C2131" transform="translate(231,61)"/>
<path d="M0 0 C2.31 0.33 4.62 0.66 7 1 C7.02688151 2.64574566 7.04634123 4.29161413 7.0625 5.9375 C7.07410156 6.85402344 7.08570313 7.77054687 7.09765625 8.71484375 C7 11 7 11 6 12 C4.33382885 12.04063832 2.66611905 12.042721 1 12 C0.67 12.99 0.34 13.98 0 15 C0 14.01 0 13.02 0 12 C-4.23429756 13.31061591 -8.07407404 14.94356259 -12 17 C-12 12.71 -12 8.42 -12 4 C-9.02148438 3.65820312 -9.02148438 3.65820312 -6.04296875 3.31640625 C-3.80603607 3.02829265 -3.80603607 3.02829265 -1 2 C-0.67 1.34 -0.34 0.68 0 0 Z " fill="#32362E" transform="translate(167,70)"/>
<path d="M0 0 C5.03957164 1.67985721 6.60877355 6.4739629 9 11 C14.58343118 22.35155602 14.58343118 22.35155602 13 29 C11.02 29 9.04 29 7 29 C6.67386719 28.05898438 6.34773437 27.11796875 6.01171875 26.1484375 C5.57472656 24.90320313 5.13773438 23.65796875 4.6875 22.375 C4.25824219 21.14523438 3.82898438 19.91546875 3.38671875 18.6484375 C2.07006663 15.0007786 2.07006663 15.0007786 0.33203125 11.6640625 C-1 9 -1 9 -1 7 C-0.34 7 0.32 7 1 7 C0.67 4.69 0.34 2.38 0 0 Z " fill="#041B3C" transform="translate(195,34)"/>
<path d="M0 0 C1.27787472 2.55574944 1.26374745 4.16258786 1 7 C-0.2421875 8.88671875 -0.2421875 8.88671875 -1.875 10.6875 C-6.69216109 16.72031259 -7.1333362 23.06584901 -6.87109375 30.59375 C-7.1233341 35.30223657 -8.33007564 39.91733358 -9.34375 44.51171875 C-9.89925201 47.46447644 -10.1370482 50.0134914 -10 53 C-10.66 53 -11.32 53 -12 53 C-12.20563031 45.17462431 -12.09511427 37.85909293 -10.33984375 30.20703125 C-9.80209785 27.83216813 -9.80209785 27.83216813 -11 25 C-11.99 25.99 -12.98 26.98 -14 28 C-13.70007424 21.25167036 -11.00516686 15.42151393 -7 10 C-5.66859145 9.65905987 -4.33539548 9.32497354 -3 9 C-1.8624787 6.91965706 -1.8624787 6.91965706 -1.25 4.4375 C-1.00765625 3.61121094 -0.7653125 2.78492188 -0.515625 1.93359375 C-0.34546875 1.29550781 -0.1753125 0.65742188 0 0 Z " fill="#433D31" transform="translate(70,29)"/>
<path d="M0 0 C4.62 0 9.24 0 14 0 C14 0.33 14 0.66 14 1 C9.71 1 5.42 1 1 1 C1 1.99 1 2.98 1 4 C1.94101563 4.04898438 2.88203125 4.09796875 3.8515625 4.1484375 C5.09679687 4.22320312 6.34203125 4.29796875 7.625 4.375 C8.85476562 4.44460937 10.08453125 4.51421875 11.3515625 4.5859375 C15 5 15 5 17.75 6 C22.57236736 7.48380534 27.35557592 7.46955977 32.375 7.625 C33.39722656 7.66367188 34.41945312 7.70234375 35.47265625 7.7421875 C37.98159597 7.83597964 40.49053764 7.92167879 43 8 C43 8.66 43 9.32 43 10 C38.46509185 10.02493183 33.93022461 10.04296857 29.39526367 10.05493164 C27.85619409 10.05992496 26.31712916 10.06672194 24.77807617 10.07543945 C8.29994942 10.16636063 8.29994942 10.16636063 1 9 C0 8 0 8 -0.09765625 6.15234375 C-0.06510417 4.1015625 -0.03255208 2.05078125 0 0 Z " fill="#253C48" transform="translate(219,62)"/>
<path d="M0 0 C0 3.51700695 -0.64840346 4.22727278 -2.75 6.9375 C-3.30042969 7.64777344 -3.85085937 8.35804687 -4.41796875 9.08984375 C-6 11 -6 11 -8.0625 13 C-10.93763365 15.9678799 -12.9018259 19.45718144 -15 23 C-17.32955159 18.34089682 -16.53847909 12.05702105 -16 7 C-14.36123125 3.86921791 -12.143627 2.5718135 -9 1 C-7.46331135 0.77532169 -5.92031946 0.59203195 -4.375 0.4375 C-3.55773437 0.35371094 -2.74046875 0.26992188 -1.8984375 0.18359375 C-0.95871094 0.09271484 -0.95871094 0.09271484 0 0 Z " fill="#EBD99A" transform="translate(87,31)"/>
<path d="M0 0 C0.8041333 0.16371094 1.6082666 0.32742187 2.43676758 0.49609375 C6.66897278 1.09460499 10.74545512 1.10606216 15.01171875 1.0625 C15.8617598 1.05871338 16.71180084 1.05492676 17.58760071 1.05102539 C20.28762012 1.0388667 22.98752975 1.02022991 25.6875 1 C29.25390328 0.97343461 32.82025397 0.95344112 36.38671875 0.9375 C37.20548996 0.92920166 38.02426117 0.92090332 38.86784363 0.91235352 C42.17601754 0.89799803 44.83827937 0.94609312 48 2 C48 2.66 48 3.32 48 4 C44.7 3.67 41.4 3.34 38 3 C37.67 3.99 37.34 4.98 37 6 C35.63875 5.7215625 35.63875 5.7215625 34.25 5.4375 C31.27332338 5.03679353 29.78896366 5.1736404 27 6 C26.67 5.67 26.34 5.34 26 5 C24.08647154 4.87380104 22.16764977 4.82419299 20.25 4.8125 C19.20328125 4.79832031 18.1565625 4.78414063 17.078125 4.76953125 C13.97919323 5.00155787 11.79723986 5.68944133 9 7 C8.01 6.01 7.02 5.02 6 4 C5.67 4.66 5.34 5.32 5 6 C4.67 5.01 4.34 4.02 4 3 C1.99983534 1.79117904 1.99983534 1.79117904 0 1 C0 0.67 0 0.34 0 0 Z " fill="#1D323C" transform="translate(214,79)"/>
<path d="M0 0 C0.98484375 0.00902344 1.9696875 0.01804687 2.984375 0.02734375 C4.10585937 0.04474609 4.10585937 0.04474609 5.25 0.0625 C5.25 1.7125 5.25 3.3625 5.25 5.0625 C5.89324219 5.03929687 6.53648438 5.01609375 7.19921875 4.9921875 C18.57248911 4.76504658 28.88872442 6.24438991 39.25 11.0625 C38.92 11.7225 38.59 12.3825 38.25 13.0625 C37.48300781 12.78535156 36.71601563 12.50820313 35.92578125 12.22265625 C25.72657005 8.89399383 16.07442569 8.35950598 5.40966797 8.2043457 C3.2460728 8.06224206 1.33155217 7.65456887 -0.75 7.0625 C-0.75 6.4025 -0.75 5.7425 -0.75 5.0625 C-2.4 4.7325 -4.05 4.4025 -5.75 4.0625 C-5.75 3.4025 -5.75 2.7425 -5.75 2.0625 C-7.73 2.3925 -9.71 2.7225 -11.75 3.0625 C-8.30305607 -0.38444393 -4.70567242 -0.05601991 0 0 Z " fill="#50707B" transform="translate(120.75,6.9375)"/>
<path d="M0 0 C1.6406543 -0.05607422 1.6406543 -0.05607422 3.31445312 -0.11328125 C11.43054606 -0.20230604 11.43054606 -0.20230604 15.34765625 2.78515625 C15.95480469 3.63980469 16.56195313 4.49445313 17.1875 5.375 C18.70757842 7.14777259 18.70757842 7.14777259 20.1875 8.375 C21.1775 8.375 22.1675 8.375 23.1875 8.375 C23.1875 9.365 23.1875 10.355 23.1875 11.375 C21 11.6875 21 11.6875 18.1875 11.375 C15.5625 9 15.5625 9 13.1875 6.375 C9.95125324 4.21750216 8.84355934 4.09139512 5.08203125 3.9609375 C4.09912109 3.92226563 3.11621094 3.88359375 2.10351562 3.84375 C0.56727539 3.79734375 0.56727539 3.79734375 -1 3.75 C-2.03576172 3.71132813 -3.07152344 3.67265625 -4.13867188 3.6328125 C-6.69643622 3.53851704 -9.25419287 3.45291798 -11.8125 3.375 C-11.8125 4.035 -11.8125 4.695 -11.8125 5.375 C-13.1325 5.375 -14.4525 5.375 -15.8125 5.375 C-12.69483553 -1.52839989 -6.822489 0.08751881 0 0 Z M-19.8125 7.375 C-18.8225 7.87 -18.8225 7.87 -17.8125 8.375 C-18.8025 8.87 -18.8025 8.87 -19.8125 9.375 C-19.8125 8.715 -19.8125 8.055 -19.8125 7.375 Z " fill="#040D13" transform="translate(131.8125,59.625)"/>
<path d="M0 0 C1.79133978 -0.05391993 3.58313899 -0.09275571 5.375 -0.125 C6.37273437 -0.14820313 7.37046875 -0.17140625 8.3984375 -0.1953125 C11 0 11 0 13 2 C15.32275177 2.40047444 17.65739357 2.7397104 20 3 C20 3.99 20 4.98 20 6 C22.31 6.33 24.62 6.66 27 7 C27 7.33 27 7.66 27 8 C18.75 8 10.5 8 2 8 C0 3 0 3 0 0 Z " fill="#254753" transform="translate(118,44)"/>
<path d="M0 0 C0.86519257 0.24114784 0.86519257 0.24114784 1.74786377 0.48716736 C3.91316224 0.98022622 5.81923487 1.15498261 8.03417969 1.20532227 C9.20494049 1.2352401 9.20494049 1.2352401 10.39935303 1.26576233 C11.23178528 1.28247482 12.06421753 1.29918732 12.921875 1.31640625 C14.21185394 1.3475779 14.21185394 1.3475779 15.52789307 1.37937927 C18.26851598 1.44463739 21.00923275 1.50364917 23.75 1.5625 C25.6106867 1.60570781 27.47136398 1.64932282 29.33203125 1.69335938 C33.88792523 1.80029442 38.4439134 1.90162851 43 2 C43 2.99 43 3.98 43 5 C28.81 5 14.62 5 0 5 C0 3.35 0 1.7 0 0 Z " fill="#8BA19F" transform="translate(219,72)"/>
<path d="M0 0 C2 2 2 2 2.16015625 4.75 C2.12792969 5.8225 2.09570312 6.895 2.0625 8 C1.80201899 12.1560294 1.80201899 12.1560294 3 16 C2.44140625 17.9453125 2.44140625 17.9453125 1.5625 20.125 C1.27503906 20.84945312 0.98757812 21.57390625 0.69140625 22.3203125 C0.46324219 22.87460937 0.23507813 23.42890625 0 24 C-0.66 24 -1.32 24 -2 24 C-2.33 24.66 -2.66 25.32 -3 26 C-3 22.7 -3 19.4 -3 16 C-4.65 17.65 -6.3 19.3 -8 21 C-7.85868946 12.52136736 -4.55396501 7.0271366 0 0 Z " fill="#8A7C56" transform="translate(70,39)"/>
<path d="M0 0 C0.66 0.33 1.32 0.66 2 1 C1.19489512 2.13030411 0.38016933 3.25375154 -0.4375 4.375 C-0.97632812 5.12136719 -1.51515625 5.86773437 -2.0703125 6.63671875 C-4 9 -4 9 -6.3671875 11.01953125 C-10.90219444 15.04018436 -13.15538684 18.16820283 -13.7265625 24.23828125 C-13.9722373 28.8293045 -13.9714635 33.40923684 -13.82397461 38.00390625 C-14 40 -14 40 -16 42 C-16.38218767 40.34385343 -16.71395102 38.67542976 -17 37 C-16.505 36.505 -16.505 36.505 -16 36 C-16.09949838 33.90418311 -16.20192442 31.8084578 -16.3203125 29.71362305 C-16.71818586 20.9247663 -16.33984124 15.08960371 -10.3125 8.1796875 C-7.0716284 5.12494704 -3.77024829 2.3764597 0 0 Z " fill="#4A4C3F" transform="translate(117,53)"/>
<path d="M0 0 C0.66 1.32 1.32 2.64 2 4 C0.80375 4.28875 -0.3925 4.5775 -1.625 4.875 C-4.23612534 5.52086139 -6.70131718 6.24276364 -9.25 7.125 C-12 8 -12 8 -16 8 C-19.60248347 18.80996752 -19.60248347 18.80996752 -21 30 C-22.65 30 -24.3 30 -26 30 C-25.28671514 27.86014542 -24.5727941 25.7205364 -23.85546875 23.58203125 C-23.30378066 21.91689049 -22.76380256 20.24780199 -22.23828125 18.57421875 C-21.99464844 17.80722656 -21.75101562 17.04023437 -21.5 16.25 C-21.2834375 15.55390625 -21.066875 14.8578125 -20.84375 14.140625 C-18.80233794 8.96148699 -16.39120667 6.17367063 -11.6875 3.1875 C-10.76324219 2.58292969 -9.83898437 1.97835937 -8.88671875 1.35546875 C-5.66868183 -0.15557159 -3.51176086 -0.26454919 0 0 Z " fill="#1B2221" transform="translate(113,41)"/>
<path d="M0 0 C4.07103519 -0.0250466 8.14203946 -0.04302089 12.21313477 -0.05493164 C13.59302554 -0.05990624 14.97291121 -0.06668832 16.3527832 -0.07543945 C24.63093324 -0.12655771 32.77282454 0.03942285 41 1 C41 1.66 41 2.32 41 3 C27.47 3 13.94 3 0 3 C0 2.01 0 1.02 0 0 Z " fill="#593A31" transform="translate(220,98)"/>
<path d="M0 0 C1.93816735 0.1141866 3.87555099 0.24173423 5.8125 0.375 C6.89144531 0.44460937 7.97039062 0.51421875 9.08203125 0.5859375 C12 1 12 1 15 3 C14.67 3.99 14.34 4.98 14 6 C9.71 5.67 5.42 5.34 1 5 C1 5.99 1 6.98 1 8 C-1.70879335 9.35439668 -4.00933268 9.06501451 -7 9 C-7 6.69 -7 4.38 -7 2 C-4.69 2 -2.38 2 0 2 C0 1.34 0 0.68 0 0 Z " fill="#3D555B" transform="translate(183,69)"/>
<path d="M0 0 C3.3 0 6.6 0 10 0 C10 3.63 10 7.26 10 11 C3.06640625 11.09765625 3.06640625 11.09765625 1 11 C0 10 0 10 -0.09765625 7.71484375 C-0.06510417 5.14322917 -0.03255208 2.57161458 0 0 Z " fill="#182A31" transform="translate(133,30)"/>
<path d="M0 0 C1.23556641 0.01740234 1.23556641 0.01740234 2.49609375 0.03515625 C3.32238281 0.04417969 4.14867188 0.05320312 5 0.0625 C5.63808594 0.07410156 6.27617188 0.08570312 6.93359375 0.09765625 C6.96047526 1.74340191 6.97993498 3.38927038 6.99609375 5.03515625 C7.00769531 5.95167969 7.01929688 6.86820313 7.03125 7.8125 C6.93359375 10.09765625 6.93359375 10.09765625 5.93359375 11.09765625 C4.12109375 11.23046875 4.12109375 11.23046875 1.93359375 11.22265625 C1.21171875 11.22523438 0.48984375 11.2278125 -0.25390625 11.23046875 C-2.06640625 11.09765625 -2.06640625 11.09765625 -3.06640625 10.09765625 C-3.16431195 8.60027501 -3.19615489 7.09822733 -3.19140625 5.59765625 C-3.19398437 4.78296875 -3.1965625 3.96828125 -3.19921875 3.12890625 C-3.01779538 0.35419587 -2.78048479 0.13140287 0 0 Z " fill="#0E1B22" transform="translate(121.06640625,122.90234375)"/>
<path d="M0 0 C0.721875 0.00257812 1.44375 0.00515625 2.1875 0.0078125 C2.909375 0.00523438 3.63125 0.00265625 4.375 0 C6.1875 0.1328125 6.1875 0.1328125 7.1875 1.1328125 C7.2854057 2.63019374 7.31724864 4.13224142 7.3125 5.6328125 C7.31507812 6.4475 7.31765625 7.2621875 7.3203125 8.1015625 C7.1875 10.1328125 7.1875 10.1328125 6.1875 11.1328125 C4.66821962 11.20461214 3.14582518 11.21673257 1.625 11.1953125 C0.79871094 11.18628906 -0.02757813 11.17726563 -0.87890625 11.16796875 C-1.51699219 11.15636719 -2.15507813 11.14476563 -2.8125 11.1328125 C-2.83938151 9.48706684 -2.85884123 7.84119837 -2.875 6.1953125 C-2.88660156 5.27878906 -2.89820312 4.36226563 -2.91015625 3.41796875 C-2.79196538 0.65230237 -2.76200837 0.20238854 0 0 Z " fill="#C63310" transform="translate(86.8125,75.8671875)"/>
<path d="M0 0 C1.88671875 0.48046875 1.88671875 0.48046875 4.69921875 1.60546875 C5.02921875 2.26546875 5.35921875 2.92546875 5.69921875 3.60546875 C4.54164063 3.60804687 3.3840625 3.610625 2.19140625 3.61328125 C0.65230584 3.65082028 -0.88675592 3.68996808 -2.42578125 3.73046875 C-3.18632812 3.72789063 -3.946875 3.7253125 -4.73046875 3.72265625 C-9.20748174 3.87703601 -11.62866563 4.43335313 -14.85546875 7.66015625 C-15.66242188 8.63210937 -16.469375 9.6040625 -17.30078125 10.60546875 C-18.29078125 10.27546875 -19.28078125 9.94546875 -20.30078125 9.60546875 C-20.02376348 6.37359482 -19.25811101 4.5392563 -17.48828125 1.79296875 C-12.15689099 -1.86582849 -6.2030302 -1.0636775 0 0 Z " fill="#9B9F8C" transform="translate(134.30078125,64.39453125)"/>
<path d="M0 0 C0.99 0.33 1.98 0.66 3 1 C-6.2686332 9.91007872 -15.34132292 16.82607326 -27.4375 21.5 C-28.12416748 21.76780273 -28.81083496 22.03560547 -29.51831055 22.31152344 C-35.51958489 24.49542132 -35.51958489 24.49542132 -39 23 C-35.12031897 20.98980257 -31.12472362 19.25400724 -27.125 17.5 C-26.43019531 17.19191406 -25.73539063 16.88382813 -25.01953125 16.56640625 C-21.065766 14.8315149 -17.12614834 13.29346343 -13 12 C-13 11.34 -13 10.68 -13 10 C-12.34 10 -11.68 10 -11 10 C-11 9.34 -11 8.68 -11 8 C-10.113125 7.608125 -9.22625 7.21625 -8.3125 6.8125 C-4.87870392 4.93363045 -2.63458231 2.86704545 0 0 Z " fill="#31292E" transform="translate(188,142)"/>
<path d="M0 0 C1.23556641 0.01740234 1.23556641 0.01740234 2.49609375 0.03515625 C3.32238281 0.04417969 4.14867187 0.05320312 5 0.0625 C5.63808594 0.07410156 6.27617187 0.08570312 6.93359375 0.09765625 C7.05859375 7.72265625 7.05859375 7.72265625 5.93359375 11.09765625 C3.29359375 11.09765625 0.65359375 11.09765625 -2.06640625 11.09765625 C-3.69292147 7.84462581 -3.18093781 4.70540023 -3.06640625 1.09765625 C-2.06640625 0.09765625 -2.06640625 0.09765625 0 0 Z " fill="#0D1C23" transform="translate(136.06640625,122.90234375)"/>
<path d="M0 0 C0.83796731 4.65537393 1.0161692 8.37078475 0 13 C-5.75 13.125 -5.75 13.125 -8 12 C-8 8.37 -8 4.74 -8 1 C-5.07175348 0.02391783 -3.04386724 -0.08226668 0 0 Z " fill="#051019" transform="translate(182,84)"/>
<path d="M0 0 C3.3 0.33 6.6 0.66 10 1 C10 4.3 10 7.6 10 11 C3.06640625 11.09765625 3.06640625 11.09765625 1 11 C0 10 0 10 -0.09765625 7.71484375 C-0.06510417 5.14322917 -0.03255208 2.57161458 0 0 Z " fill="#233339" transform="translate(118,30)"/>
<path d="M0 0 C3.4009901 4.53465347 3.4009901 4.53465347 3.3125 9 C3.30863281 9.845625 3.30476563 10.69125 3.30078125 11.5625 C2.98576274 14.11537729 2.28396996 15.79013935 1 18 C-0.98 18 -2.96 18 -5 18 C-5.33 18.99 -5.66 19.98 -6 21 C-6.33 19.35 -6.66 17.7 -7 16 C-6.01 16 -5.02 16 -4 16 C-4 15.34 -4 14.68 -4 14 C-7.63 14 -11.26 14 -15 14 C-15 13.34 -15 12.68 -15 12 C-12.85473901 11.80606125 -10.70876323 11.62001324 -8.5625 11.4375 C-6.77005859 11.28087891 -6.77005859 11.28087891 -4.94140625 11.12109375 C-3.97074219 11.08113281 -3.00007813 11.04117188 -2 11 C-1.67 11.33 -1.34 11.66 -1 12 C-0.67 8.04 -0.34 4.08 0 0 Z " fill="#251B15" transform="translate(99,75)"/>
<path d="M0 0 C1.39456452 0.00667256 2.78911118 0.01863093 4.18359375 0.03515625 C4.89451172 0.03966797 5.60542969 0.04417969 6.33789062 0.04882812 C8.09899388 0.06064761 9.86005411 0.07858362 11.62109375 0.09765625 C11.62109375 0.75765625 11.62109375 1.41765625 11.62109375 2.09765625 C12.28109375 2.09765625 12.94109375 2.09765625 13.62109375 2.09765625 C13.62109375 4.07765625 13.62109375 6.05765625 13.62109375 8.09765625 C14.49507812 8.49597656 14.49507812 8.49597656 15.38671875 8.90234375 C17.68283603 10.13068621 19.42465393 11.50080564 21.37109375 13.22265625 C22.29148438 14.03089844 22.29148438 14.03089844 23.23046875 14.85546875 C23.689375 15.26539063 24.14828125 15.6753125 24.62109375 16.09765625 C24.29109375 16.75765625 23.96109375 17.41765625 23.62109375 18.09765625 C22.99460938 17.53175781 22.368125 16.96585938 21.72265625 16.3828125 C20.90539062 15.64933594 20.088125 14.91585937 19.24609375 14.16015625 C18.43398437 13.42925781 17.621875 12.69835937 16.78515625 11.9453125 C14.76185208 10.06776154 14.76185208 10.06776154 12.62109375 9.09765625 C12.62109375 8.43765625 12.62109375 7.77765625 12.62109375 7.09765625 C10.31109375 6.76765625 8.00109375 6.43765625 5.62109375 6.09765625 C5.62109375 5.10765625 5.62109375 4.11765625 5.62109375 3.09765625 C3.98140625 3.15953125 3.98140625 3.15953125 2.30859375 3.22265625 C-1.37890625 3.09765625 -1.37890625 3.09765625 -4.37890625 1.09765625 C-3.37890625 0.09765625 -3.37890625 0.09765625 0 0 Z " fill="#1B3440" transform="translate(132.37890625,43.90234375)"/>
<path d="M0 0 C0.66 0.99 1.32 1.98 2 3 C4.59270699 3.54475978 7.00451945 3.92400149 9.625 4.1875 C10.33140625 4.26935547 11.0378125 4.35121094 11.765625 4.43554688 C13.5090683 4.63580725 15.25440086 4.81949401 17 5 C17 5.66 17 6.32 17 7 C14.18780295 7.19384179 11.37545804 7.38036603 8.5625 7.5625 C7.35883789 7.64661133 7.35883789 7.64661133 6.13085938 7.73242188 C4.08937889 7.8616295 2.04453631 7.9351273 0 8 C-0.33 7.67 -0.66 7.34 -1 7 C-2.68183948 6.76712992 -4.3712416 6.58735834 -6.0625 6.4375 C-6.98160156 6.35371094 -7.90070313 6.26992187 -8.84765625 6.18359375 C-9.91306641 6.09271484 -9.91306641 6.09271484 -11 6 C-11 5.01 -11 4.02 -11 3 C-10.401875 2.87625 -9.80375 2.7525 -9.1875 2.625 C0 0 0 0 0 0 Z " fill="#10212A" transform="translate(196,64)"/>
<path d="M0 0 C1.94519531 0.23009766 1.94519531 0.23009766 3.9296875 0.46484375 C11.64125017 1.23600002 19.3825462 1.35861982 27.125 1.5625 C28.66928003 1.60579302 30.213551 1.64941033 31.7578125 1.69335938 C35.50511139 1.79930941 39.25251353 1.9008787 43 2 C43.495 4.475 43.495 4.475 44 7 C43.505 5.515 43.505 5.515 43 4 C41.25928223 4.01571045 41.25928223 4.01571045 39.48339844 4.03173828 C35.17467335 4.06795983 30.86596171 4.09090836 26.55712891 4.10986328 C24.69284806 4.11991593 22.82858297 4.13356005 20.96435547 4.15087891 C18.28348909 4.17515953 15.60283134 4.18649047 12.921875 4.1953125 C12.08944275 4.20563507 11.2570105 4.21595764 10.39935303 4.22659302 C3.25330764 4.22797609 3.25330764 4.22797609 0 2 C0 1.34 0 0.68 0 0 Z " fill="#4E6A72" transform="translate(219,70)"/>
<path d="M0 0 C0.33 0 0.66 0 1 0 C1 1.65 1 3.3 1 5 C2.093125 4.814375 3.18625 4.62875 4.3125 4.4375 C9.60695693 3.75311778 14.72481308 4.36969274 20 5 C20 5.99 20 6.98 20 8 C18.18885568 8.36103536 16.37603177 8.71365504 14.5625 9.0625 C13.55316406 9.25972656 12.54382813 9.45695312 11.50390625 9.66015625 C10.67761719 9.77230469 9.85132813 9.88445312 9 10 C8.67 9.67 8.34 9.34 8 9 C7.01 9.99 6.02 10.98 5 12 C4.01 11.67 3.02 11.34 2 11 C1.67 11.66 1.34 12.32 1 13 C-0.10228696 8.59085217 -0.07654536 4.51617599 0 0 Z " fill="#2C4249" transform="translate(175,73)"/>
<path d="M0 0 C1.98 0 3.96 0 6 0 C6.33 1.98 6.66 3.96 7 6 C4.69 5.67 2.38 5.34 0 5 C-0.33 5.99 -0.66 6.98 -1 8 C-3.75078884 8.91692961 -5.35948913 9.10886083 -8.1875 9.0625 C-10.0746875 9.0315625 -10.0746875 9.0315625 -12 9 C-12 7.35 -12 5.7 -12 4 C-8.04 4 -4.08 4 0 4 C0 2.68 0 1.36 0 0 Z " fill="#202A2C" transform="translate(167,65)"/>
<path d="M0 0 C-1.32 0.33 -2.64 0.66 -4 1 C-4 1.66 -4 2.32 -4 3 C-2.02 3.66 -0.04 4.32 2 5 C1.67 5.66 1.34 6.32 1 7 C-5.27 7 -11.54 7 -18 7 C-18.33 6.01 -18.66 5.02 -19 4 C-13.21032448 -0.16132928 -6.89065247 -0.17226631 0 0 Z " fill="#192F3C" transform="translate(132,1)"/>
<path d="M0 0 C7.875 0.875 7.875 0.875 9 2 C10.34747084 2.23075082 11.70377565 2.41153063 13.0625 2.5625 C14.361875 2.706875 15.66125 2.85125 17 3 C14.41212273 5.58787727 12.57992139 5.62709152 9 6 C8.34 5.67 7.68 5.34 7 5 C4.17085464 5.92554648 4.17085464 5.92554648 1.0625 7.3125 C0.00160156 7.76238281 -1.05929688 8.21226563 -2.15234375 8.67578125 C-5.10938338 9.96304701 -5.10938338 9.96304701 -8 12 C-10.1875 11.625 -10.1875 11.625 -12 11 C-9.98928293 9.42015087 -8.11803264 8.05733014 -5.8125 6.9375 C-3.82107843 6.13297839 -3.82107843 6.13297839 -3 4 C-2.01 3.34 -1.02 2.68 0 2 C0 1.34 0 0.68 0 0 Z " fill="#799598" transform="translate(107,11)"/>
<path d="M0 0 C1.984375 1.515625 1.984375 1.515625 4 4 C4.2911521 6.73682971 4.38322418 9.03940039 4.25 11.75 C4.23195313 12.44738281 4.21390625 13.14476563 4.1953125 13.86328125 C4.14838554 15.57611539 4.07664605 17.28823824 4 19 C2.68 19 1.36 19 0 19 C-1.19825457 15.40523628 -1.14608744 12.11450601 -1.125 8.375 C-1.12886719 7.68148437 -1.13273437 6.98796875 -1.13671875 6.2734375 C-1.12666646 1.12666646 -1.12666646 1.12666646 0 0 Z " fill="#212C2C" transform="translate(113,71)"/>
<path d="M0 0 C0.33 0.66 0.66 1.32 1 2 C-1.97 6.455 -1.97 6.455 -5 11 C-5.33 10.34 -5.66 9.68 -6 9 C-6.99 8.67 -7.98 8.34 -9 8 C-11 6 -11 6 -12 4 C-8.41084094 -0.78554541 -5.58334594 -0.37222306 0 0 Z " fill="#D0B77F" transform="translate(107,59)"/>
<path d="M0 0 C0.66 0.33 1.32 0.66 2 1 C2 10.9 2 20.8 2 31 C0.35 31.33 -1.3 31.66 -3 32 C-2.49396008 29.83125748 -2.00016187 28.00032373 -1 26 C-0.34 26 0.32 26 1 26 C0.85962479 24.18706911 0.71255111 22.3746557 0.5625 20.5625 C0.44068359 19.04849609 0.44068359 19.04849609 0.31640625 17.50390625 C0.26788532 15.06359221 0.26788532 15.06359221 -1 14 C-1.09919077 12.39836084 -1.12969898 10.79220082 -1.125 9.1875 C-1.12757813 8.31480469 -1.13015625 7.44210938 -1.1328125 6.54296875 C-1.01114834 4.21345785 -0.65514709 2.23061985 0 0 Z " fill="#0B295B" transform="translate(265,67)"/>
<path d="M0 0 C0.70125 0.144375 1.4025 0.28875 2.125 0.4375 C7.27755341 1.44560828 12.23796212 2.1412654 17.4921875 2.31640625 C18.69101563 2.35830078 19.88984375 2.40019531 21.125 2.44335938 C22.98125 2.50233398 22.98125 2.50233398 24.875 2.5625 C26.13570312 2.60568359 27.39640625 2.64886719 28.6953125 2.69335938 C31.79677423 2.79909102 34.89831145 2.90118571 38 3 C37.67 3.99 37.34 4.98 37 6 C35.63875 5.7215625 35.63875 5.7215625 34.25 5.4375 C31.27332338 5.03679353 29.78896366 5.1736404 27 6 C26.67 5.67 26.34 5.34 26 5 C24.08647154 4.87380104 22.16764977 4.82419299 20.25 4.8125 C19.20328125 4.79832031 18.1565625 4.78414063 17.078125 4.76953125 C13.97919323 5.00155787 11.79723986 5.68944133 9 7 C8.01 6.01 7.02 5.02 6 4 C5.67 4.66 5.34 5.32 5 6 C4.67 5.01 4.34 4.02 4 3 C1.99983534 1.79117904 1.99983534 1.79117904 0 1 C0 0.67 0 0.34 0 0 Z " fill="#1C282D" transform="translate(214,79)"/>
<path d="M0 0 C-1.07347264 2.86703872 -2.22217965 5.49769216 -4 8 C-7.6875 9.3125 -7.6875 9.3125 -11 10 C-11.33 10.99 -11.66 11.98 -12 13 C-13.65 13 -15.3 13 -17 13 C-17 12.34 -17 11.68 -17 11 C-14.47926217 8.83936758 -11.83607921 6.87614874 -9.1875 4.875 C-8.465625 4.25625 -7.74375 3.6375 -7 3 C-7 2.34 -7 1.68 -7 1 C-3.375 -1.125 -3.375 -1.125 0 0 Z " fill="#868367" transform="translate(99,16)"/>
<path d="M0 0 C0.515625 0.2475 1.03125 0.495 1.5625 0.75 C0.5725 2.07 -0.4175 3.39 -1.4375 4.75 C-0.4475 5.08 0.5425 5.41 1.5625 5.75 C0.17467515 6.5966034 -1.22319397 7.42675339 -2.625 8.25 C-3.40230469 8.7140625 -4.17960937 9.178125 -4.98046875 9.65625 C-7.67853386 10.85729647 -9.5181982 10.95741043 -12.4375 10.75 C-11.695 9.8528125 -11.695 9.8528125 -10.9375 8.9375 C-9.15473582 6.77970006 -9.15473582 6.77970006 -9.4375 3.75 C-3.0375 -0.31153846 -3.0375 -0.31153846 0 0 Z " fill="#414136" transform="translate(96.4375,9.25)"/>
<path d="M0 0 C1.23556641 0.01740234 1.23556641 0.01740234 2.49609375 0.03515625 C3.32238281 0.04417969 4.14867188 0.05320312 5 0.0625 C5.63808594 0.07410156 6.27617188 0.08570312 6.93359375 0.09765625 C6.60359375 0.75765625 6.27359375 1.41765625 5.93359375 2.09765625 C3.8671875 2.73046875 3.8671875 2.73046875 1.37109375 3.22265625 C0.13166016 3.47402344 0.13166016 3.47402344 -1.1328125 3.73046875 C-1.77089844 3.85164063 -2.40898438 3.9728125 -3.06640625 4.09765625 C-3.17597656 5.14566406 -3.28554687 6.19367187 -3.3984375 7.2734375 C-3.55791199 8.65242276 -3.71810591 10.03132496 -3.87890625 11.41015625 C-3.94916016 12.10044922 -4.01941406 12.79074219 -4.09179688 13.50195312 C-4.45694643 16.52539145 -4.71752089 18.65873596 -6.640625 21.078125 C-7.11113281 21.41457031 -7.58164063 21.75101563 -8.06640625 22.09765625 C-8.202003 19.5333711 -8.30073813 16.97630409 -8.37890625 14.41015625 C-8.42080078 13.68892578 -8.46269531 12.96769531 -8.50585938 12.22460938 C-8.60323843 7.95940668 -8.45487321 6.56517531 -5.609375 3.140625 C-4.77019531 2.46644531 -3.93101563 1.79226562 -3.06640625 1.09765625 C-2.06640625 0.09765625 -2.06640625 0.09765625 0 0 Z " fill="#E6C778" transform="translate(79.06640625,31.90234375)"/>
<path d="M0 0 C1.32 0 2.64 0 4 0 C4 1.32 4 2.64 4 4 C18.19 4 32.38 4 47 4 C47 4.33 47 4.66 47 5 C31.16 5 15.32 5 -1 5 C-0.67 3.35 -0.34 1.7 0 0 Z " fill="#5F7678" transform="translate(215,73)"/>
<path d="M0 0 C-0.96679688 0.42410156 -1.93359375 0.84820313 -2.9296875 1.28515625 C-10.88601861 4.84405561 -18.05759639 8.65765512 -25 14 C-26.33305795 15.00036707 -27.66630548 16.00048176 -29 17 C-29.125 14.3125 -29.125 14.3125 -28 11 C-24.90270626 8.84676657 -21.44813212 7.50233578 -18 6 C-15.84894319 4.92707578 -13.70305968 3.84371663 -11.5625 2.75 C-3.69290523 -1.23096841 -3.69290523 -1.23096841 0 0 Z " fill="#A2AFA9" transform="translate(117,16)"/>
<path d="M0 0 C-1.26257233 1.17560179 -2.53537084 2.34022865 -3.8125 3.5 C-4.87404297 4.47453125 -4.87404297 4.47453125 -5.95703125 5.46875 C-8 7 -8 7 -11 7 C-12.90685556 8.76256931 -12.90685556 8.76256931 -14.6875 11 C-15.31011719 11.7425 -15.93273437 12.485 -16.57421875 13.25 C-17.04472656 13.8275 -17.51523438 14.405 -18 15 C-18.80704922 12.74026218 -19.09324738 11.36648387 -18.49609375 9.01953125 C-16.26911268 6.01339754 -13.27533926 4.46446974 -10.0625 2.6875 C-9.42892578 2.31560547 -8.79535156 1.94371094 -8.14257812 1.56054688 C-3.3823002 -1.1274334 -3.3823002 -1.1274334 0 0 Z " fill="#445D5F" transform="translate(111,20)"/>
<path d="M0 0 C10.35487808 0.26585053 19.20228007 1.3929627 29 5 C29 5.99 29 6.98 29 8 C28.15179688 7.72285156 27.30359375 7.44570313 26.4296875 7.16015625 C17.767773 4.4854332 10.07780299 3.27592106 1 3 C0.67 2.01 0.34 1.02 0 0 Z " fill="#2A4B5B" transform="translate(130,12)"/>
<path d="M0 0 C0.66 0.33 1.32 0.66 2 1 C1.59910156 1.40347656 1.19820312 1.80695312 0.78515625 2.22265625 C-5.3309184 8.7547904 -9.56951869 16.28433186 -14 24 C-15.18821182 20.43536454 -14.47996435 19.08546099 -12.9609375 15.76171875 C-12 14 -12 14 -9.9375 11.4375 C-7.80186305 9.06437799 -7.80186305 9.06437799 -7.0625 5.8125 C-6 3 -6 3 -3.4375 1.6875 C-2.633125 1.460625 -1.82875 1.23375 -1 1 C-0.67 0.67 -0.34 0.34 0 0 Z " fill="#7A6031" transform="translate(78,27)"/>
<path d="M0 0 C2.31 0.33 4.62 0.66 7 1 C7 3.64 7 6.28 7 9 C4.69 9 2.38 9 0 9 C0 6.03 0 3.06 0 0 Z " fill="#4E6162" transform="translate(167,70)"/>
<path d="M0 0 C5.2959984 -0.23537771 10.06815595 0.47606697 15.265625 1.48828125 C18.83241638 2.15578078 22.39522637 2.59191242 26 3 C26 3.33 26 3.66 26 4 C17.75 4 9.5 4 1 4 C0.67 2.68 0.34 1.36 0 0 Z " fill="#446570" transform="translate(119,48)"/>
<path d="M0 0 C0.66 0 1.32 0 2 0 C1.67 0.99 1.34 1.98 1 3 C0.34 3 -0.32 3 -1 3 C-1.09796875 3.74636719 -1.1959375 4.49273437 -1.296875 5.26171875 C-2.08903024 8.34672332 -3.05756576 9.54857334 -5.25 11.8125 C-8.74263867 15.59319134 -11.43251167 19.55126446 -14 24 C-14.66 23.34 -15.32 22.68 -16 22 C-14.625 19.5 -14.625 19.5 -13 17 C-12.34 17 -11.68 17 -11 17 C-10.88068115 16.40670898 -10.7613623 15.81341797 -10.63842773 15.20214844 C-9.62162861 11.6948719 -7.28235055 9.08318934 -5.0625 6.25 C-4.60681641 5.64800781 -4.15113281 5.04601563 -3.68164062 4.42578125 C-2.50672508 2.90854039 -1.25830593 1.44883145 0 0 Z " fill="#31362F" transform="translate(97,35)"/>
<path d="M0 0 C1.64630328 0.14042877 3.29204179 0.28749329 4.9375 0.4375 C6.31228516 0.55931641 6.31228516 0.55931641 7.71484375 0.68359375 C10 1 10 1 11 2 C13.37338639 2.15971977 15.72118272 2.2592433 18.09765625 2.31640625 C18.80651474 2.33718735 19.51537323 2.35796844 20.24571228 2.37937927 C22.51787305 2.44494598 24.79015264 2.5037923 27.0625 2.5625 C28.59962183 2.60567849 30.1367315 2.64929255 31.67382812 2.69335938 C35.4490959 2.80063449 39.2244836 2.90188137 43 3 C43 3.33 43 3.66 43 4 C38.46509185 4.02493183 33.93022461 4.04296857 29.39526367 4.05493164 C27.85619409 4.05992496 26.31712916 4.06672194 24.77807617 4.07543945 C16.79274406 4.11950003 8.92367363 4.14483112 1 3 C0.67 2.01 0.34 1.02 0 0 Z " fill="#314E5B" transform="translate(219,68)"/>
<path d="M0 0 C3.05841168 2.24883212 5.58578894 4.59168875 8 7.5 C11.44470592 11.62481452 15.04925742 14.79966997 20 17 C20 17.66 20 18.32 20 19 C21.98 19.66 23.96 20.32 26 21 C25.67 21.66 25.34 22.32 25 23 C15.27476355 17.72354193 6.57617449 10.98743847 0 2 C0 1.34 0 0.68 0 0 Z " fill="#33231C" transform="translate(68,135)"/>
<path d="M0 0 C2.31 0 4.62 0 7 0 C7 0.99 7 1.98 7 3 C10.3 3.33 13.6 3.66 17 4 C17 4.33 17 4.66 17 5 C11.72 5 6.44 5 1 5 C0.67 3.35 0.34 1.7 0 0 Z M17 2 C18.32 2.33 19.64 2.66 21 3 C19.68 3.33 18.36 3.66 17 4 C17 3.34 17 2.68 17 2 Z " fill="#010B11" transform="translate(120,134)"/>
<path d="M0 0 C0.33 0.99 0.66 1.98 1 3 C0.2733313 3.57778198 0.2733313 3.57778198 -0.46801758 4.16723633 C-2.51075328 6.61103185 -2.42445595 8.16530538 -2.51171875 11.32421875 C-2.54716797 12.35224609 -2.58261719 13.38027344 -2.61914062 14.43945312 C-2.64169922 15.51130859 -2.66425781 16.58316406 -2.6875 17.6875 C-2.72166016 18.77095703 -2.75582031 19.85441406 -2.79101562 20.97070312 C-2.8735456 23.6470322 -2.94267937 26.32303159 -3 29 C-3.66 28.67 -4.32 28.34 -5 28 C-5.02720824 25.31243045 -5.0469388 22.62514202 -5.0625 19.9375 C-5.07087891 19.18533203 -5.07925781 18.43316406 -5.08789062 17.65820312 C-5.14117867 5.3486657 -5.14117867 5.3486657 -1.9375 1.5625 C-0.9784375 0.7890625 -0.9784375 0.7890625 0 0 Z " fill="#222D2E" transform="translate(79,64)"/>
<path d="M0 0 C1 2 1 2 0.375 4.8125 C-1.19505924 8.45218277 -2.99501978 10.44576681 -6 13 C-6.66 13 -7.32 13 -8 13 C-8 14.32 -8 15.64 -8 17 C-9.32 17.33 -10.64 17.66 -12 18 C-9.89799235 12.04431165 -7.08209933 7.72687285 -2 4 C-0.7483533 1.91665365 -0.7483533 1.91665365 0 0 Z " fill="#A08C59" transform="translate(85,35)"/>
<path d="M0 0 C2.06481661 2.85954819 1.98345675 4.13332736 1.5390625 7.71484375 C1.24771759 9.12521798 0.94256281 10.53279676 0.625 11.9375 C-0.77630486 18.40318026 -0.77630486 18.40318026 -1 25 C-1.66 25 -2.32 25 -3 25 C-3.35021655 16.11487651 -2.89452883 8.44237574 0 0 Z " fill="#555442" transform="translate(61,57)"/>
<path d="M0 0 C0.66 2.31 1.32 4.62 2 7 C-0.64036353 7.97791242 -1.87266632 8.03638105 -4.625 7.25 C-7 6 -7 6 -9 3 C-3.375 0 -3.375 0 0 0 Z " fill="#99A194" transform="translate(118,44)"/>
<path d="M0 0 C0.33 0.99 0.66 1.98 1 3 C-0.6171875 5.375 -0.6171875 5.375 -2.875 8 C-6.04016455 11.65239956 -6.04016455 11.65239956 -8 16 C-12.45714286 20 -12.45714286 20 -15 20 C-13.52739404 16.64488745 -11.6126089 14.30035297 -9.125 11.625 C-6.03822835 8.2301114 -3.4273978 4.88383648 -1 1 C-0.67 0.67 -0.34 0.34 0 0 Z M-17 20 C-16.34 20.33 -15.68 20.66 -15 21 C-15.99 21 -16.98 21 -18 21 C-17.67 20.67 -17.34 20.34 -17 20 Z " fill="#40483F" transform="translate(94,36)"/>
<path d="M0 0 C0.33 0 0.66 0 1 0 C1 2.97 1 5.94 1 9 C-1.31 9 -3.62 9 -6 9 C-6 6.69 -6 4.38 -6 2 C-4.02 2 -2.04 2 0 2 C0 1.34 0 0.68 0 0 Z " fill="#E60401" transform="translate(92,76)"/>
<path d="M0 0 C2 2 2 2 2.16015625 4.75 C2.12792969 5.8225 2.09570312 6.895 2.0625 8 C1.80201899 12.1560294 1.80201899 12.1560294 3 16 C2.22265625 17.7265625 2.22265625 17.7265625 1.0625 19.625 C0.0415625 21.295625 0.0415625 21.295625 -1 23 C-1.33 22.01 -1.66 21.02 -2 20 C-1.67 19.34 -1.34 18.68 -1 18 C-0.92934383 15.95944995 -0.91578024 13.91665743 -0.9375 11.875 C-0.94652344 10.77929688 -0.95554687 9.68359375 -0.96484375 8.5546875 C-0.97644531 7.71164063 -0.98804687 6.86859375 -1 6 C-1.66 6.66 -2.32 7.32 -3 8 C-2.45276317 4.62537285 -1.9451 2.91765 0 0 Z " fill="#AC9663" transform="translate(70,39)"/>
<path d="M0 0 C0.5775 0.309375 1.155 0.61875 1.75 0.9375 C3.85026522 1.92929191 5.74951737 2.47488739 8 3 C8.66 3.33 9.32 3.66 10 4 C8.85546875 5.48828125 8.85546875 5.48828125 7 7 C4.30078125 7.29296875 4.30078125 7.29296875 1.3125 7.1875 C0.31863281 7.16042969 -0.67523438 7.13335937 -1.69921875 7.10546875 C-2.45847656 7.07066406 -3.21773438 7.03585938 -4 7 C-2.92598892 4.08482708 -2.22189824 2.22189824 0 0 Z " fill="#E2C68B" transform="translate(102,53)"/>
<path d="M0 0 C0.33 0 0.66 0 1 0 C1.33 5.28 1.66 10.56 2 16 C2.66 16 3.32 16 4 16 C3.67 17.98 3.34 19.96 3 22 C2.34 22 1.68 22 1 22 C-1.19093165 15.01640536 -1.46087967 8.29904779 -1 1 C-0.67 0.67 -0.34 0.34 0 0 Z " fill="#404943" transform="translate(66,81)"/>
<path d="M0 0 C14.19 0 28.38 0 43 0 C43 0.99 43 1.98 43 3 C42.42320496 2.83923477 41.84640991 2.67846954 41.25213623 2.51283264 C39.08683776 2.01977378 37.18076513 1.84501739 34.96582031 1.79467773 C33.79505951 1.7647599 33.79505951 1.7647599 32.60064697 1.73423767 C31.76821472 1.71752518 30.93578247 1.70081268 30.078125 1.68359375 C29.21813904 1.66281265 28.35815308 1.64203156 27.47210693 1.62062073 C24.73148402 1.55536261 21.99076725 1.49635083 19.25 1.4375 C17.3893133 1.39429219 15.52863602 1.35067718 13.66796875 1.30664062 C9.11207477 1.19970558 4.5560866 1.09837149 0 1 C0 0.67 0 0.34 0 0 Z " fill="#3F555B" transform="translate(219,78)"/>
<path d="M0 0 C6.05106191 -0.21915315 11.30201576 -0.18220673 17 2 C17.33 2.66 17.66 3.32 18 4 C12.72 4 7.44 4 2 4 C1.34 2.68 0.68 1.36 0 0 Z " fill="#3E6775" transform="translate(122,64)"/>
<path d="M0 0 C1.48828125 1.14453125 1.48828125 1.14453125 3 3 C3.29296875 5.69921875 3.29296875 5.69921875 3.1875 8.6875 C3.16042969 9.68136719 3.13335937 10.67523438 3.10546875 11.69921875 C3.07066406 12.45847656 3.03585937 13.21773437 3 14 C2.34 14 1.68 14 1 14 C0.67 14.99 0.34 15.98 0 17 C-1.24687668 14.50624665 -1.40125881 12.3981939 -1.6875 9.625 C-1.79449219 8.66851562 -1.90148437 7.71203125 -2.01171875 6.7265625 C-1.99936983 3.85337956 -1.49335658 2.41454588 0 0 Z " fill="#051730" transform="translate(263,79)"/>
<path d="M0 0 C4.62 0 9.24 0 14 0 C15.35439668 2.70879335 15.06501451 5.00933268 15 8 C14.67 8 14.34 8 14 8 C14 6.35 14 4.7 14 3 C12.9275 3.020625 11.855 3.04125 10.75 3.0625 C7.85209576 3.0142016 5.71387859 2.86844115 3 2 C2.67 2.99 2.34 3.98 2 5 C1.34 5 0.68 5 0 5 C0 3.35 0 1.7 0 0 Z " fill="#142731" transform="translate(198,82)"/>
<path d="M0 0 C1 3 1 3 0 6 C-0.17528603 7.74729567 -0.31760275 9.49803196 -0.4375 11.25 C-0.80933356 15.76597855 -1.5698606 19.7095818 -3 24 C-3.33 24 -3.66 24 -4 24 C-4.19355213 16.34393782 -4.3479743 9.33741969 -2 2 C-1.34 2 -0.68 2 0 2 C0 1.34 0 0.68 0 0 Z " fill="#4B4130" transform="translate(55,58)"/>
<path d="M0 0 C1 2 1 2 0.36328125 4.34765625 C-0.15685547 5.69150391 -0.15685547 5.69150391 -0.6875 7.0625 C-1.02136719 7.96097656 -1.35523437 8.85945313 -1.69921875 9.78515625 C-3 12 -3 12 -5.14453125 12.80859375 C-5.75683594 12.87175781 -6.36914062 12.93492188 -7 13 C-6.7589852 5.89006342 -6.7589852 5.89006342 -4.59765625 3.35546875 C-2.9375 2 -2.9375 2 0 0 Z " fill="#696953" transform="translate(92,29)"/>
<path d="M0 0 C0 4.29 0 8.58 0 13 C-0.33 12.34 -0.66 11.68 -1 11 C-2.32 11.33 -3.64 11.66 -5 12 C-4.9129995 10.37399059 -4.8048219 8.74910322 -4.6875 7.125 C-4.62949219 6.22007813 -4.57148437 5.31515625 -4.51171875 4.3828125 C-3.96285445 1.82703217 -3.09391953 0 0 0 Z " fill="#220F0D" transform="translate(98,75)"/>
<path d="M0 0 C3.63 0 7.26 0 11 0 C11 1.32 11 2.64 11 4 C7.37 4 3.74 4 0 4 C0 2.68 0 1.36 0 0 Z " fill="#819B9C" transform="translate(184,74)"/>
<path d="M0 0 C7.26 0 14.52 0 22 0 C21.67 1.65 21.34 3.3 21 5 C20.48953125 4.79503906 19.9790625 4.59007813 19.453125 4.37890625 C13.00732185 1.99030189 6.8402909 1.33564879 0 1 C0 0.67 0 0.34 0 0 Z " fill="#204451" transform="translate(120,63)"/>
<path d="M0 0 C0.33 0 0.66 0 1 0 C1 2.97 1 5.94 1 9 C-0.98 9 -2.96 9 -5 9 C-5 6.69 -5 4.38 -5 2 C-3.68 2 -2.36 2 -1 2 C-0.67 1.34 -0.34 0.68 0 0 Z " fill="#0F1F2A" transform="translate(218,62)"/>
<path d="M0 0 C1.32 0.66 2.64 1.32 4 2 C0.44425056 6.74099926 -2.56928056 9.53149116 -8 12 C-10.4375 11.75 -10.4375 11.75 -12 11 C-9.98928293 9.42015087 -8.11803264 8.05733014 -5.8125 6.9375 C-3.82107843 6.13297839 -3.82107843 6.13297839 -3 4 C-2.01 3.34 -1.02 2.68 0 2 C0 1.34 0 0.68 0 0 Z " fill="#7C9391" transform="translate(107,11)"/>
<path d="M0 0 C-0.99 1.485 -0.99 1.485 -2 3 C0.64 2.67 3.28 2.34 6 2 C1.4407093 5.03952713 -2.47162419 7 -8 7 C-7.649375 6.38125 -7.29875 5.7625 -6.9375 5.125 C-6.628125 4.42375 -6.31875 3.7225 -6 3 C-6.33 2.34 -6.66 1.68 -7 1 C-4.53721199 -0.231394 -2.7204945 -0.07159196 0 0 Z " fill="#263237" transform="translate(103,7)"/>
<path d="M0 0 C2.5 1.8125 2.5 1.8125 5 4 C5 4.99 5 5.98 5 7 C2.03 7 -0.94 7 -4 7 C-3.39816251 4.97954558 -2.72693904 2.97888961 -2 1 C-1.34 0.67 -0.68 0.34 0 0 Z " fill="#8B744A" transform="translate(96,64)"/>
<path d="M0 0 C0 0.66 0 1.32 0 2 C1.65 2.33 3.3 2.66 5 3 C5 3.66 5 4.32 5 5 C0.61667943 4.17812739 -3.67940177 3.09845718 -8 2 C-7.67 2.99 -7.34 3.98 -7 5 C-7.99 5.495 -7.99 5.495 -9 6 C-9 5.34 -9 4.68 -9 4 C-10.65 4 -12.3 4 -14 4 C-11.17991324 2.11994216 -9.65676336 1.54324907 -6.4375 0.875 C-5.65246094 0.70742187 -4.86742188 0.53984375 -4.05859375 0.3671875 C-2 0 -2 0 0 0 Z " fill="#678286" transform="translate(115,9)"/>
<path d="M0 0 C0.99 0.33 1.98 0.66 3 1 C1.23436021 2.65172755 -0.53704598 4.29638045 -2.3125 5.9375 C-3.06176758 6.64036133 -3.06176758 6.64036133 -3.82617188 7.35742188 C-6.21561016 9.55697103 -7.88080438 10.96026813 -11 12 C-11.66 11.34 -12.32 10.68 -13 10 C-12.34 10 -11.68 10 -11 10 C-11 9.34 -11 8.68 -11 8 C-10.113125 7.608125 -9.22625 7.21625 -8.3125 6.8125 C-4.87870392 4.93363045 -2.63458231 2.86704545 0 0 Z " fill="#24263B" transform="translate(188,142)"/>
<path d="M0 0 C4.29 0 8.58 0 13 0 C13 0.99 13 1.98 13 3 C8.71 3 4.42 3 0 3 C0 2.01 0 1.02 0 0 Z " fill="#89A5A9" transform="translate(200,74)"/>
<path d="M0 0 C1.37006481 3.85755836 0.76281759 7.19338865 0.1875 11.1875 C0.01605469 12.43917969 -0.15539062 13.69085938 -0.33203125 14.98046875 C-0.55246094 15.97691406 -0.77289063 16.97335938 -1 18 C-1.66 18.33 -2.32 18.66 -3 19 C-3.55353075 5.18223235 -3.55353075 5.18223235 0 0 Z " fill="#5E6252" transform="translate(68,63)"/>
<path d="M0 0 C5.12583611 -0.10251672 9.94997778 -0.03590199 15 1 C15 1.66 15 2.32 15 3 C10.05 3 5.1 3 0 3 C0 2.01 0 1.02 0 0 Z " fill="#26414C" transform="translate(198,68)"/>
<path d="M0 0 C1.5 1.375 1.5 1.375 3 3 C3 3.66 3 4.32 3 5 C3.99 5 4.98 5 6 5 C6 6.98 6 8.96 6 11 C4.02 11 2.04 11 0 11 C0 10.67 0 10.34 0 10 C1.65 10 3.3 10 5 10 C5 9.01 5 8.02 5 7 C3.7625 7.04125 2.525 7.0825 1.25 7.125 C-2.01637962 7.13658291 -4.2146947 6.8568702 -7 5 C-4.36 5 -1.72 5 1 5 C0.67 3.35 0.34 1.7 0 0 Z " fill="#102E4C" transform="translate(207,58)"/>
<path d="M0 0 C14.22368421 1.81578947 14.22368421 1.81578947 19 5 C12.63440427 4.50873071 6.30735307 4.00344253 0 3 C0 2.01 0 1.02 0 0 Z " fill="#122836" transform="translate(220,63)"/>
<path d="M0 0 C1.98 0 3.96 0 6 0 C6.33 1.98 6.66 3.96 7 6 C4.69 5.67 2.38 5.34 0 5 C0 3.35 0 1.7 0 0 Z " fill="#25373D" transform="translate(167,65)"/>
<path d="M0 0 C1.45903258 0.30921884 2.91720722 0.62248799 4.375 0.9375 C5.18710938 1.11152344 5.99921875 1.28554688 6.8359375 1.46484375 C9 2 9 2 11 3 C8.36 4.65 5.72 6.3 3 8 C2.67 6.35 2.34 4.7 2 3 C1.01 3 0.02 3 -1 3 C-0.67 2.01 -0.34 1.02 0 0 Z " fill="#B0B3A2" transform="translate(109,49)"/>
<path d="M0 0 C0 0.66 0 1.32 0 2 C-1.155 2.28875 -2.31 2.5775 -3.5 2.875 C-4.5828125 3.14570312 -4.5828125 3.14570312 -5.6875 3.421875 C-8 4 -8 4 -10.3125 4.578125 C-11.034375 4.75859375 -11.75625 4.9390625 -12.5 5.125 C-13.655 5.41375 -14.81 5.7025 -16 6 C-15.0246803 4.97591432 -14.01801357 3.98165594 -13 3 C-12.46375 2.443125 -11.9275 1.88625 -11.375 1.3125 C-7.72109872 -0.70676123 -4.0869963 -0.23578825 0 0 Z " fill="#30322C" transform="translate(115,43)"/>
<path d="M0 0 C3 3.625 3 3.625 3 7 C3.66 7 4.32 7 5 7 C5 9.31 5 11.62 5 14 C3.0625 13.375 3.0625 13.375 1 12 C0.3125 9.125 0.3125 9.125 0 6 C-0.20625 5.2575 -0.4125 4.515 -0.625 3.75 C-1 2 -1 2 0 0 Z " fill="#2C231D" transform="translate(60,115)"/>
<path d="M0 0 C0.97868964 3.06610462 0.98040257 4.92832604 0.0625 8 C-0.81271705 10.96762337 -1 12.76692848 -1 16 C-2.65 16 -4.3 16 -6 16 C-4.25192871 10.53262809 -2.34205919 5.24175152 0 0 Z " fill="#3C3222" transform="translate(93,55)"/>
<path d="M0 0 C-1.12327771 1.45966034 -2.24868294 2.91768364 -3.375 4.375 C-4.00148438 5.18710937 -4.62796875 5.99921875 -5.2734375 6.8359375 C-7 9 -7 9 -9 11 C-8.6548316 2.7677336 -8.6548316 2.7677336 -6.1875 -0.125 C-3.59604967 -1.16158013 -2.60487637 -0.77545586 0 0 Z " fill="#8D6B36" transform="translate(104,52)"/>
<path d="M0 0 C-3 2 -3 2 -5.125 2.4375 C-5.74375 2.623125 -6.3625 2.80875 -7 3 C-7.33 3.99 -7.66 4.98 -8 6 C-9.65 6 -11.3 6 -13 6 C-13 4 -13 4 -10.4375 1.3125 C-6.90181842 -1.57342625 -4.37656057 -1.13790575 0 0 Z " fill="#958A63" transform="translate(95,23)"/>
<path d="M0 0 C1.32 0 2.64 0 4 0 C4 1.32 4 2.64 4 4 C3.34 4 2.68 4 2 4 C2 5.98 2 7.96 2 10 C1.67 10 1.34 10 1 10 C1 8.35 1 6.7 1 5 C-0.65 4.67 -2.3 4.34 -4 4 C-3.67 3.34 -3.34 2.68 -3 2 C-2.01 2 -1.02 2 0 2 C0 1.34 0 0.68 0 0 Z " fill="#1F2739" transform="translate(209,96)"/>
<path d="M0 0 C0.33 0 0.66 0 1 0 C1.06058594 0.60328125 1.12117188 1.2065625 1.18359375 1.828125 C1.26738281 2.62734375 1.35117188 3.4265625 1.4375 4.25 C1.55931641 5.43335937 1.55931641 5.43335937 1.68359375 6.640625 C1.97634993 8.82364639 2.42064419 10.8773182 3 13 C2.34 13 1.68 13 1 13 C1 12.34 1 11.68 1 11 C0.01 11 -0.98 11 -2 11 C-2.19622241 6.78121808 -1.80230168 3.82989106 0 0 Z " fill="#0F0B0D" transform="translate(81,76)"/>
<path d="M0 0 C-5.75 3 -5.75 3 -8 3 C-8.33 4.32 -8.66 5.64 -9 7 C-11.31 7 -13.62 7 -16 7 C-15.67 6.01 -15.34 5.02 -15 4 C-13.8553125 4.0928125 -13.8553125 4.0928125 -12.6875 4.1875 C-9.44461116 3.96125194 -9.12527385 3.30238001 -7 1 C-2.44444444 -1.22222222 -2.44444444 -1.22222222 0 0 Z " fill="#A59A71" transform="translate(97,24)"/>
<path d="M0 0 C2.05078125 0.03255208 4.1015625 0.06510417 6.15234375 0.09765625 C3.38154488 3.90750469 -0.4763377 4.16606377 -4.84765625 5.09765625 C-2.44354091 0.12915121 -2.44354091 0.12915121 0 0 Z " fill="#180E0D" transform="translate(86.84765625,70.90234375)"/>
<path d="M0 0 C1.65 0 3.3 0 5 0 C4.01 0.495 4.01 0.495 3 1 C3 1.66 3 2.32 3 3 C4.2375 2.95875 5.475 2.9175 6.75 2.875 C10.01637962 2.86341709 12.2146947 3.1431298 15 5 C11.59598052 6.13732426 9.22543336 5.83989957 5.75 5.0625 C4.85796875 4.86785156 3.9659375 4.67320313 3.046875 4.47265625 C2.37140625 4.31667969 1.6959375 4.16070312 1 4 C0.67 2.68 0.34 1.36 0 0 Z " fill="#305460" transform="translate(118,44)"/>
<path d="M0 0 C1.98 0 3.96 0 6 0 C6 1.65 6 3.3 6 5 C4.02 5 2.04 5 0 5 C0 3.35 0 1.7 0 0 Z " fill="#708A8C" transform="translate(176,73)"/>
<path d="M0 0 C3.3 0 6.6 0 10 0 C10 0.99 10 1.98 10 3 C6.7 3 3.4 3 0 3 C0 2.01 0 1.02 0 0 Z " fill="#33474F" transform="translate(133,30)"/>
<path d="M0 0 C0.66 0.66 1.32 1.32 2 2 C1.67 2.33 1.34 2.66 1 3 C-1.35694954 2.90968426 -3.71153582 2.75311872 -6.0625 2.5625 C-7.35285156 2.46066406 -8.64320312 2.35882813 -9.97265625 2.25390625 C-11.47119141 2.12822266 -11.47119141 2.12822266 -13 2 C-13 1.67 -13 1.34 -13 1 C-8.60854301 0.14313034 -4.47525292 -0.25818767 0 0 Z " fill="#274453" transform="translate(132,5)"/>
<path d="M0 0 C0.66 0 1.32 0 2 0 C2 3.63 2 7.26 2 11 C1.34 11 0.68 11 0 11 C-0.19406478 9.35492782 -0.38007935 7.70890406 -0.5625 6.0625 C-0.66691406 5.14597656 -0.77132812 4.22945313 -0.87890625 3.28515625 C-0.91886719 2.53105469 -0.95882812 1.77695313 -1 1 C-0.67 0.67 -0.34 0.34 0 0 Z " fill="#324144" transform="translate(152,71)"/>
<path d="M0 0 C2.31 0 4.62 0 7 0 C7 1.32 7 2.64 7 4 C4.69 4 2.38 4 0 4 C0 2.68 0 1.36 0 0 Z " fill="#889D9B" transform="translate(155,74)"/>
<path d="M0 0 C0.66 0.33 1.32 0.66 2 1 C2 4.63 2 8.26 2 12 C1.01 11.34 0.02 10.68 -1 10 C-0.67 6.7 -0.34 3.4 0 0 Z " fill="#09417E" transform="translate(265,67)"/>
<path d="M0 0 C0.33 0.66 0.66 1.32 1 2 C2.65 2 4.3 2 6 2 C6.33 2.99 6.66 3.98 7 5 C6.01 5.99 5.02 6.98 4 8 C4 7.34 4 6.68 4 6 C3.01 5.67 2.02 5.34 1 5 C-1 3 -1 3 -2 1 C-1.34 0.67 -0.68 0.34 0 0 Z " fill="#AE955F" transform="translate(97,62)"/>
<path d="M0 0 C-8.07744875 5.74031891 -8.07744875 5.74031891 -14 5 C-5.5985874 -1.78575633 -5.5985874 -1.78575633 0 0 Z " fill="#5D4F36" transform="translate(113,46)"/>
<path d="M0 0 C2.64 0 5.28 0 8 0 C5.16569547 3.2542015 3.31392226 4.5206753 -1 5 C-0.67 3.35 -0.34 1.7 0 0 Z " fill="#0F2027" transform="translate(184,64)"/>
<path d="M0 0 C1.18771723 3.42943519 0.80226223 5.37784675 -0.4375 8.75 C-0.86869141 9.94882813 -0.86869141 9.94882813 -1.30859375 11.171875 C-1.53675781 11.77515625 -1.76492187 12.3784375 -2 13 C-2.66 12.01 -3.32 11.02 -4 10 C-3.125 6.3125 -3.125 6.3125 -2 3 C-1.34 3 -0.68 3 0 3 C0 2.01 0 1.02 0 0 Z " fill="#5B4625" transform="translate(95,56)"/>
<path d="M0 0 C2.27783055 0.52372167 4.50232846 1.11568694 6.73046875 1.8203125 C3.05359858 4.27155928 1.06919658 3.97526707 -3.26953125 3.8203125 C-4.25953125 3.8203125 -5.24953125 3.8203125 -6.26953125 3.8203125 C-4.45672108 1.14050617 -3.35762714 -0.26583623 0 0 Z " fill="#C6AD6D" transform="translate(80.26953125,29.1796875)"/>
<path d="M0 0 C0.66 0.33 1.32 0.66 2 1 C0.02 3.97 -1.96 6.94 -4 10 C-5 6 -5 6 -4.25 3.875 C-3 2 -3 2 0 0 Z " fill="#536259" transform="translate(97,25)"/>
<path d="M0 0 C3.63 0 7.26 0 11 0 C11 0.99 11 1.98 11 3 C7.7 3 4.4 3 1 3 C0.67 2.01 0.34 1.02 0 0 Z " fill="#1E3540" transform="translate(184,67)"/>
<path d="M0 0 C0.33 0 0.66 0 1 0 C1.3125 2.1875 1.3125 2.1875 1 5 C-1.5 7.8125 -1.5 7.8125 -4 10 C-3.67 7.03 -3.34 4.06 -3 1 C-2.34 1.33 -1.68 1.66 -1 2 C-0.67 1.34 -0.34 0.68 0 0 Z " fill="#736B4F" transform="translate(66,50)"/>
<path d="M0 0 C0.33 1.65 0.66 3.3 1 5 C-0.65 5.33 -2.3 5.66 -4 6 C-4.33 4.35 -4.66 2.7 -5 1 C-3 0 -3 0 0 0 Z " fill="#7C8B85" transform="translate(118,44)"/>
<path d="M0 0 C1.98 0 3.96 0 6 0 C6 0.66 6 1.32 6 2 C4.68 2.33 3.36 2.66 2 3 C1.67 4.32 1.34 5.64 1 7 C2.65 7 4.3 7 6 7 C5.67 7.66 5.34 8.32 5 9 C3.35 8.67 1.7 8.34 0 8 C0 5.36 0 2.72 0 0 Z " fill="#303B3D" transform="translate(213,71)"/>
<path d="M0 0 C2 1.3125 2 1.3125 4 4 C4.36089448 7.68855385 4.22933459 11.3051649 4 15 C3.67 15 3.34 15 3 15 C2.67 12.03 2.34 9.06 2 6 C1.34 6 0.68 6 0 6 C0 4.02 0 2.04 0 0 Z " fill="#474E44" transform="translate(113,71)"/>
<path d="M0 0 C1.0169313 2.65498232 1.13022151 3.69155375 0.00390625 6.359375 C-0.47175781 7.14828125 -0.94742188 7.9371875 -1.4375 8.75 C-2.14712891 9.94882812 -2.14712891 9.94882812 -2.87109375 11.171875 C-3.24363281 11.77515625 -3.61617188 12.3784375 -4 13 C-5.40318642 8.79044073 -3.88224523 6.90391604 -2 3 C-1.34 2.01 -0.68 1.02 0 0 Z " fill="#624E2C" transform="translate(68,38)"/>
<path d="M0 0 C1.2818632 2.5637264 1.27122178 4.15217131 1 7 C-0.1875 9.25 -0.1875 9.25 -2 11 C-4.6875 11.75 -4.6875 11.75 -7 12 C-7 11.34 -7 10.68 -7 10 C-6.06414063 9.89365234 -6.06414063 9.89365234 -5.109375 9.78515625 C-2.80770679 9.19995468 -2.80770679 9.19995468 -1.953125 6.93359375 C-1.72109375 6.10988281 -1.4890625 5.28617188 -1.25 4.4375 C-1.00765625 3.61121094 -0.7653125 2.78492188 -0.515625 1.93359375 C-0.34546875 1.29550781 -0.1753125 0.65742188 0 0 Z " fill="#3D3425" transform="translate(70,29)"/>
<path d="M0 0 C0.33 1.32 0.66 2.64 1 4 C-0.61992165 4.86375896 -2.24611861 5.71575854 -3.875 6.5625 C-5.23238281 7.27599609 -5.23238281 7.27599609 -6.6171875 8.00390625 C-7.40351562 8.33261719 -8.18984375 8.66132812 -9 9 C-9.66 8.67 -10.32 8.34 -11 8 C-10.195625 7.71125 -9.39125 7.4225 -8.5625 7.125 C-5.8673532 6.26737432 -5.8673532 6.26737432 -5 4 C-3.35704805 2.63755204 -1.69175663 1.30135125 0 0 Z " fill="#1B2B31" transform="translate(112,28)"/>
<path d="M0 0 C1.98 0 3.96 0 6 0 C6 1.32 6 2.64 6 4 C4.02 4 2.04 4 0 4 C0 2.68 0 1.36 0 0 Z " fill="#81928E" transform="translate(167,74)"/>
<path d="M0 0 C1.32 0 2.64 0 4 0 C4 1.65 4 3.3 4 5 C2.35 5 0.7 5 -1 5 C-0.67 3.35 -0.34 1.7 0 0 Z " fill="#61685D" transform="translate(215,73)"/>
<path d="M0 0 C2.29783606 3.44675409 2.29754883 4.93328112 2.3125 9 C2.32925781 10.051875 2.34601563 11.10375 2.36328125 12.1875 C2 15 2 15 0.48046875 16.875 C-0.00808594 17.24625 -0.49664062 17.6175 -1 18 C-1.02690844 15.37493198 -1.04679404 12.75013827 -1.0625 10.125 C-1.07087891 9.37863281 -1.07925781 8.63226563 -1.08789062 7.86328125 C-1.11328125 2.2265625 -1.11328125 2.2265625 0 0 Z " fill="#D4B671" transform="translate(72,36)"/>
<path d="M0 0 C2.97 0 5.94 0 9 0 C7.02 0.99 7.02 0.99 5 2 C3.62913085 3.29470975 2.28659163 4.62150897 1 6 C0.67 4.02 0.34 2.04 0 0 Z " fill="#273031" transform="translate(133,124)"/>
<path d="M0 0 C3.96 0 7.92 0 12 0 C11.67 0.99 11.34 1.98 11 3 C10.0925 2.814375 9.185 2.62875 8.25 2.4375 C5.31685676 2.04265379 3.7355343 2.05308428 1 3 C0.67 2.01 0.34 1.02 0 0 Z " fill="#0F212D" transform="translate(240,82)"/>
<path d="M0 0 C2.31 0 4.62 0 7 0 C6.67 0.99 6.34 1.98 6 3 C4.35 3 2.7 3 1 3 C0.67 3.99 0.34 4.98 0 6 C0 4.02 0 2.04 0 0 Z " fill="#2D4044" transform="translate(167,79)"/>
<path d="M0 0 C3.63 0 7.26 0 11 0 C10.34 1.98 9.68 3.96 9 6 C8.67 4.68 8.34 3.36 8 2 C5.36 1.67 2.72 1.34 0 1 C0 0.67 0 0.34 0 0 Z " fill="#3F606D" transform="translate(115,7)"/>
<path d="M0 0 C-0.33 0.66 -0.66 1.32 -1 2 C-3.06640625 2.6328125 -3.06640625 2.6328125 -5.5625 3.125 C-6.38878906 3.29257813 -7.21507812 3.46015625 -8.06640625 3.6328125 C-8.70449219 3.75398437 -9.34257812 3.87515625 -10 4 C-10.33 3.34 -10.66 2.68 -11 2 C-9.54494642 1.47007308 -8.08581873 0.9513211 -6.625 0.4375 C-5.81289062 0.14746094 -5.00078125 -0.14257812 -4.1640625 -0.44140625 C-2 -1 -2 -1 0 0 Z " fill="#272226" transform="translate(160,162)"/>
<path d="M0 0 C2.475 0.99 2.475 0.99 5 2 C5 2.66 5 3.32 5 4 C6.98 4.66 8.96 5.32 11 6 C10.67 6.66 10.34 7.32 10 8 C8.32819726 7.05065487 6.66266064 6.09026687 5 5.125 C4.071875 4.59132812 3.14375 4.05765625 2.1875 3.5078125 C1.465625 3.01023438 0.74375 2.51265625 0 2 C0 1.34 0 0.68 0 0 Z " fill="#281B15" transform="translate(83,150)"/>
<path d="M0 0 C0.33 0.99 0.66 1.98 1 3 C1.66 3 2.32 3 3 3 C2.67 4.98 2.34 6.96 2 9 C1.34 9 0.68 9 0 9 C-0.87890625 2.84765625 -0.87890625 2.84765625 -1 1 C-0.67 0.67 -0.34 0.34 0 0 Z " fill="#2B3B3D" transform="translate(67,94)"/>
<path d="M0 0 C2.31 0 4.62 0 7 0 C7 0.99 7 1.98 7 3 C4.69 3.33 2.38 3.66 0 4 C0 2.68 0 1.36 0 0 Z " fill="#496266" transform="translate(155,78)"/>
<path d="M0 0 C1.64666203 0.1135629 3.29236082 0.24117381 4.9375 0.375 C5.85402344 0.44460937 6.77054688 0.51421875 7.71484375 0.5859375 C8.84599609 0.79089844 8.84599609 0.79089844 10 1 C10.33 1.66 10.66 2.32 11 3 C7.7 3 4.4 3 1 3 C0.67 2.01 0.34 1.02 0 0 Z " fill="#3D4A49" transform="translate(219,68)"/>
<path d="M0 0 C0.33 0.99 0.66 1.98 1 3 C-1.3125 5.5 -1.3125 5.5 -4 8 C-4.99 8 -5.98 8 -7 8 C-4.69 5.36 -2.38 2.72 0 0 Z " fill="#645F48" transform="translate(111,57)"/>
<path d="M0 0 C2.31 0 4.62 0 7 0 C7 0.99 7 1.98 7 3 C4.69 3 2.38 3 0 3 C0 2.01 0 1.02 0 0 Z " fill="#3E565C" transform="translate(155,71)"/>
<path d="M0 0 C0.33 0.66 0.66 1.32 1 2 C1.99 2.33 2.98 2.66 4 3 C4 3.66 4 4.32 4 5 C-0.75 5.125 -0.75 5.125 -3 4 C-2.67 3.01 -2.34 2.02 -2 1 C-1.34 0.67 -0.68 0.34 0 0 Z " fill="#CBAC6B" transform="translate(99,59)"/>
<path d="M0 0 C1.31625194 2.63250388 0.74813658 3.80179056 0.0625 6.625 C-0.13214844 7.44226562 -0.32679687 8.25953125 -0.52734375 9.1015625 C-0.68332031 9.72804688 -0.83929688 10.35453125 -1 11 C-1.66 11 -2.32 11 -3 11 C-2.25 3.375 -2.25 3.375 0 0 Z " fill="#4E422B" transform="translate(63,46)"/>
<path d="M0 0 C0 3.58912412 -0.66436554 4.10857029 -3 6.6875 C-3.556875 7.31011719 -4.11375 7.93273438 -4.6875 8.57421875 C-5.120625 9.04472656 -5.55375 9.51523437 -6 10 C-6.33 8.68 -6.66 7.36 -7 6 C-4.69 4.02 -2.38 2.04 0 0 Z " fill="#72694B" transform="translate(84,42)"/>
<path d="M0 0 C2.64 0 5.28 0 8 0 C8 0.66 8 1.32 8 2 C6.02 2 4.04 2 2 2 C1.67 2.99 1.34 3.98 1 5 C0.67 3.35 0.34 1.7 0 0 Z " fill="#352B21" transform="translate(92,91)"/>
<path d="M0 0 C0.66 0 1.32 0 2 0 C2 1.65 2 3.3 2 5 C0.68 5.33 -0.64 5.66 -2 6 C-1.125 1.125 -1.125 1.125 0 0 Z " fill="#68604A" transform="translate(164,72)"/>
<path d="M0 0 C0.66 0.33 1.32 0.66 2 1 C1.360625 1.598125 0.72125 2.19625 0.0625 2.8125 C-2.20310389 4.90810337 -2.20310389 4.90810337 -3 8 C-3.66 8 -4.32 8 -5 8 C-5.33 8.66 -5.66 9.32 -6 10 C-5.58578031 5.16743695 -3.53586014 3.17320782 0 0 Z " fill="#888E7D" transform="translate(120,64)"/>
<path d="M0 0 C0.66 0.33 1.32 0.66 2 1 C0.1875 3.5 0.1875 3.5 -2 6 C-2.99 6 -3.98 6 -5 6 C-3.63016497 2.83884224 -3.0109362 2.0072908 0 0 Z " fill="#42514D" transform="translate(117,53)"/>
<path d="M0 0 C1.95825873 -0.02694851 3.91662226 -0.04637218 5.875 -0.0625 C6.96554688 -0.07410156 8.05609375 -0.08570312 9.1796875 -0.09765625 C12 0 12 0 14 1 C13.67 1.99 13.34 2.98 13 4 C12.34 3.67 11.68 3.34 11 3 C11 2.34 11 1.68 11 1 C7.37 1 3.74 1 0 1 C0 0.67 0 0.34 0 0 Z " fill="#364B50" transform="translate(184,71)"/>
<path d="M0 0 C0.556875 0.495 1.11375 0.99 1.6875 1.5 C4.38162983 3.24754367 5.85375007 3.26218749 9 3 C7.625 5 7.625 5 6 7 C5.34 7 4.68 7 4 7 C0 2.52941176 0 2.52941176 0 0 Z " fill="#E5D6AC" transform="translate(103,53)"/>
<path d="M0 0 C2.97 0 5.94 0 9 0 C8.67 0.66 8.34 1.32 8 2 C5.67843403 2.40729228 3.3431213 2.74438677 1 3 C0.67 2.01 0.34 1.02 0 0 Z " fill="#2C3839" transform="translate(118,124)"/>
<path d="M0 0 C2.31 0 4.62 0 7 0 C7 0.99 7 1.98 7 3 C6.34 3 5.68 3 5 3 C4.67 3.66 4.34 4.32 4 5 C4 4.01 4 3.02 4 2 C2.68 2 1.36 2 0 2 C0 1.34 0 0.68 0 0 Z " fill="#04162E" transform="translate(199,98)"/>
<path d="M0 0 C1.98 0 3.96 0 6 0 C6 0.99 6 1.98 6 3 C4.02 3 2.04 3 0 3 C0 2.01 0 1.02 0 0 Z " fill="#152730" transform="translate(167,65)"/>
<path d="M0 0 C0.66 0.33 1.32 0.66 2 1 C0.63016497 4.16115776 0.0109362 4.9927092 -3 7 C-2.625 4.0625 -2.625 4.0625 -2 1 C-1.34 0.67 -0.68 0.34 0 0 Z " fill="#AFAB8C" transform="translate(91,26)"/>
<path d="M0 0 C-2.25 2.0625 -2.25 2.0625 -5 4 C-7.3125 3.75 -7.3125 3.75 -9 3 C-5.92807025 0.26939578 -4.09590633 -0.34132553 0 0 Z " fill="#8B9384" transform="translate(104,19)"/>
<path d="M0 0 C0.33 0 0.66 0 1 0 C1.125 3.375 1.125 3.375 1 7 C0.34 7.66 -0.32 8.32 -1 9 C-1.80967438 6.08517222 -2.21845993 4.53886783 -1.0625 1.6875 C-0.711875 1.130625 -0.36125 0.57375 0 0 Z " fill="#3E3C31" transform="translate(102,86)"/>
<path d="M0 0 C1.2065625 0.0309375 1.2065625 0.0309375 2.4375 0.0625 C0.30969421 2.40308637 -1.67812221 3.76950306 -4.5625 5.0625 C-3.43829114 0.08386076 -3.43829114 0.08386076 0 0 Z " fill="#182930" transform="translate(159.5625,81.9375)"/>
<path d="M0 0 C0.99 0 1.98 0 3 0 C3.33 1.98 3.66 3.96 4 6 C2.35 4.35 0.7 2.7 -1 1 C-0.67 0.67 -0.34 0.34 0 0 Z " fill="#D7C393" transform="translate(104,51)"/>
<path d="M0 0 C0.66 0 1.32 0 2 0 C1.67 0.99 1.34 1.98 1 3 C0.34 3 -0.32 3 -1 3 C-1 3.99 -1 4.98 -1 6 C-2.32 6.33 -3.64 6.66 -5 7 C-4.21654285 5.82780457 -3.42297164 4.66236332 -2.625 3.5 C-2.18414062 2.8503125 -1.74328125 2.200625 -1.2890625 1.53125 C-0.65097656 0.77328125 -0.65097656 0.77328125 0 0 Z " fill="#303E3D" transform="translate(97,35)"/>
<path d="M0 0 C0.33 0.99 0.66 1.98 1 3 C-0.40445835 5.2636564 -2.1967913 7.0208685 -4 9 C-4.33 8.01 -4.66 7.02 -5 6 C-3.59554165 3.7363436 -1.8032087 1.9791315 0 0 Z " fill="#43514C" transform="translate(96,30)"/>
</svg>
